<svg xmlns="http://www.w3.org/2000/svg" width="805" height="600"><rect width="805" height="600" x="0" y="0" fill="#FFFFFF" id="background"/><g transform="translate(402.5,300)" id="chord_diagram"><g><g><path fill="rgb(86, 173, 174)" d="M1.5308084989341916e-14,-250A250,250,0,0,1,80.77000342694886,-236.59291313648995L77.5392032898709,-227.12919661103035A240,240,0,0,0,1.469576158976824e-14,-240Z"/></g><g><path fill="#cccccc" d="M90.55508657319304,-233.02312395065326A250,250,0,0,1,94.79864024950714,-231.32924114094294L91.00669463952686,-222.07607149530523A240,240,0,0,0,86.93288311026532,-223.70219899262713Z"/></g><g><path fill="#cccccc" d="M104.35229130989148,-227.1796630386962A250,250,0,0,1,108.48674686609998,-225.23460159223038L104.14727699145598,-216.22521752854118A240,240,0,0,0,100.17819965749582,-218.09247651714833Z"/></g><g><path fill="#cccccc" d="M117.7746477664965,-220.52014044861681A250,250,0,0,1,121.78515364989352,-218.3308873029005L116.91374750389778,-209.59765181078447A240,240,0,0,0,113.06366185583664,-211.69933483067214Z"/></g><g><path fill="#cccccc" d="M130.7739409285661,-213.0684781332328A250,250,0,0,1,134.646090831309,-210.64289739710398L129.26024719805665,-202.2171815012198A240,240,0,0,0,125.54298329142347,-204.54573900790348Z"/></g><g><path fill="#cccccc" d="M143.30347548521576,-204.85144352397953A250,250,0,0,1,147.02336009383296,-202.19824822861133L141.14242569007965,-194.11031829946688A240,240,0,0,0,137.57133646580712,-196.65738578302035Z"/></g><g><path fill="#cccccc" d="M155.31824356531988,-195.89855337848712A250,250,0,0,1,158.87250052494423,-193.02727417893982L152.51760050394645,-185.3061832117822A240,240,0,0,0,149.10551382270708,-188.06261124334765Z"/></g><g><path fill="rgb(231, 245, 163)" d="M166.77508641218984,-186.24196775218687A250,250,0,0,1,170.15094832603873,-183.1629186919386L163.34491039299718,-175.83640194426104A240,240,0,0,0,160.10408295570224,-178.7922890420994Z"/></g><g><path fill="#cccccc" d="M177.6328494159695,-175.91637447481546A250,250,0,0,1,180.81818970765102,-172.64061593625044L173.58546211934498,-165.73499129880042A240,240,0,0,0,170.5275354393307,-168.87971949582283Z"/></g><g><path fill="rgb(94, 79, 162)" d="M187.85252994685035,-164.95886454679447A250,250,0,0,1,249.99238544961716,-1.9512091661430553L239.99269003163246,-1.873160799497333A240,240,0,0,0,180.33842874897636,-158.3605099649227Z"/></g><g><path fill="#cccccc" d="M249.85668642404175,8.463820012149561A250,250,0,0,1,249.66027352931877,13.028730608380062L239.67386258814602,12.50758138404486A240,240,0,0,0,239.8624189670801,8.125267211663578Z"/></g><g><path fill="#cccccc" d="M248.90087918374067,23.416924254925775A250,250,0,0,1,248.43134637894357,27.961869328522415L238.49409252378584,26.84339455538152A240,240,0,0,0,238.94484401639104,22.480247284728744Z"/></g><g><path fill="rgb(158, 1, 66)" d="M247.05098456591668,38.28591157346531A250,250,0,0,1,245.4867770174957,47.288923751364266L235.66730593679588,45.397366801309694A240,240,0,0,0,237.16894518328002,36.754475110526705Z"/></g><g><path fill="#cccccc" d="M243.30390994326433,57.47353657397394A250,250,0,0,1,242.21290099107495,61.91050471032939L232.52438495143195,59.43408452191621A240,240,0,0,0,233.57175354553377,55.17459511101498Z"/></g><g><path fill="#cccccc" d="M239.42381913928998,71.9460549909205A250,250,0,0,1,238.06896175652284,76.30969432628639L228.5462032862619,73.25730655323493A240,240,0,0,0,229.84686637371837,69.06821279128368Z"/></g><g><path fill="#cccccc" d="M234.6836839060923,86.16013294015598A250,250,0,0,1,233.06984493326738,90.43476866107798L223.7470511359367,86.81737791463486A240,240,0,0,0,225.29633654984863,82.71372762254974Z"/></g><g><path fill="rgb(248, 142, 83)" d="M229.1005314839673,100.06471143097201A250,250,0,0,1,223.27240056705077,112.46970767734051L214.34150454436875,107.97091937024689A240,240,0,0,0,219.9365102246086,96.06212297373312Z"/></g><g><path fill="#cccccc" d="M218.3937337917681,121.67241692549023A250,250,0,0,1,216.13360104376562,125.64341009322519L207.488257002015,120.61767368949619A240,240,0,0,0,209.65798444009738,116.80552024847063Z"/></g><g><path fill="#cccccc" d="M210.71238479193372,134.53732157024706A250,250,0,0,1,208.21841886893847,138.36578350054356L199.8896821141809,132.8311521605218A240,240,0,0,0,202.28388940025636,129.15582870743717Z"/></g><g><path fill="#cccccc" d="M202.27412692079258,146.91894901077632A250,250,0,0,1,199.55528650330038,150.59112732357673L191.57307504316836,144.56748223063366A240,240,0,0,0,194.18316184396087,141.04219105034525Z"/></g><g><path fill="#cccccc" d="M193.10927160141247,158.7728226793613A250,250,0,0,1,190.17532315110375,162.27552638760184L182.5683102250596,155.78450533209778A240,240,0,0,0,185.38490073735596,152.42190977218684Z"/></g><g><path fill="#cccccc" d="M183.25074029829264,170.0563617749354A250,250,0,0,1,180.1122229755124,173.37700866844864L172.90773405649188,166.4419283217107A240,240,0,0,0,175.92071068636093,163.25410730393796Z"/></g><g><path fill="#cccccc" d="M172.73394625877853,180.72903421937883A250,250,0,0,1,169.40213406437252,183.85569606198322L162.62604870179763,176.50146821950392A240,240,0,0,0,165.8245884084274,173.49987285060368Z"/></g><g><path fill="#cccccc" d="M161.5966673036379,190.75250225451137A250,250,0,0,1,158.08352858113736,193.67394763193303L151.76018743789186,185.9269897266557A240,240,0,0,0,155.13280061149237,183.1224021643309Z"/></g><g><path fill="#cccccc" d="M149.87891012375266,200.09076015677505A250,250,0,0,1,146.19706456738112,202.796494821486L140.34918198468588,194.68463502862653A240,240,0,0,0,143.88375371880255,192.08712975050403Z"/></g><g><path fill="#cccccc" d="M137.62276657039212,208.71026357491706A250,250,0,0,1,133.7854398933281,211.19056814296582L128.43402229759496,202.7429454172472A240,240,0,0,0,132.11785590757646,200.3618530319204Z"/></g><g><path fill="#cccccc" d="M124.87226245529358,216.58005002607297A250,250,0,0,1,120.89323888102646,218.82601489049486L116.0575093257854,210.07297429487505A240,240,0,0,0,119.87737195708183,207.91684802503005Z"/></g><g><path fill="#cccccc" d="M111.67319940368124,223.67185011741117A250,250,0,0,1,107.56677215111927,225.6754074528042L103.26410126507449,216.64839115469204A240,240,0,0,0,107.20627142753399,214.72497611271473Z"/></g><g><path fill="#cccccc" d="M98.0729903283109,229.96018909381473A250,250,0,0,1,93.85391026850469,231.71414183711678L90.0997538577645,222.4455761636321A240,240,0,0,0,94.15007071517846,220.76178153006217Z"/></g><g><path fill="rgb(190, 229, 160)" d="M84.1204891155402,235.42247834682712A250,250,0,0,1,71.09223677049921,239.67873053520472L68.24854729967925,230.09158131379652A240,240,0,0,0,80.75566955091858,226.00557921295402Z"/></g><g><path fill="#cccccc" d="M61.04680930920108,242.43202567558197A250,250,0,0,1,56.60598075062047,243.50721332901082L54.34174152059565,233.7669247958504A240,240,0,0,0,58.60493693683304,232.7347446485587Z"/></g><g><path fill="#cccccc" d="M46.41365238218914,245.65376624946197A250,250,0,0,1,41.91638799264981,246.46098356058235L40.239732472943814,236.60254421815907A240,240,0,0,0,44.55710628690157,235.8276155994835Z"/></g><g><path fill="#cccccc" d="M31.613771010989847,247.99308353755492A250,250,0,0,1,27.076225604156,248.52943086691533L25.99317657998976,238.58825363223872A240,240,0,0,0,30.349220170550254,238.07336019605273Z"/></g><g><path fill="#cccccc" d="M16.700328475565183,249.44157437926867A250,250,0,0,1,12.13880156024728,249.70512509093788L11.65324949783739,239.71692008730037A240,240,0,0,0,16.032315336542574,239.46391140409793Z"/></g><g><path fill="#cccccc" d="M1.7268959837391678,249.9940355893743A250,250,0,0,1,-2.842226786261192,249.9838429716918L-2.728537714810744,239.98448925282412A240,240,0,0,0,1.657820144389601,239.99427416579934Z"/></g><g><path fill="#cccccc" d="M-13.252739764203977,249.64848264858787A250,250,0,0,1,-17.81304544969427,249.3645833148868L-17.100523631706498,239.38999998229133A240,240,0,0,0,-12.722630173635817,239.66254334264437Z"/></g><g><path fill="rgb(137, 207, 165)" d="M-28.184769785001322,248.40615683224615A250,250,0,0,1,-32.71987711901128,247.84957058933307L-31.411082034250832,237.93558776575975A240,240,0,0,0,-27.05737899360127,238.46991055895631Z"/></g><g><path fill="#cccccc" d="M-43.01555610193632,246.27152075146887A250,250,0,0,1,-47.50917433356,245.44424693633258L-45.6088073602176,235.62647705887926A240,240,0,0,0,-41.294933857858865,236.42065992141013Z"/></g><g><path fill="#cccccc" d="M-57.69182442008401,243.25224232282463A250,250,0,0,1,-62.12781183317532,242.15725262073312L-59.642699359848315,232.4709625159038A240,240,0,0,0,-55.38415144328065,233.52215262991166Z"/></g><g><path fill="#cccccc" d="M-72.1608554951596,239.35916722408334A250,250,0,0,1,-76.52327739167366,238.00039499386756L-73.4623462960067,228.48037919411286A240,240,0,0,0,-69.2744212753532,229.78480053512Z"/></g><g><path fill="rgb(254, 227, 149)" d="M-86.37067450854596,234.60627993499835A250,250,0,0,1,-94.88676845712261,231.29310662396404L-91.09129771883771,222.0413823590055A240,240,0,0,0,-82.91584752820413,225.22202873759844Z"/></g><g><path fill="#cccccc" d="M-104.43883785913141,227.1398889377074A250,250,0,0,1,-108.5725520582329,225.1932524290244L-104.22964997590358,216.18552233186344A240,240,0,0,0,-100.26128434476615,218.0542933801991Z"/></g><g><path fill="rgb(232, 94, 73)" d="M-117.85865610240654,220.47525299165588A250,250,0,0,1,-121.86832760208338,218.2844720255458L-116.99359449800005,209.55309314452396A240,240,0,0,0,-113.14430985831028,211.65624287198963Z"/></g><g><path fill="#cccccc" d="M-130.85510928124899,213.0186385624328A250,250,0,0,1,-134.72633477088357,210.59158273588193L-129.33728138004824,202.16791942644667A240,240,0,0,0,-125.62090490999904,204.4978930199355Z"/></g><g><path fill="#cccccc" d="M-143.3815122863981,204.79683087017108A250,250,0,0,1,-147.1003857731423,202.14221851308724L-141.2163703422166,194.05652977256375A240,240,0,0,0,-137.6462517949422,196.60495763536426Z"/></g><g><path fill="rgb(202, 50, 74)" d="M-155.39286849570698,195.83936381809437A250,250,0,0,1,-158.9460312567872,192.96673067582512L-152.5881900065157,185.24806144879213A240,240,0,0,0,-149.1771537558787,188.0057892653706Z"/></g><g><path fill="#cccccc" d="M-166.84603140841224,186.17841390253355A250,250,0,0,1,-170.22071997756285,183.09807888211205L-163.41189117846034,175.77415572682756A240,240,0,0,0,-160.17219015207576,178.73127734643222Z"/></g><g><path fill="#cccccc" d="M-177.69985963350513,175.84868463037353A250,250,0,0,1,-180.88395164915534,172.57171273353592L-173.64859358318913,165.6688442241945A240,240,0,0,0,-170.5918652481649,168.8147372451586Z"/></g><g><path fill="#cccccc" d="M-187.91536467546203,164.88728185911768A250,250,0,0,1,-190.89742242598388,161.42544443524224L-183.2615255289445,154.96842665783254A240,240,0,0,0,-180.39875008844353,158.291790584753Z"/></g><g><path fill="#cccccc" d="M-197.45585098646907,153.3335805073674A250,250,0,0,1,-200.2251624960649,149.69931296911284L-192.2161559962223,143.71134045034833A240,240,0,0,0,-189.5576169470103,147.2002372870727Z"/></g><g><path fill="#cccccc" d="M-206.28704778205122,141.22908311451192A250,250,0,0,1,-211.31052571463928,133.59588961567184L-202.8581046860537,128.25205403104496A240,240,0,0,0,-198.03556587076918,135.57991978993147Z"/></g><g><path fill="rgb(67, 127, 180)" d="M-216.6920078398203,124.67787990797432A250,250,0,0,1,-221.1036641387255,116.67548887589747L-212.25951757317645,112.00846932086158A240,240,0,0,0,-208.02432752622747,119.69076471165533Z"/></g><g><path fill="#cccccc" d="M-225.77183378819728,107.36423551590451A250,250,0,0,1,-229.54468990308516,99.04158387917916L-220.36290230696176,95.079920524012A240,240,0,0,0,-216.7409604366694,103.06966609526833Z"/></g><g><path fill="#cccccc" d="M-233.4709998734109,89.39402786601445A250,250,0,0,1,-235.06575150402463,85.11223454855438L-225.66312144386364,81.7077451666122A240,240,0,0,0,-224.13215987847448,85.81826675137388Z"/></g><g><path fill="#cccccc" d="M-238.40704794625987,75.24679055979563A250,250,0,0,1,-239.74242347485546,70.87714995965253L-230.15272653586126,68.04206396126642A240,240,0,0,0,-228.87076602840946,72.23691893740381Z"/></g><g><path fill="#cccccc" d="M-242.48670397670108,60.829256073995694A250,250,0,0,1,-243.55790654435103,56.38746456202093L-233.81559028257698,54.13196597954009A240,240,0,0,0,-232.78723581763305,58.39608583103587Z"/></g><g><path fill="#cccccc" d="M-245.69531325972338,46.19321424415493A250,250,0,0,1,-246.4984949543687,41.6952273675425L-236.63855515619395,40.0274182728408A240,240,0,0,0,-235.86750072933444,44.34548567438873Z"/></g><g><path fill="#cccccc" d="M-248.02135001418546,31.39123981528777A250,250,0,0,1,-248.55362569288334,26.853214982978265L-238.611480665168,25.779086383659134A240,240,0,0,0,-238.10049601361806,30.135590222676257Z"/></g><g><path fill="#cccccc" d="M-249.45645878506184,16.47650358591719A250,250,0,0,1,-249.7159164378296,11.914742028885607L-239.72727978031642,11.438152347730183A240,240,0,0,0,-239.47820043365937,15.817443442480503Z"/></g><g><path fill="#cccccc" d="M-249.9954844574264,1.5025814109999704A250,250,0,0,1,-249.98119207545358,-3.066530374085674L-239.98194439243542,-2.9438691591222472A240,240,0,0,0,-239.99566507912934,1.4424781545599716Z"/></g><g><path fill="#cccccc" d="M-249.63649077435866,-13.476738250168328A250,250,0,0,1,-249.34849969791514,-18.03678736357488L-239.37455970999855,-17.315315869031885A240,240,0,0,0,-239.6510311433843,-12.937668720161595Z"/></g><g><path fill="#cccccc" d="M-248.38076729225432,-28.40764754975345A250,250,0,0,1,-247.82011202626884,-32.94225364615408L-237.9073075452181,-31.624563500307914A240,240,0,0,0,-238.44553660056414,-27.27134164776331Z"/></g><g><path fill="#cccccc" d="M-246.23282474855506,-43.23651253682891A250,250,0,0,1,-245.4015192465264,-47.729386665834504L-235.58545847666534,-45.820211199201125A240,240,0,0,0,-236.38351175861285,-41.507052035355755Z"/></g><g><path fill="#cccccc" d="M-243.2003788585379,-57.91006581816004A250,250,0,0,1,-242.10140928812703,-62.34506893654699L-232.41735291660197,-59.85126617908511A240,240,0,0,0,-233.4723637041964,-55.59366318543364Z"/></g><g><path fill="#cccccc" d="M-239.29432259936775,-72.37559790226062A250,250,0,0,1,-237.93163661565896,-76.7367988477107L-228.4143711510326,-73.66732689380227A240,240,0,0,0,-229.72254969539304,-69.4805739861702Z"/></g><g><path fill="#cccccc" d="M-234.5286870809735,-86.58114653938706A250,250,0,0,1,-232.9071796459354,-90.85287925748955L-223.590892460098,-87.21876408718995A240,240,0,0,0,-225.14753959773455,-83.11790067781158Z"/></g><g><path fill="#cccccc" d="M-228.92059114430435,-100.47568337733385A250,250,0,0,1,-227.04608694338998,-104.64260319628231L-217.9642434656544,-100.45689906843101A240,240,0,0,0,-219.7637674985322,-96.4566560422405Z"/></g><g><path fill="#cccccc" d="M-222.49017986801718,-114.00929726253631A250,250,0,0,1,-220.36941238706495,-118.05643601337331L-211.55463589158236,-113.33417857283838A240,240,0,0,0,-213.5905726732965,-109.44892537203485Z"/></g><g><path fill="#cccccc" d="M-215.26055220448714,-127.13337352803656A250,250,0,0,1,-212.9011395420815,-131.04619331244663L-204.38509396039825,-125.80434557994876A240,240,0,0,0,-206.65013011630765,-122.04803858691508Z"/></g><g><path fill="#cccccc" d="M-207.25767800508382,-139.80076862428544A250,250,0,0,1,-204.6680955072611,-143.5652140367946L-196.48137168697068,-137.8226054753228A240,240,0,0,0,-198.96737088488047,-134.20873787931404Z"/></g><g><path fill="rgb(253, 190, 112)" d="M-198.5103047327694,-151.96597946548113A250,250,0,0,1,-195.6998545483687,-155.56852808247342L-187.87186036643396,-149.3457869591745A240,240,0,0,0,-190.56989254345862,-145.88734028686187Z"/></g><g><path fill="#cccccc" d="M-189.04985419712085,-163.58530688312854A250,250,0,0,1,-186.0286318631418,-167.01301783731606L-178.58748658861614,-160.33249712382343A240,240,0,0,0,-181.48786002923603,-157.04189460780339Z"/></g><g><path fill="#cccccc" d="M-178.9103096827186,-174.61701259967123A250,250,0,0,1,-175.68916785971567,-177.85757306553086L-168.66160114532704,-170.7432701429096A240,240,0,0,0,-171.75389729540984,-167.63233209568438Z"/></g><g><path fill="#cccccc" d="M-168.1280938763521,-185.0214691583237A250,250,0,0,1,-164.7186033641337,-188.06323858151865L-158.12985922956835,-180.5407090382579A240,240,0,0,0,-161.402970121298,-177.62061039199077Z"/></g><g><path fill="rgb(251, 248, 176)" d="M-156.74193803154623,-194.76130227053557A250,250,0,0,1,-153.15634620521504,-197.59335418244285L-147.03009235700642,-189.68962001514515A240,240,0,0,0,-150.4722605102844,-186.97085017971415Z"/></g><g><path fill="#cccccc" d="M-144.79274284038664,-203.80152506975423A250,250,0,0,1,-137.24800331559433,-208.9568988712328L-131.75808318297055,-200.59862291638348A240,240,0,0,0,-139.00103312677115,-195.64946406696407Z"/></g><g><path fill="#cccccc" d="M-128.4248632404504,-214.49255115661154A250,250,0,0,1,-124.48339698174033,-216.80379119352696L-119.50406110247071,-208.1316395457859A240,240,0,0,0,-123.2878687108324,-205.91284911034708Z"/></g><g><path fill="#cccccc" d="M-115.34447644079331,-221.8009282095079A250,250,0,0,1,-111.27162857149048,-223.87189344589075L-106.82076342863085,-214.91701770805514A240,240,0,0,0,-110.73069738316158,-212.92889108112757Z"/></g><g><path fill="#cccccc" d="M-101.84975586782492,-228.31256476520178A250,250,0,0,1,-97.66015663705683,-230.13581599921713L-93.75375037157457,-220.93038335924842A240,240,0,0,0,-97.77576563311193,-219.18006217459373Z"/></g><g><path fill="#cccccc" d="M-87.98917647819084,-234.00407009855573A250,250,0,0,1,-83.69787552258953,-235.57305795231574L-80.34996050168596,-226.1501356342231A240,240,0,0,0,-84.4696094190632,-224.64390729461348Z"/></g><g><path fill="#cccccc" d="M-73.81252744546917,-238.85499951249054A250,250,0,0,1,-69.43493972873483,-240.16408795835184L-66.65754213958544,-230.55752444001777A240,240,0,0,0,-70.8600263476504,-229.30079953199092Z"/></g><g><path fill="#cccccc" d="M-59.3707333103739,-242.84792777824657A250,250,0,0,1,-54.92258375053157,-243.89241438422363L-52.725680400510306,-234.13671780885468A240,240,0,0,0,-56.995903977958946,-233.1340106671167Z"/></g><g><path fill="#cccccc" d="M-44.71567105255778,-245.96851172928507A250,250,0,0,1,-40.21293803581418,-246.74464455085499L-38.604420514381616,-236.8748587688208A240,240,0,0,0,-42.92704421045547,-236.12977126011367Z"/></g><g><path fill="#cccccc" d="M-29.899983741119225,-248.20554178398353A250,250,0,0,1,-25.35884172522569,-248.71053284160473L-24.344488056216665,-238.76211152794056A240,240,0,0,0,-28.703984391474457,-238.2773201126242Z"/></g><g><path fill="#cccccc" d="M-14.976891433206795,-249.55098221204807A250,250,0,0,1,-10.413652846505338,-249.78301750597953L-9.997106732645124,-239.79169680574034A240,240,0,0,0,-14.377815775878524,-239.56894292356617Z"/></g></g><g fill-opacity="0.7"><path fill="rgb(86, 173, 174)" d="M0.4979163064840103,-238.99948133699314A239,239,0,0,1,3.870067222000012,-238.9686644305006Q0,0,78.29470491002246,-200.2372072893859L87.11988928416758,-218.25472478531682L81.11218909953237,-199.1125630880224Q0,0,0.4979163064840103,-238.99948133699314Z"/><path fill="rgb(86, 173, 174)" d="M4.865733515093661,-238.95046481930117A239,239,0,0,1,8.236758025008553,-238.8580243936499Q0,0,90.14980570704049,-195.18712183692563L100.03852503585162,-212.6435832764565L92.89485479805771,-193.89570895728397Q0,0,4.865733515093661,-238.95046481930117Z"/><path fill="rgb(86, 173, 174)" d="M9.2319254140353,-238.82163125049976A239,239,0,0,1,12.600697489003096,-238.6675981837305Q0,0,101.68107557331555,-189.43589646699405L112.59780816976311,-206.26859575651653L104.34382895887477,-187.98235384791064Q0,0,9.2319254140353,-238.82163125049976Z"/><path fill="rgb(86, 173, 174)" d="M13.595033556420196,-238.6130236650963A239,239,0,0,1,16.960427919479937,-238.39744940914977Q0,0,112.84709254654663,-183.00419039954014L124.75262395365367,-199.1526620878523L115.41798523756746,-181.3937393729471Q0,0,13.595033556420196,-238.6130236650963Z"/><path fill="rgb(86, 173, 174)" d="M17.953600525432496,-238.32471174465562A239,239,0,0,1,21.31449302788637,-238.04766830818608Q0,0,123.60774670480127,-175.9151072380132L136.4593105595533,-191.3213437168247L126.07754368889029,-174.15353277317104Q0,0,17.953600525432496,-238.32471174465562Z"/><path fill="rgb(86, 173, 174)" d="M22.3061704211526,-237.95679179452412A239,239,0,0,1,25.6614384180672,-237.61837171884613Q0,0,133.92438424706307,-168.1941119779316L147.6758159032698,-182.80277185344744L136.28421366199237,-166.28774190099648Q0,0,22.3061704211526,-237.95679179452412Z"/><path fill="rgb(86, 173, 174)" d="M26.65128934687388,-237.50938671166074A239,239,0,0,1,29.999812072079585,-237.10970303983746Q0,0,157.29061055779115,146.57647775259602L170.78772395367898,161.42042419322885L155.20680919460983,148.78120304537123Q0,0,26.65128934687388,-237.50938671166074Z"/><path fill="rgb(86, 173, 174)" d="M30.987505894750697,-236.98264594358548A239,239,0,0,1,34.32816483521307,-236.5218321826686Q0,0,-62.4870525817321,205.71914898630084L-69.88446047164659,224.36836270870913L-65.383458674108,204.81699961627018Q0,0,30.987505894750697,-236.98264594358548Z"/><path fill="rgb(86, 173, 174)" d="M35.3133716306146,-236.37674543845912A239,239,0,0,1,38.64505090005312,-235.85495551489333Q0,0,-161.90228574388644,141.46607321511735L-178.0494443646825,153.37338544032934L-163.88220663217336,139.16760524407118Q0,0,35.3133716306146,-236.37674543845912Z"/><path fill="rgb(86, 173, 174)" d="M39.62744157779723,-235.69188758631103A239,239,0,0,1,42.949028289427154,-235.10929579451764Q0,0,-211.68230437255664,-37.62448691376787L-231.07779029507134,-42.755757885307446L-211.130363643801,-40.60750605043799Q0,0,39.62744157779723,-235.69188758631103Z"/><path fill="rgb(86, 173, 174)" d="M43.92827469979882,-234.9283011514343A239,239,0,0,1,47.238659338070356,-234.28510209559153Q0,0,-120.92769201741856,-177.76808854049244L-130.80267014191625,-195.2323269434267L-118.40740754254448,-179.45664055435168Q0,0,43.92827469979882,-234.9283011514343Z"/><path fill="rgb(86, 173, 174)" d="M48.21443438163981,-234.0862411959715A239,239,0,0,1,51.51251117285188,-233.38264972501022Q0,0,-110.06084382889318,-184.69328806340525L-118.87184577995919,-202.71774535265925L-107.44392892349518,-186.22782320986013Q0,0,48.21443438163981,-234.0862411959715Z"/><path fill="rgb(86, 173, 174)" d="M52.48448890973622,-233.1659889947155A239,239,0,0,1,55.769156191399944,-232.40224013055305Q0,0,-87.18154024625305,-196.53086027464227L-93.77357437838462,-215.47973628232788L-84.39987881494879,-197.74139793179867Q0,0,52.48448890973622,-233.1659889947155Z"/><path fill="rgb(86, 173, 174)" d="M56.7370119501374,-232.1678519411548A239,239,0,0,1,60.007172538966174,-231.34420080019024Q0,0,-75.25127056641477,-201.40071071905442L-80.69628390121632,-220.71046591526712L-72.40208483269322,-202.44243159940433Q0,0,56.7370119501374,-232.1678519411548Z"/><path fill="rgb(86, 173, 174)" d="M60.97058302496672,-231.09216344479455A239,239,0,0,1,64.22514458337068,-230.20888515269158Q0,0,-63.05068761417411,-205.5471011505145L-67.32912088890191,-225.14837214674156L-60.14421225864021,-206.416263244415Q0,0,60.97058302496672,-231.09216344479455Z"/><path fill="rgb(86, 173, 174)" d="M65.18378798690668,-229.93928281978702A239,239,0,0,1,68.42166338786797,-228.99667241957314Q0,0,-50.62361761968254,-208.95513714454634L-53.72010209317729,-228.77751338603758L-47.67029311541532,-209.64861829807128Q0,0,65.18378798690668,-229.93928281978702Z"/><path fill="rgb(86, 173, 174)" d="M69.37521949156887,-228.70959516490916A239,239,0,0,1,72.59532718177648,-227.7079675184222Q0,0,-25.269228940453402,-213.50987346901536L-25.972732456607524,-233.56030734852504L-22.254162605010496,-213.84515951208658Q0,0,69.37521949156887,-228.70959516490916Z"/><path fill="rgb(86, 173, 174)" d="M73.54347746759161,-227.4035112349276A239,239,0,0,1,76.7447418287149,-226.34320091764164Q0,0,-12.432986827872798,-214.6402125384196L-11.934054116047966,-234.69677959519436L-9.403249595431177,-214.79427109922187Q0,0,73.54347746759161,-227.4035112349276Z"/><path fill="rgb(231, 245, 163)" d="M159.80756826056424,-177.71477464365506A239,239,0,0,1,162.29915437984346,-175.44225399711365Q0,0,153.07910225448293,-150.9694951073281L168.47902320364963,-163.8286261321387L155.1939914710645,-148.7945731916294Q0,0,159.80756826056424,-177.71477464365506Z"/><path fill="rgb(94, 79, 162)" d="M179.91517173478456,-157.32619292299353A239,239,0,0,1,182.11708034380138,-154.77199051200895Q0,0,214.86111967923352,7.726528986944234L234.78277449650463,10.101920595780504L214.73071241501373,10.757376340942432Q0,0,179.91517173478456,-157.32619292299353Z"/><path fill="rgb(94, 79, 162)" d="M182.76038089647489,-154.01182803465264A239,239,0,0,1,184.91524172722296,-151.41781063323657Q0,0,214.01233627736065,20.58445824173924L233.7559064561706,24.149041323704953L213.70059254678029,23.602049596486104Q0,0,182.76038089647489,-154.01182803465264Z"/><path fill="rgb(94, 79, 162)" d="M185.54454228128046,-150.64601829995416A239,239,0,0,1,187.65163554174273,-148.01305239237843Q0,0,205.77513436334252,62.3024403835703L224.43097810180032,69.683111786639L204.87558423480428,65.19965478779481Q0,0,185.54454228128046,-150.64601829995416Z"/><path fill="rgb(94, 79, 162)" d="M188.26672589079465,-147.22988800634332A239,239,0,0,1,190.3253477448409,-144.55885308691884Q0,0,201.67316003815907,74.518028155763L219.85333849663385,83.00306953290666L200.60166050329312,77.35614909832012Q0,0,188.26672589079465,-147.22988800634332Z"/><path fill="rgb(94, 79, 162)" d="M190.9260224291579,-143.76457824993153A239,239,0,0,1,192.93548523164856,-141.05636652922945Q0,0,180.97121180447203,116.07937154387477L196.9056994876282,128.26981526956317L179.3153568081193,118.62125784519765Q0,0,190.9260224291579,-143.76457824993153Z"/><path fill="rgb(94, 79, 162)" d="M193.5215436067916,-140.25124655433424A239,239,0,0,1,195.48117613327292,-137.50676266115903Q0,0,173.6921420506527,126.71242950025024L188.86771045135333,139.83557468993277L171.88698286700864,129.1505521508781Q0,0,193.5215436067916,-140.25124655433424Z"/><path fill="rgb(94, 79, 162)" d="M196.05242243711484,-136.6910664840211A239,239,0,0,1,197.96157010802935,-133.9112271632359Q0,0,165.7891454055677,136.890318378224L180.15128172257923,150.89902482690832L163.84116642330062,139.21591929464213Q0,0,196.05242243711484,-136.6910664840211Z"/><path fill="rgb(94, 79, 162)" d="M198.51781352614566,-133.08522725230802A239,239,0,0,1,200.3758386254825,-130.27096105861276Q0,0,148.22706545386856,155.73611356051802L160.8106723766266,171.36197842513744L146.01492702080196,157.8120435426583Q0,0,198.51781352614566,-133.08522725230802Z"/><path fill="rgb(94, 79, 162)" d="M200.91689335488934,-129.43493332412243A239,239,0,0,1,202.72317524320164,-126.58718031188688Q0,0,138.6310676375884,164.3363230867187L150.25596598045735,180.68797604511386L136.2985384506834,166.27600072231584Q0,0,200.91689335488934,-129.43493332412243Z"/><path fill="rgb(94, 79, 162)" d="M203.2488605544202,-125.74140401367346A239,239,0,0,1,205.00279587613835,-122.8611154229293Q0,0,128.5370872986519,172.34621315473902L139.16151877251914,189.3649167425841L126.09254613467526,174.1426708457028Q0,0,203.2488605544202,-125.74140401367346Z"/><path fill="rgb(94, 79, 162)" d="M205.51293617356396,-122.00587307716228A239,239,0,0,1,207.2139390585357,-119.09401101585865Q0,0,117.98138345084645,179.73701109961837L127.56718358596284,197.36163171180272L115.4336114495262,181.3837957142804Q0,0,205.51293617356396,-122.00587307716228Z"/><path fill="rgb(94, 79, 162)" d="M207.7083639390924,-118.22958830066834A239,239,0,0,1,209.35586619828194,-115.28712542329724Q0,0,107.00187368450817,186.48216812340144L115.51460892269439,204.64939561463888L104.36002280543023,187.97336417708252Q0,0,207.7083639390924,-118.22958830066834Z"/><path fill="rgb(94, 79, 162)" d="M209.83441050834273,-114.41381108334915A239,239,0,0,1,211.42786182362397,-111.44173026604788Q0,0,95.63799796114172,192.55745466219855L103.04708934602917,211.20202976607845L92.91155810860865,193.88770556647125Q0,0,209.83441050834273,-114.41381108334915Z"/><path fill="rgb(94, 79, 162)" d="M211.89036571417705,-110.55981601609284A239,239,0,0,1,213.42923382215739,-107.55911002833219Q0,0,83.93057693946601,197.94104742222714L90.20940996045967,216.9959961717859L81.12934187341033,199.10557472654378Q0,0,211.89036571417705,-110.55981601609284Z"/><path fill="rgb(94, 79, 162)" d="M213.8755428022011,-106.66889045576433A239,239,0,0,1,215.35931367201425,-103.64056162873192Q0,0,39.47552507986252,211.34493823999935L41.5168525059275,231.3035904563547L36.48959105378962,211.8808857465137Q0,0,213.8755428022011,-106.66889045576433Z"/><path fill="rgb(94, 79, 162)" d="M215.78927866016176,-102.74233409518719A239,239,0,0,1,217.21745666517046,-99.68739398697706Q0,0,26.743463448151566,213.33023030690558L27.5854502353253,233.3753263207454L23.730785061568238,213.68633517462376Q0,0,215.78927866016176,-102.74233409518719Z"/><path fill="rgb(94, 79, 162)" d="M217.63093403944782,-98.78145852900488A239,239,0,0,1,219.00304212279892,-95.70092758672494Q0,0,13.915335490043326,214.54920982888646L13.554957101968524,234.60874480283934L10.88673471242921,214.72419287844858Q0,0,217.63093403944782,-98.78145852900488Z"/><path fill="rgb(94, 79, 162)" d="M219.3998937686193,-94.78758681556656A239,239,0,0,1,220.71547360259572,-91.68249403447675Q0,0,1.0372216666523046,214.99749805803376L-0.524227366217923,234.999415287929L-1.9964223370185719,214.99073072542512Q0,0,219.3998937686193,-94.78758681556656Z"/><path fill="rgb(94, 79, 162)" d="M221.09556695889418,-90.7620530349834A239,239,0,0,1,222.35417909801123,-87.63343561477862Q0,0,-11.844618004565726,214.6734846792354L-14.601528735105466,234.54593443203802L-14.872407953333665,214.48499127367774Q0,0,221.09556695889418,-90.7620530349834Z"/><path fill="rgb(94, 79, 162)" d="M222.71738720152416,-86.70620184350348A239,239,0,0,1,223.918611229318,-83.55510484185594Q0,0,-123.67476036057592,175.8680006418283L-136.5321929685781,191.26933963181594L-126.1438860158429,174.10548532663188Q0,0,222.71738720152416,-86.70620184350348Z"/><path fill="rgb(94, 79, 162)" d="M224.26481275699302,-82.62138802435393A239,239,0,0,1,225.4082474264534,-79.44886400783057Q0,0,-170.08638579914953,131.51281825655957L-186.9178810639962,142.43140713531469L-171.92505498758584,129.0998662567688Q0,0,224.26481275699302,-82.62138802435393Z"/><path fill="rgb(94, 79, 162)" d="M225.73732673597507,-78.50897603520016A239,239,0,0,1,226.82259010357438,-75.31608472767206Q0,0,-179.8428007179721,117.82006208585946L-197.4760153525064,127.39004419693347L-181.48729861270903,115.27081348833012Q0,0,225.73732673597507,-78.50897603520016Z"/><path fill="rgb(94, 79, 162)" d="M227.1344372719924,-74.37033955237365A239,239,0,0,1,228.16116682526703,-71.15814748103452Q0,0,-196.00332105375057,88.36118002777225L-214.9122345318204,95.06698400885466L-197.23055553700317,85.58684456483428Q0,0,227.1344372719924,-74.37033955237365Z"/><path fill="rgb(94, 79, 162)" d="M228.455677685714,-70.20686101202041A239,239,0,0,1,229.42353046435508,-66.97644115113262Q0,0,-200.94478834389125,76.46039522150508L-220.22146846073917,82.02136812438363L-202.0036149425811,73.61752203198249Q0,0,228.455677685714,-70.20686101202041Z"/><path fill="rgb(94, 79, 162)" d="M229.70060664084158,-66.01993114832337A239,239,0,0,1,230.6092593512545,-62.772362560810414Q0,0,-205.16443335913078,64.2849537950116L-224.73963553663594,68.6811198136726L-206.05104861744059,61.38375488395229Q0,0,229.70060664084158,-66.01993114832337Z"/><path fill="rgb(94, 79, 162)" d="M230.8688082915298,-61.8109485289529A239,239,0,0,1,231.7179574148246,-58.54731600595814Q0,0,-208.6470985341038,51.87859166650514L-228.45050586042245,55.09415914701923L-209.3583176038571,48.92948855324872Q0,0,230.8688082915298,-61.8109485289529Z"/><path fill="rgb(94, 79, 162)" d="M231.95989242129198,-57.581319087900845A239,239,0,0,1,232.74925431466843,-54.30271278643269Q0,0,-211.3802736399059,39.28587425422144L-231.3407494578255,41.30929242061173L-211.9135417209951,36.299460536818756Q0,0,231.95989242129198,-57.581319087900845Z"/><path fill="rgb(94, 79, 162)" d="M232.97349457334496,-53.33245565585377A239,239,0,0,1,233.70280556483806,-50.03997073463866Q0,0,-213.35414072261636,26.552036391094646L-233.39998416255105,27.376036837367753L-213.70754224020826,23.53903969259608Q0,0,232.97349457334496,-53.33245565585377Z"/><path fill="rgb(94, 79, 162)" d="M233.90927617234914,-49.06577748826268A239,239,0,0,1,234.5782926489041,-45.76051374192723Q0,0,-214.56160937078565,13.722819834800273L-234.62081291050322,13.344442634094943L-214.73387485633867,10.694063268107158Q0,0,233.90927617234914,-49.06577748826268Z"/><path fill="rgb(94, 79, 162)" d="M234.7669246375034,-44.78270979126655A239,239,0,0,1,235.37542312635006,-41.465771282971154Q0,0,-214.99834218520238,0.8443089568524241L-234.998850311091,-0.735086706081966L-214.98885283657847,-2.1893277534446693Q0,0,234.7669246375034,-44.78270979126655Z"/><path fill="rgb(94, 79, 162)" d="M235.5461534869571,-40.484683245628155A239,239,0,0,1,236.09393073025697,-37.15717793827486Q0,0,-214.66277035944853,-12.037234799016653L-234.53273840017533,-14.811975510205134L-214.47156026373833,-15.06485439815687Q0,0,235.5461534869571,-40.484683245628155Z"/><path fill="rgb(94, 79, 162)" d="M236.24670243350408,-36.173133528841255A239,239,0,0,1,236.73357545624492,-32.83617291497889Q0,0,-209.04811646937458,-50.23828222189534L-228.1013647661281,-56.522273413493956L-208.318461650427,-53.18287821846025Q0,0,236.24670243350408,-36.173133528841255Z"/><path fill="rgb(94, 79, 162)" d="M236.86833747152681,-31.849500835568655A239,239,0,0,1,237.2941436426421,-28.504199566118974Q0,0,-205.6629979835318,-62.67161447119259L-224.30556667529615,-70.08575289225537L-204.75825009833449,-65.56720991980596Q0,0,236.86833747152681,-31.849500835568655Z"/><path fill="rgb(94, 79, 162)" d="M237.41085095516183,-27.51522939657138A239,239,0,0,1,237.77544804185467,-24.16270490850026Q0,0,-201.53910874234407,-74.87982136291201L-219.70403106947344,-83.39747437317179L-200.46251777404953,-77.71601487266874Q0,0,237.41085095516183,-27.51522939657138Z"/><path fill="rgb(94, 79, 162)" d="M237.87406166765987,-23.17176699628975A239,239,0,0,1,238.17732788291343,-19.81313913934768Q0,0,-191.136872939063,-98.44641081866054L-208.1526997436625,-109.07544906817799L-189.7288010014883,-101.13348639564272Q0,0,237.87406166765987,-23.17176699628975Z"/><path fill="rgb(94, 79, 162)" d="M238.25781488191834,-18.8205644892373A239,239,0,0,1,238.49964892517627,-15.456955151894Q0,0,-177.9907400795485,-120.59973650856212L-193.6131978399235,-133.18757307721563L-176.2714009827506,-123.09911939400037Q0,0,238.25781488191834,-18.8205644892373Z"/><path fill="rgb(94, 79, 162)" d="M238.56198241216467,-14.463075315369267A239,239,0,0,1,238.74230350316904,-11.095608050067272Q0,0,-153.54967716887447,-150.4908523510131L-166.66871367129764,-165.6699727867274L-151.41101772192647,-152.6424046993838Q0,0,238.56198241216467,-14.463075315369267Z"/><path fill="rgb(94, 79, 162)" d="M238.78646265677477,-10.100755014587467A239,239,0,0,1,238.90521056254906,-6.730554662439877Q0,0,-98.79864142727843,-190.9550430130717L-106.51401683206711,-209.47497277311703L-96.09449642209317,-192.33004902350626Q0,0,238.78646265677477,-10.100755014587467Z"/><path fill="rgb(94, 79, 162)" d="M238.93118063221107,-5.735060740543661A239,239,0,0,1,238.98831568717998,-2.3632530556014704Q0,0,-38.01470038677727,-211.61257655088357L-39.91811304616922,-231.58485324138377L-35.02513549566483,-212.12788568104457Q0,0,238.93118063221107,-5.735060740543661Z"/><path fill="rgb(158, 1, 66)" d="M236.1039759814662,37.093294889281935A239,239,0,0,1,235.55709910604983,40.420948290986566Q0,0,209.13793512334735,49.86305337965732L228.2024296962856,56.11284238667504L208.41356571320773,52.80895403912519Q0,0,236.1039759814662,37.093294889281935Z"/><path fill="rgb(158, 1, 66)" d="M235.38663421197145,41.40208248819783A239,239,0,0,1,234.7790332340938,44.719185521029885Q0,0,-177.6595113527144,121.08715054007483L-195.11488213543782,130.97779494736582L-179.35032407992603,118.56838217849439Q0,0,235.38663421197145,41.40208248819783Z"/><path fill="rgb(248, 142, 83)" d="M218.82033738869026,96.11794809035284A239,239,0,0,1,217.4423634770145,99.19585961888686Q0,0,187.60020721263206,105.02933996639949L204.2363752309506,116.24329241948689L186.0996044703517,107.66585910110342Q0,0,218.82033738869026,96.11794809035284Z"/><path fill="rgb(248, 142, 83)" d="M217.02716107342033,100.10100577122921A239,239,0,0,1,215.59316609158563,103.15321970062773Q0,0,-213.5560993152753,-24.875539094545637L-233.22415151806976,-28.83565759049798L-213.18385532635241,-27.88626594208765Q0,0,217.02716107342033,100.10100577122921Z"/><path fill="rgb(248, 142, 83)" d="M215.16149078739946,104.0506265341243A239,239,0,0,1,213.67195373531416,107.07612332790985Q0,0,-196.6912623428101,-86.81904928062656L-214.31328731937134,-96.40962025837767L-195.44669555937926,-89.585652840839Q0,0,215.16149078739946,104.0506265341243Z"/><path fill="rgb(190, 229, 160)" d="M79.9501303101861,225.23094073280487A239,239,0,0,1,76.76424047363616,226.33658870033753Q0,0,52.06578500797668,208.60046507978632L55.299120334330205,228.4009791797077L49.11732124234506,209.31433002538617Q0,0,79.9501303101861,225.23094073280487Z"/><path fill="rgb(190, 229, 160)" d="M75.82050772754691,226.65447405232703A239,239,0,0,1,72.61494341349939,227.70171275828008Q0,0,-50.05068794883099,209.09310996742275L-56.31758057089557,228.1519890744779L-52.99593746246637,208.36609756021818Q0,0,75.82050772754691,226.65447405232703Z"/><path fill="rgb(190, 229, 160)" d="M71.66555868511195,228.00229757252617A239,239,0,0,1,68.44139065394755,228.99077720588167Q0,0,-153.13660963895092,150.91116190755264L-168.54142872413126,163.76442471925515L-155.2506700695077,148.7354343892835Q0,0,71.66555868511195,228.00229757252617Z"/><path fill="rgb(137, 207, 165)" d="M-27.43932334534267,237.41963594940864A239,239,0,0,1,-30.786501272409442,237.00884232324313Q0,0,-37.434534122423834,211.71597874283623L-42.548399906538585,231.1160610286383L-40.41804730194609,211.1667148304809Q0,0,-27.43932334534267,237.41963594940864Z"/><path fill="rgb(254, 227, 149)" d="M-83.0374428106077,224.11109542250483A239,239,0,0,1,-86.19130722928202,222.9171562668686Q0,0,-90.22416431598393,195.15276112185126L-100.11953373680264,212.60545375019248L-92.96872118701604,193.8603024882889Q0,0,-83.0374428106077,224.11109542250483Z"/><path fill="rgb(254, 227, 149)" d="M-87.11937783881916,222.5560918172699A239,239,0,0,1,-90.25089535052102,221.30471275693455Q0,0,-184.89589268825083,-109.72013883975372L-201.24439804959275,-121.34946334309467L-183.32937359130574,-112.31803407565256Q0,0,-87.11937783881916,222.5560918172699Z"/><path fill="rgb(232, 94, 73)" d="M-113.11174361276369,210.53914946365774A239,239,0,0,1,-116.07111876092375,208.92222330232735Q0,0,-112.91680788253477,182.961183035142L-124.82849089882723,199.10511761358975L-115.48708681454238,181.34975263035335Q0,0,-113.11174361276369,210.53914946365774Z"/><path fill="rgb(202, 50, 74)" d="M-148.94530634655206,186.9125349390237A239,239,0,0,1,-151.567750996533,184.79236147052444Q0,0,-143.8208450402991,159.8141562312121L-158.42798828754843,173.5671988803196L-146.06145100722082,157.7689846885795Q0,0,-148.94530634655206,186.9125349390237Z"/><path fill="rgb(67, 127, 180)" d="M-207.40542653221092,118.76021659205435A239,239,0,0,1,-209.0604459303429,115.8219752352988Q0,0,-194.35571647845472,91.92853459153216L-213.1389181132704,98.97879361512048L-195.63344912035598,89.17709114606222Q0,0,-207.40542653221092,118.76021659205435Z"/><path fill="rgb(67, 127, 180)" d="M-209.54122133924704,114.94988716678535A239,239,0,0,1,-211.1422656895433,111.98188978351051Q0,0,-144.2583503939349,-159.41934745074295L-156.44448001808752,-175.35713464775313L-141.99463786778546,-161.438913576611Q0,0,-209.54122133924704,114.94988716678535Z"/><path fill="rgb(253, 190, 112)" d="M-189.4727741278947,-145.67452716339872A239,239,0,0,1,-187.39849536677235,-148.33342150125773Q0,0,-162.28943165274933,-141.02177269424607L-176.29424958744,-155.38770080801575L-160.28350765407515,-143.29758258291045Q0,0,-189.4727741278947,-145.67452716339872Z"/><path fill="rgb(251, 248, 176)" d="M-149.4570682600885,-186.50357837612458A239,239,0,0,1,-146.81068903846258,-188.59380049209423Q0,0,-124.15634447837353,-175.52835134464019L-134.3488457885841,-192.80920007944448L-121.6673405250788,-177.26268149149305Q0,0,-149.4570682600885,-186.50357837612458Z"/></g><g><g id="Soviet Union" transform="rotate(-80.57535314652999) translate(250,0)"><text x="8" dy="0.35em" style="font-family: Arial, sans-serif; font-size: 10px; fill: black; font-weight: bold;">Soviet Union</text></g><g id="Aleksandr Pavlovich Aleksandrov" transform="rotate(-68.23979065482212) translate(250,0)"><text x="8" dy="0.35em" style="font-family: Arial, sans-serif; font-size: 10px; fill: black; font-weight: bold;">Aleksandr Pavlovich Aleksandrov</text></g><g id="Aleksei Gubarev" transform="rotate(-64.8052835247248) translate(250,0)"><text x="8" dy="0.35em" style="font-family: Arial, sans-serif; font-size: 10px; fill: black; font-weight: bold;">Aleksei Gubarev</text></g><g id="Anatolii Levchenko" transform="rotate(-61.37077639462748) translate(250,0)"><text x="8" dy="0.35em" style="font-family: Arial, sans-serif; font-size: 10px; fill: black; font-weight: bold;">Anatolii Levchenko</text></g><g id="Anatoly Artsebarsky" transform="rotate(-57.936269264530154) translate(250,0)"><text x="8" dy="0.35em" style="font-family: Arial, sans-serif; font-size: 10px; fill: black; font-weight: bold;">Anatoly Artsebarsky</text></g><g id="Anatoly Berezovoy" transform="rotate(-54.50176213443284) translate(250,0)"><text x="8" dy="0.35em" style="font-family: Arial, sans-serif; font-size: 10px; fill: black; font-weight: bold;">Anatoly Berezovoy</text></g><g id="Anatoly Filipchenko" transform="rotate(-51.06725500433552) translate(250,0)"><text x="8" dy="0.35em" style="font-family: Arial, sans-serif; font-size: 10px; fill: black; font-weight: bold;">Anatoly Filipchenko</text></g><g id="Kingdom of Denmark" transform="rotate(-47.6327478742382) translate(250,0)"><text x="8" dy="0.35em" style="font-family: Arial, sans-serif; font-size: 10px; fill: black; font-weight: bold;">Kingdom of Denmark</text></g><g id="Andreas Mogensen" transform="rotate(-44.19824074414088) translate(250,0)"><text x="8" dy="0.35em" style="font-family: Arial, sans-serif; font-size: 10px; fill: black; font-weight: bold;">Andreas Mogensen</text></g><g id="United States of America" transform="rotate(-20.867256923384716) translate(250,0)"><text x="8" dy="0.35em" style="font-family: Arial, sans-serif; font-size: 10px; fill: black; font-weight: bold;">United States of America</text></g><g id="Andrew J. Feustel" transform="rotate(2.463726897371444) translate(250,0)"><text x="8" dy="0.35em" style="font-family: Arial, sans-serif; font-size: 10px; fill: black; font-weight: bold;">Andrew J. Feustel</text></g><g id="Andrew M. Allen" transform="rotate(5.89823402746876) translate(250,0)"><text x="8" dy="0.35em" style="font-family: Arial, sans-serif; font-size: 10px; fill: black; font-weight: bold;">Andrew M. Allen</text></g><g id="Australia" transform="rotate(9.856332649425525) translate(250,0)"><text x="8" dy="0.35em" style="font-family: Arial, sans-serif; font-size: 10px; fill: black; font-weight: bold;">Australia</text></g><g id="Andy Thomas" transform="rotate(13.81443127138229) translate(250,0)"><text x="8" dy="0.35em" style="font-family: Arial, sans-serif; font-size: 10px; fill: black; font-weight: bold;">Andy Thomas</text></g><g id="Brewster H. Shaw" transform="rotate(17.248938401479606) translate(250,0)"><text x="8" dy="0.35em" style="font-family: Arial, sans-serif; font-size: 10px; fill: black; font-weight: bold;">Brewster H. Shaw</text></g><g id="C. Gordon Fullerton" transform="rotate(20.683445531576922) translate(250,0)"><text x="8" dy="0.35em" style="font-family: Arial, sans-serif; font-size: 10px; fill: black; font-weight: bold;">C. Gordon Fullerton</text></g><g id="Canada" transform="rotate(25.16513564539312) translate(250,0)"><text x="8" dy="0.35em" style="font-family: Arial, sans-serif; font-size: 10px; fill: black; font-weight: bold;">Canada</text></g><g id="Dafydd Williams" transform="rotate(29.64682575920932) translate(250,0)"><text x="8" dy="0.35em" style="font-family: Arial, sans-serif; font-size: 10px; fill: black; font-weight: bold;">Dafydd Williams</text></g><g id="David Wolf" transform="rotate(33.08133288930662) translate(250,0)"><text x="8" dy="0.35em" style="font-family: Arial, sans-serif; font-size: 10px; fill: black; font-weight: bold;">David Wolf</text></g><g id="Douglas H. Wheelock" transform="rotate(36.51584001940394) translate(250,0)"><text x="8" dy="0.35em" style="font-family: Arial, sans-serif; font-size: 10px; fill: black; font-weight: bold;">Douglas H. Wheelock</text></g><g id="Eric Boe" transform="rotate(39.950347149501226) translate(250,0)"><text x="8" dy="0.35em" style="font-family: Arial, sans-serif; font-size: 10px; fill: black; font-weight: bold;">Eric Boe</text></g><g id="Gennadi Sarafanov" transform="rotate(43.38485427959856) translate(250,0)"><text x="8" dy="0.35em" style="font-family: Arial, sans-serif; font-size: 10px; fill: black; font-weight: bold;">Gennadi Sarafanov</text></g><g id="George Nelson" transform="rotate(46.81936140969586) translate(250,0)"><text x="8" dy="0.35em" style="font-family: Arial, sans-serif; font-size: 10px; fill: black; font-weight: bold;">George Nelson</text></g><g id="Gregory Chamitoff" transform="rotate(50.25386853979316) translate(250,0)"><text x="8" dy="0.35em" style="font-family: Arial, sans-serif; font-size: 10px; fill: black; font-weight: bold;">Gregory Chamitoff</text></g><g id="Gregory H. Johnson" transform="rotate(53.68837566989049) translate(250,0)"><text x="8" dy="0.35em" style="font-family: Arial, sans-serif; font-size: 10px; fill: black; font-weight: bold;">Gregory H. Johnson</text></g><g id="Guion Bluford" transform="rotate(57.122882799987764) translate(250,0)"><text x="8" dy="0.35em" style="font-family: Arial, sans-serif; font-size: 10px; fill: black; font-weight: bold;">Guion Bluford</text></g><g id="Henry Hartsfield" transform="rotate(60.557389930085094) translate(250,0)"><text x="8" dy="0.35em" style="font-family: Arial, sans-serif; font-size: 10px; fill: black; font-weight: bold;">Henry Hartsfield</text></g><g id="Jake Garn" transform="rotate(63.991897060182396) translate(250,0)"><text x="8" dy="0.35em" style="font-family: Arial, sans-serif; font-size: 10px; fill: black; font-weight: bold;">Jake Garn</text></g><g id="James S. Voss" transform="rotate(67.4264041902797) translate(250,0)"><text x="8" dy="0.35em" style="font-family: Arial, sans-serif; font-size: 10px; fill: black; font-weight: bold;">James S. Voss</text></g><g id="People's Republic of China" transform="rotate(71.9080943040959) translate(250,0)"><text x="8" dy="0.35em" style="font-family: Arial, sans-serif; font-size: 10px; fill: black; font-weight: bold;">People's Republic of China</text></g><g id="Jing Haipeng" transform="rotate(76.38978441791207) translate(250,0)"><text x="8" dy="0.35em" style="font-family: Arial, sans-serif; font-size: 10px; fill: black; font-weight: bold;">Jing Haipeng</text></g><g id="John Danny Olivas" transform="rotate(79.8242915480094) translate(250,0)"><text x="8" dy="0.35em" style="font-family: Arial, sans-serif; font-size: 10px; fill: black; font-weight: bold;">John Danny Olivas</text></g><g id="John L. Finley" transform="rotate(83.2587986781067) translate(250,0)"><text x="8" dy="0.35em" style="font-family: Arial, sans-serif; font-size: 10px; fill: black; font-weight: bold;">John L. Finley</text></g><g id="John M. Lounge" transform="rotate(86.693305808204) translate(250,0)"><text x="8" dy="0.35em" style="font-family: Arial, sans-serif; font-size: 10px; fill: black; font-weight: bold;">John M. Lounge</text></g><g id="Kathryn D. Sullivan" transform="rotate(90.1278129383013) translate(250,0)"><text x="8" dy="0.35em" transform="rotate(180) translate(-16)" text-anchor="end" style="font-family: Arial, sans-serif; font-size: 10px; fill: black; font-weight: bold;">Kathryn D. Sullivan</text></g><g id="Kenneth Cockrell" transform="rotate(93.56232006839863) translate(250,0)"><text x="8" dy="0.35em" transform="rotate(180) translate(-16)" text-anchor="end" style="font-family: Arial, sans-serif; font-size: 10px; fill: black; font-weight: bold;">Kenneth Cockrell</text></g><g id="South Korea" transform="rotate(96.99682719849591) translate(250,0)"><text x="8" dy="0.35em" transform="rotate(180) translate(-16)" text-anchor="end" style="font-family: Arial, sans-serif; font-size: 10px; fill: black; font-weight: bold;">South Korea</text></g><g id="Ko San" transform="rotate(100.43133432859321) translate(250,0)"><text x="8" dy="0.35em" transform="rotate(180) translate(-16)" text-anchor="end" style="font-family: Arial, sans-serif; font-size: 10px; fill: black; font-weight: bold;">Ko San</text></g><g id="Liu Wang" transform="rotate(103.86584145869051) translate(250,0)"><text x="8" dy="0.35em" transform="rotate(180) translate(-16)" text-anchor="end" style="font-family: Arial, sans-serif; font-size: 10px; fill: black; font-weight: bold;">Liu Wang</text></g><g id="Maksim Surayev" transform="rotate(107.30034858878784) translate(250,0)"><text x="8" dy="0.35em" transform="rotate(180) translate(-16)" text-anchor="end" style="font-family: Arial, sans-serif; font-size: 10px; fill: black; font-weight: bold;">Maksim Surayev</text></g><g id="Japan" transform="rotate(111.25844721074458) translate(250,0)"><text x="8" dy="0.35em" transform="rotate(180) translate(-16)" text-anchor="end" style="font-family: Arial, sans-serif; font-size: 10px; fill: black; font-weight: bold;">Japan</text></g><g id="Mamoru Mohri" transform="rotate(115.21654583270134) translate(250,0)"><text x="8" dy="0.35em" transform="rotate(180) translate(-16)" text-anchor="end" style="font-family: Arial, sans-serif; font-size: 10px; fill: black; font-weight: bold;">Mamoru Mohri</text></g><g id="Belgium" transform="rotate(118.65105296279864) translate(250,0)"><text x="8" dy="0.35em" transform="rotate(180) translate(-16)" text-anchor="end" style="font-family: Arial, sans-serif; font-size: 10px; fill: black; font-weight: bold;">Belgium</text></g><g id="Marianne Merchez" transform="rotate(122.08556009289595) translate(250,0)"><text x="8" dy="0.35em" transform="rotate(180) translate(-16)" text-anchor="end" style="font-family: Arial, sans-serif; font-size: 10px; fill: black; font-weight: bold;">Marianne Merchez</text></g><g id="Mark L. Polansky" transform="rotate(125.52006722299328) translate(250,0)"><text x="8" dy="0.35em" transform="rotate(180) translate(-16)" text-anchor="end" style="font-family: Arial, sans-serif; font-size: 10px; fill: black; font-weight: bold;">Mark L. Polansky</text></g><g id="Azerbaijan" transform="rotate(128.95457435309058) translate(250,0)"><text x="8" dy="0.35em" transform="rotate(180) translate(-16)" text-anchor="end" style="font-family: Arial, sans-serif; font-size: 10px; fill: black; font-weight: bold;">Azerbaijan</text></g><g id="Musa Manarov" transform="rotate(132.38908148318788) translate(250,0)"><text x="8" dy="0.35em" transform="rotate(180) translate(-16)" text-anchor="end" style="font-family: Arial, sans-serif; font-size: 10px; fill: black; font-weight: bold;">Musa Manarov</text></g><g id="Nie Haisheng" transform="rotate(135.82358861328515) translate(250,0)"><text x="8" dy="0.35em" transform="rotate(180) translate(-16)" text-anchor="end" style="font-family: Arial, sans-serif; font-size: 10px; fill: black; font-weight: bold;">Nie Haisheng</text></g><g id="Oleg Grigoryevich Makarov" transform="rotate(139.2580957433825) translate(250,0)"><text x="8" dy="0.35em" transform="rotate(180) translate(-16)" text-anchor="end" style="font-family: Arial, sans-serif; font-size: 10px; fill: black; font-weight: bold;">Oleg Grigoryevich Makarov</text></g><g id="Owen K. Garriott" transform="rotate(142.69260287347984) translate(250,0)"><text x="8" dy="0.35em" transform="rotate(180) translate(-16)" text-anchor="end" style="font-family: Arial, sans-serif; font-size: 10px; fill: black; font-weight: bold;">Owen K. Garriott</text></g><g id="Paul Scully-Power" transform="rotate(146.65070149543664) translate(250,0)"><text x="8" dy="0.35em" transform="rotate(180) translate(-16)" text-anchor="end" style="font-family: Arial, sans-serif; font-size: 10px; fill: black; font-weight: bold;">Paul Scully-Power</text></g><g id="United Kingdom" transform="rotate(151.13239160925283) translate(250,0)"><text x="8" dy="0.35em" transform="rotate(180) translate(-16)" text-anchor="end" style="font-family: Arial, sans-serif; font-size: 10px; fill: black; font-weight: bold;">United Kingdom</text></g><g id="Piers Sellers" transform="rotate(155.61408172306903) translate(250,0)"><text x="8" dy="0.35em" transform="rotate(180) translate(-16)" text-anchor="end" style="font-family: Arial, sans-serif; font-size: 10px; fill: black; font-weight: bold;">Piers Sellers</text></g><g id="Richard E. Lawyer" transform="rotate(159.57218034502583) translate(250,0)"><text x="8" dy="0.35em" transform="rotate(180) translate(-16)" text-anchor="end" style="font-family: Arial, sans-serif; font-size: 10px; fill: black; font-weight: bold;">Richard E. Lawyer</text></g><g id="Richard F. Gordon" transform="rotate(163.00668747512316) translate(250,0)"><text x="8" dy="0.35em" transform="rotate(180) translate(-16)" text-anchor="end" style="font-family: Arial, sans-serif; font-size: 10px; fill: black; font-weight: bold;">Richard F. Gordon</text></g><g id="Richard M. Linnehan" transform="rotate(166.44119460522052) translate(250,0)"><text x="8" dy="0.35em" transform="rotate(180) translate(-16)" text-anchor="end" style="font-family: Arial, sans-serif; font-size: 10px; fill: black; font-weight: bold;">Richard M. Linnehan</text></g><g id="Richard R. Arnold" transform="rotate(169.87570173531782) translate(250,0)"><text x="8" dy="0.35em" transform="rotate(180) translate(-16)" text-anchor="end" style="font-family: Arial, sans-serif; font-size: 10px; fill: black; font-weight: bold;">Richard R. Arnold</text></g><g id="Robert A. Parker" transform="rotate(173.31020886541518) translate(250,0)"><text x="8" dy="0.35em" transform="rotate(180) translate(-16)" text-anchor="end" style="font-family: Arial, sans-serif; font-size: 10px; fill: black; font-weight: bold;">Robert A. Parker</text></g><g id="Robert F. Overmyer" transform="rotate(176.74471599551248) translate(250,0)"><text x="8" dy="0.35em" transform="rotate(180) translate(-16)" text-anchor="end" style="font-family: Arial, sans-serif; font-size: 10px; fill: black; font-weight: bold;">Robert F. Overmyer</text></g><g id="Robert L. Behnken" transform="rotate(180.17922312560978) translate(250,0)"><text x="8" dy="0.35em" transform="rotate(180) translate(-16)" text-anchor="end" style="font-family: Arial, sans-serif; font-size: 10px; fill: black; font-weight: bold;">Robert L. Behnken</text></g><g id="Robert L. Gibson" transform="rotate(183.61373025570714) translate(250,0)"><text x="8" dy="0.35em" transform="rotate(180) translate(-16)" text-anchor="end" style="font-family: Arial, sans-serif; font-size: 10px; fill: black; font-weight: bold;">Robert L. Gibson</text></g><g id="Robert Thirsk" transform="rotate(187.04823738580444) translate(250,0)"><text x="8" dy="0.35em" transform="rotate(180) translate(-16)" text-anchor="end" style="font-family: Arial, sans-serif; font-size: 10px; fill: black; font-weight: bold;">Robert Thirsk</text></g><g id="Roman Romanenko" transform="rotate(190.4827445159018) translate(250,0)"><text x="8" dy="0.35em" transform="rotate(180) translate(-16)" text-anchor="end" style="font-family: Arial, sans-serif; font-size: 10px; fill: black; font-weight: bold;">Roman Romanenko</text></g><g id="Ronald J. Grabe" transform="rotate(193.91725164599916) translate(250,0)"><text x="8" dy="0.35em" transform="rotate(180) translate(-16)" text-anchor="end" style="font-family: Arial, sans-serif; font-size: 10px; fill: black; font-weight: bold;">Ronald J. Grabe</text></g><g id="Shane Kimbrough" transform="rotate(197.35175877609646) translate(250,0)"><text x="8" dy="0.35em" transform="rotate(180) translate(-16)" text-anchor="end" style="font-family: Arial, sans-serif; font-size: 10px; fill: black; font-weight: bold;">Shane Kimbrough</text></g><g id="Stephen Bowen" transform="rotate(200.78626590619382) translate(250,0)"><text x="8" dy="0.35em" transform="rotate(180) translate(-16)" text-anchor="end" style="font-family: Arial, sans-serif; font-size: 10px; fill: black; font-weight: bold;">Stephen Bowen</text></g><g id="Steve MacLean" transform="rotate(204.22077303629112) translate(250,0)"><text x="8" dy="0.35em" transform="rotate(180) translate(-16)" text-anchor="end" style="font-family: Arial, sans-serif; font-size: 10px; fill: black; font-weight: bold;">Steve MacLean</text></g><g id="Story Musgrave" transform="rotate(207.65528016638848) translate(250,0)"><text x="8" dy="0.35em" transform="rotate(180) translate(-16)" text-anchor="end" style="font-family: Arial, sans-serif; font-size: 10px; fill: black; font-weight: bold;">Story Musgrave</text></g><g id="Takao Doi" transform="rotate(211.08978729648578) translate(250,0)"><text x="8" dy="0.35em" transform="rotate(180) translate(-16)" text-anchor="end" style="font-family: Arial, sans-serif; font-size: 10px; fill: black; font-weight: bold;">Takao Doi</text></g><g id="Thomas Marshburn" transform="rotate(214.52429442658314) translate(250,0)"><text x="8" dy="0.35em" transform="rotate(180) translate(-16)" text-anchor="end" style="font-family: Arial, sans-serif; font-size: 10px; fill: black; font-weight: bold;">Thomas Marshburn</text></g><g id="France" transform="rotate(217.95880155668044) translate(250,0)"><text x="8" dy="0.35em" transform="rotate(180) translate(-16)" text-anchor="end" style="font-family: Arial, sans-serif; font-size: 10px; fill: black; font-weight: bold;">France</text></g><g id="Thomas Pesquet" transform="rotate(221.3933086867778) translate(250,0)"><text x="8" dy="0.35em" transform="rotate(180) translate(-16)" text-anchor="end" style="font-family: Arial, sans-serif; font-size: 10px; fill: black; font-weight: bold;">Thomas Pesquet</text></g><g id="Timothy Creamer" transform="rotate(224.82781581687516) translate(250,0)"><text x="8" dy="0.35em" transform="rotate(180) translate(-16)" text-anchor="end" style="font-family: Arial, sans-serif; font-size: 10px; fill: black; font-weight: bold;">Timothy Creamer</text></g><g id="Timothy Peake" transform="rotate(228.26232294697246) translate(250,0)"><text x="8" dy="0.35em" transform="rotate(180) translate(-16)" text-anchor="end" style="font-family: Arial, sans-serif; font-size: 10px; fill: black; font-weight: bold;">Timothy Peake</text></g><g id="Kazakhstan" transform="rotate(231.69683007706982) translate(250,0)"><text x="8" dy="0.35em" transform="rotate(180) translate(-16)" text-anchor="end" style="font-family: Arial, sans-serif; font-size: 10px; fill: black; font-weight: bold;">Kazakhstan</text></g><g id="Toktar Aubakirov" transform="rotate(235.65492869902658) translate(250,0)"><text x="8" dy="0.35em" transform="rotate(180) translate(-16)" text-anchor="end" style="font-family: Arial, sans-serif; font-size: 10px; fill: black; font-weight: bold;">Toktar Aubakirov</text></g><g id="Valery Ryumin" transform="rotate(239.61302732098335) translate(250,0)"><text x="8" dy="0.35em" transform="rotate(180) translate(-16)" text-anchor="end" style="font-family: Arial, sans-serif; font-size: 10px; fill: black; font-weight: bold;">Valery Ryumin</text></g><g id="Vance D. Brand" transform="rotate(243.04753445108065) translate(250,0)"><text x="8" dy="0.35em" transform="rotate(180) translate(-16)" text-anchor="end" style="font-family: Arial, sans-serif; font-size: 10px; fill: black; font-weight: bold;">Vance D. Brand</text></g><g id="Viktor Afanasyev" transform="rotate(246.482041581178) translate(250,0)"><text x="8" dy="0.35em" transform="rotate(180) translate(-16)" text-anchor="end" style="font-family: Arial, sans-serif; font-size: 10px; fill: black; font-weight: bold;">Viktor Afanasyev</text></g><g id="Vladimir Aksyonov" transform="rotate(249.9165487112753) translate(250,0)"><text x="8" dy="0.35em" transform="rotate(180) translate(-16)" text-anchor="end" style="font-family: Arial, sans-serif; font-size: 10px; fill: black; font-weight: bold;">Vladimir Aksyonov</text></g><g id="Vladimir Dzhanibekov" transform="rotate(253.35105584137273) translate(250,0)"><text x="8" dy="0.35em" transform="rotate(180) translate(-16)" text-anchor="end" style="font-family: Arial, sans-serif; font-size: 10px; fill: black; font-weight: bold;">Vladimir Dzhanibekov</text></g><g id="Vladimir Titov" transform="rotate(256.78556297147003) translate(250,0)"><text x="8" dy="0.35em" transform="rotate(180) translate(-16)" text-anchor="end" style="font-family: Arial, sans-serif; font-size: 10px; fill: black; font-weight: bold;">Vladimir Titov</text></g><g id="William R. Pogue" transform="rotate(260.2200701015674) translate(250,0)"><text x="8" dy="0.35em" transform="rotate(180) translate(-16)" text-anchor="end" style="font-family: Arial, sans-serif; font-size: 10px; fill: black; font-weight: bold;">William R. Pogue</text></g><g id="Yuri Baturin" transform="rotate(263.6545772316647) translate(250,0)"><text x="8" dy="0.35em" transform="rotate(180) translate(-16)" text-anchor="end" style="font-family: Arial, sans-serif; font-size: 10px; fill: black; font-weight: bold;">Yuri Baturin</text></g><g id="Yury Glazkov" transform="rotate(267.08908436176205) translate(250,0)"><text x="8" dy="0.35em" transform="rotate(180) translate(-16)" text-anchor="end" style="font-family: Arial, sans-serif; font-size: 10px; fill: black; font-weight: bold;">Yury Glazkov</text></g></g></g></svg>