<svg xmlns="http://www.w3.org/2000/svg" width="800" height="800"><rect width="800" height="800" x="0" y="0" fill="#FFFFFF" id="background"/><g transform="translate(400,377.5)" id="chord_diagram"><g><g><path fill="rgb(86, 173, 174)" d="M1.3624195640514304e-14,-222.5A222.5,222.5,0,0,1,60.201218820050784,-214.2009879822695L57.49554606409344,-204.57397728643718A212.5,212.5,0,0,0,1.3011872240940628e-14,-212.5Z"/></g><g><path fill="#cccccc" d="M70.21089880447195,-211.13190116386534A222.5,222.5,0,0,1,73.41632979122019,-210.03878813206572L70.1167194635249,-200.5988425980403A212.5,212.5,0,0,0,67.05535279078782,-201.64282695425342Z"/></g><g><path fill="#cccccc" d="M83.21558388351178,-206.35265105863365A222.5,222.5,0,0,1,86.34676511578203,-205.06215192970149L82.46601162743228,-195.84587543847894A212.5,212.5,0,0,0,79.4755576415562,-197.07837460656023Z"/></g><g><path fill="#cccccc" d="M95.89759619727943,-200.7732577899346A222.5,222.5,0,0,1,98.94238635658738,-199.29037654152745L94.49553753157223,-190.33350568572845A212.5,212.5,0,0,0,91.58759187380619,-191.74974058589262Z"/></g><g><path fill="#cccccc" d="M108.20776058180292,-194.4153557460707A222.5,222.5,0,0,1,111.15435333555398,-192.74584232754495L106.15865206204595,-184.08310784091373A212.5,212.5,0,0,0,103.34449044329492,-185.67758694849448Z"/></g><g><path fill="#cccccc" d="M120.09834373284347,-187.3035980237106A222.5,222.5,0,0,1,122.93531351400316,-185.45392606039312L117.41013088416032,-177.11891814756643A212.5,212.5,0,0,0,114.70066536282805,-178.88545878668992Z"/></g><g><path fill="#cccccc" d="M131.52323929427186,-179.46556083422163A222.5,222.5,0,0,1,134.23958560459732,-177.44290252558986L128.20634580214352,-169.4679406143274A212.5,212.5,0,0,0,125.61208247205741,-171.39969293156Z"/></g><g><path fill="rgb(231, 245, 163)" d="M142.4381466378678,-170.93163657547208A222.5,222.5,0,0,1,145.02333670291367,-168.74383488457684L138.505433929749,-161.15984230549472A212.5,212.5,0,0,0,136.03643218223328,-163.24931583050704Z"/></g><g><path fill="#cccccc" d="M152.80074264131594,-161.73491598372422A222.5,222.5,0,0,1,155.24475225181615,-159.39045422569137L148.26746001577948,-152.2268383054356A212.5,212.5,0,0,0,145.93329353384107,-154.46593099569168Z"/></g><g><path fill="rgb(94, 79, 162)" d="M162.57084579831917,-151.91105982257886A222.5,222.5,0,0,1,219.73249585423122,-34.98400013820979L209.85687806302982,-33.41168552525654A212.5,212.5,0,0,0,155.26429093097897,-145.08359645976634Z"/></g><g><path fill="#cccccc" d="M221.13493665651205,-24.608734017019348A222.5,222.5,0,0,1,221.4838810850063,-21.24006637284325L211.52954935084873,-20.285456648221082A212.5,212.5,0,0,0,211.1962878180171,-23.502723499400503Z"/></g><g><path fill="#cccccc" d="M222.23784833176944,-10.79762792771787A222.5,222.5,0,0,1,222.37645101896203,-7.4137731426836275L212.38200378215475,-7.080569855372004A212.5,212.5,0,0,0,212.24963042921803,-10.312341279281112Z"/></g><g><path fill="rgb(158, 1, 66)" d="M222.47902116289723,3.0553465268491116A222.5,222.5,0,0,1,222.28294064075115,9.825695909212165L212.29269611757132,9.384091598685774A212.5,212.5,0,0,0,212.47996403198047,2.918027581822185Z"/></g><g><path fill="#cccccc" d="M221.57464457183605,20.271331551344414A222.5,222.5,0,0,1,221.24043440059495,23.641492893555668L211.29704409045584,22.578953887103726A212.5,212.5,0,0,0,211.61623357984342,19.360260470385114Z"/></g><g><path fill="#cccccc" d="M219.88337723705828,34.022792578292545A222.5,222.5,0,0,1,219.34005684083124,37.36561875656443L209.48207675809724,35.68626510458401A212.5,212.5,0,0,0,210.00097826011182,32.493678305110855Z"/></g><g><path fill="#cccccc" d="M217.33950064258002,47.642328453109464A222.5,222.5,0,0,1,216.5891767745315,50.944857484644665L206.85483175095703,48.65520096848086A212.5,212.5,0,0,0,207.57143319796967,45.501100208025896Z"/></g><g><path fill="rgb(248, 142, 83)" d="M213.95287880253105,61.07712871533379A222.5,222.5,0,0,1,210.94181416659828,70.77994798037304L201.4612831928186,67.59882672282818A212.5,212.5,0,0,0,204.337019081069,58.3320892225098Z"/></g><g><path fill="#cccccc" d="M207.37869662770754,80.62460037106075A222.5,222.5,0,0,1,206.12751508792846,83.77169882290687L196.86335710644855,80.00667865109084A212.5,212.5,0,0,0,198.05830576803527,77.00102282629398Z"/></g><g><path fill="#cccccc" d="M201.95857639414845,93.37549689746716A222.5,222.5,0,0,1,200.5139458222561,96.43862053549579L191.50208308867155,92.10430051142856A212.5,212.5,0,0,0,192.88178644384965,89.17884535151359Z"/></g><g><path fill="#cccccc" d="M195.7553512507356,105.76432506616364A222.5,222.5,0,0,1,194.12287327709376,108.73159646876063L185.39824975902212,103.84478314432195A212.5,212.5,0,0,0,186.9573579360958,101.01087225420122Z"/></g><g><path fill="#cccccc" d="M188.79307452639142,117.74304654998703A222.5,222.5,0,0,1,186.97907916945843,120.60295996757876L178.57552504948276,115.1826022162269A212.5,212.5,0,0,0,180.3079925252053,112.45122423313367Z"/></g><g><path fill="#cccccc" d="M181.0987428121196,129.2652132318272A222.5,222.5,0,0,1,179.11026393347154,132.0066792010244L171.0603644308436,126.0737947425514A212.5,212.5,0,0,0,172.95947347224907,123.45554072702598Z"/></g><g><path fill="#cccccc" d="M172.70219128031576,140.28614730962295A222.5,222.5,0,0,1,170.54693931048155,142.89853565319316L162.8819083302352,136.47612955642046A212.5,212.5,0,0,0,164.9402950429982,133.9811519249208Z"/></g><g><path fill="#cccccc" d="M163.63597799733088,150.76311453686887A222.5,222.5,0,0,1,161.32231003819595,153.23629558280305L154.07186913760287,146.34927106222761A212.5,212.5,0,0,0,156.28155201992277,143.98724422060508Z"/></g><g><path fill="#cccccc" d="M153.9352576778716,160.65548992688446A222.5,222.5,0,0,1,151.47214509757939,162.9798737867282L144.66440823926123,155.6549356390101A212.5,212.5,0,0,0,147.0168191305515,153.43501846949638Z"/></g><g><path fill="#cccccc" d="M143.63764537076085,169.92491527831797A222.5,222.5,0,0,1,141.0346390167653,172.09148903246407L134.69600355533765,164.3570400871848A212.5,212.5,0,0,0,137.1820208597154,162.28784043434862Z"/></g><g><path fill="#cccccc" d="M132.78307060462504,178.53544791107214A222.5,222.5,0,0,1,130.0502637697815,180.53581055682625L124.20530809473516,172.4218415430363A212.5,212.5,0,0,0,126.81529215048458,170.51138283641723Z"/></g><g><path fill="#cccccc" d="M121.41362255906478,186.45370003592032A222.5,222.5,0,0,1,118.56161184436074,188.28009506282692L113.23300007607486,179.81806831843022A212.5,212.5,0,0,0,115.95683053393827,178.0737584612722Z"/></g><g><path fill="#cccccc" d="M109.57338686166652,193.64896821739993A222.5,222.5,0,0,1,106.61323108734875,195.29431368351607L101.8216251957825,186.51704115841423A212.5,212.5,0,0,0,104.64874026114218,184.94564380313477Z"/></g><g><path fill="rgb(190, 229, 160)" d="M97.30827464368306,200.09335242798434A222.5,222.5,0,0,1,88.07301092264636,204.32668633103071L84.11467335308922,195.1434644734563A212.5,212.5,0,0,0,92.93486904171978,191.10039276829966Z"/></g><g><path fill="#cccccc" d="M78.36368368866194,208.2435667163414A222.5,222.5,0,0,1,75.18500402923199,209.4121896383407L71.80590272454741,200.00040583437033A212.5,212.5,0,0,0,74.84172037681196,198.88430529088788Z"/></g><g><path fill="#cccccc" d="M65.25071513641535,212.71716943910846A222.5,222.5,0,0,1,62.00546336263554,213.68568626181974L59.21870096431484,204.0818351938728A212.5,212.5,0,0,0,62.31809872578994,203.15684721712606Z"/></g><g><path fill="#cccccc" d="M51.88473353413083,216.3659502465493A222.5,222.5,0,0,1,48.58549327895763,217.13060549549516L46.40187560349886,207.37192659682123A212.5,212.5,0,0,0,49.5528353977654,206.64163787591784Z"/></g><g><path fill="#cccccc" d="M38.31756617235799,219.17576080083984A222.5,222.5,0,0,1,34.9771304118994,219.73358948542435L33.40512455069044,209.8579225422592A212.5,212.5,0,0,0,36.595428366858755,209.32516480979086Z"/></g><g><path fill="#cccccc" d="M24.601820449918456,221.13570591505564A222.5,222.5,0,0,1,21.23314189800209,221.48454502546969L20.278843385732333,211.53018345129126A212.5,212.5,0,0,0,23.4961206544165,211.19702250314305Z"/></g><g><path fill="#cccccc" d="M10.790679885974024,222.23818579982702A222.5,222.5,0,0,1,7.406820769323924,222.37668269423193L7.073929948230714,212.38222504505296A212.5,212.5,0,0,0,10.305705509076315,212.24995273017188Z"/></g><g><path fill="rgb(137, 207, 165)" d="M-3.0623021018417815,222.47892553191878A222.5,222.5,0,0,1,-6.448220693070325,222.40654318138542L-6.158413021471659,212.41074348784A212.5,212.5,0,0,0,-2.924670546702825,212.47987269902353Z"/></g><g><path fill="#cccccc" d="M-16.903409853592823,221.8569916304678A222.5,222.5,0,0,1,-20.27825884352446,221.57401070133434L-19.366876423590774,211.6156281979036A212.5,212.5,0,0,0,-16.143706039948203,211.88589088303104Z"/></g><g><path fill="#cccccc" d="M-30.67897375231241,220.37479567660392A222.5,222.5,0,0,1,-34.02966698802797,219.88231344217732L-32.50024375261098,209.99996227623677A212.5,212.5,0,0,0,-29.300143471309607,210.47031047765543Z"/></g><g><path fill="#cccccc" d="M-44.335578330741356,218.0380849624182A222.5,222.5,0,0,1,-47.6491233245181,217.33801104823993L-45.507589691955495,207.57001055168985A212.5,212.5,0,0,0,-42.342968068685565,208.23862046972525Z"/></g><g><path fill="rgb(254, 227, 149)" d="M-57.820269392587306,214.85592020553827A222.5,222.5,0,0,1,-64.33321401675899,212.99644967527954L-61.44183361151139,203.42357553257034A212.5,212.5,0,0,0,-55.221605599662034,205.19947435360396Z"/></g><g><path fill="#cccccc" d="M-74.28165638940216,209.7343212830146A222.5,222.5,0,0,1,-77.46534374556938,208.57941058115196L-73.98375526262244,199.2050550494148A212.5,212.5,0,0,0,-70.94315497864251,200.30805965231733Z"/></g><g><path fill="rgb(232, 94, 73)" d="M-87.19146408224766,204.70441761523887A222.5,222.5,0,0,1,-90.2970975650533,203.3535939474079L-86.23880104527562,194.21410657898505A212.5,212.5,0,0,0,-83.27274659540507,195.50421907073374Z"/></g><g><path fill="#cccccc" d="M-99.76318232705263,198.88076189510954A222.5,222.5,0,0,1,-102.77871968074298,197.33926315051258L-98.15945138048487,188.47008278419742A212.5,212.5,0,0,0,-95.2794437954997,189.9423006863406Z"/></g><g><path fill="#cccccc" d="M-111.94806363084803,192.28593565132007A222.5,222.5,0,0,1,-114.86181195210756,190.55973907171128L-109.69948332504654,181.9952564168029A212.5,212.5,0,0,0,-106.91668998451777,183.64387112766522Z"/></g><g><path fill="rgb(202, 50, 74)" d="M-123.69886048107283,184.94551066647733A222.5,222.5,0,0,1,-126.49952155886639,183.041309669096L-120.81414980341171,174.81473395363102A212.5,212.5,0,0,0,-118.13936113360889,176.6333528837143Z"/></g><g><path fill="#cccccc" d="M-134.9700085502674,176.88794982118128A222.5,222.5,0,0,1,-137.64672267524261,174.8131280446776L-131.46035311680475,166.9563582449168A212.5,212.5,0,0,0,-128.9039407502554,168.93792960449898Z"/></g><g><path fill="#cccccc" d="M-145.7178033741289,168.1444967277214A222.5,222.5,0,0,1,-148.26019144770544,165.90709940171254L-141.59681205679732,158.4506005521974A212.5,212.5,0,0,0,-139.16868861574108,160.5874406950148Z"/></g><g><path fill="#cccccc" d="M-155.90056981785023,158.74905458134108A222.5,222.5,0,0,1,-158.29877359771564,156.35775733061396L-151.1842219753464,149.3304423944066A212.5,212.5,0,0,0,-148.89380263502548,151.61426561139317Z"/></g><g><path fill="#cccccc" d="M-165.47882367362826,148.73805469883035A222.5,222.5,0,0,1,-167.72354399958655,146.20212990315412L-160.18540719061636,139.63124766031572A212.5,212.5,0,0,0,-158.0415731714427,142.0531983078717Z"/></g><g><path fill="#cccccc" d="M-174.41542476273827,138.15031525419545A222.5,222.5,0,0,1,-178.53959914918292,132.77748881361282L-170.51534750202865,126.80996122648415A212.5,212.5,0,0,0,-166.57652926778374,131.94131232142263Z"/></g><g><path fill="rgb(67, 127, 180)" d="M-184.58799119674094,124.23173308761291A222.5,222.5,0,0,1,-188.2838016769766,118.55572540398435L-179.82160834317992,113.22737819481652A212.5,212.5,0,0,0,-176.29190170475258,118.64828440951794Z"/></g><g><path fill="#cccccc" d="M-193.65239382136824,109.56733257341672A222.5,222.5,0,0,1,-196.89765280131604,103.6222192453549L-188.04832009114455,98.96504085230525A212.5,212.5,0,0,0,-184.94891544737416,104.64295807573508Z"/></g><g><path fill="#cccccc" d="M-201.55421499613828,94.24515063010122A222.5,222.5,0,0,1,-202.9653390299347,91.16644751477189L-193.84330132072415,87.0690790871417A212.5,212.5,0,0,0,-192.49559859181747,90.00941352313039Z"/></g><g><path fill="#cccccc" d="M-207.02924627435468,81.51773541428024A222.5,222.5,0,0,1,-208.24601657408783,78.35717313063769L-198.88664504266816,74.83550242813712A212.5,212.5,0,0,0,-197.72456104854098,77.85401696869461Z"/></g><g><path fill="#cccccc" d="M-211.7015108558779,68.47423092915037A222.5,222.5,0,0,1,-212.71920933126958,65.24406472223748L-203.15879542874063,62.31174720663131A212.5,212.5,0,0,0,-202.1868362106699,65.39673740424473Z"/></g><g><path fill="#cccccc" d="M-215.55289179118662,55.165214043425856A222.5,222.5,0,0,1,-216.36757226333688,51.87796905112706L-206.64318699307455,49.54637493646966A212.5,212.5,0,0,0,-205.8651213736052,52.68587858079998Z"/></g><g><path fill="#cccccc" d="M-218.5684551498977,41.6422911639978A222.5,222.5,0,0,1,-219.17695865279924,38.31071385016386L-209.32630882570714,36.58888401420143A212.5,212.5,0,0,0,-208.7451537948461,39.77072751617767Z"/></g><g><path fill="#cccccc" d="M-220.73650792785966,27.957898129400657A222.5,222.5,0,0,1,-221.13647495745337,24.594906858770525L-211.19775698183747,23.48951778646623A212.5,212.5,0,0,0,-210.81576599851766,26.701363382011863Z"/></g><g><path fill="#cccccc" d="M-222.0486433873863,14.165096887114435A222.5,222.5,0,0,1,-222.23852305066112,10.783731833682443L-212.2502748236651,10.29906972879784A212.5,212.5,0,0,0,-212.06892907784086,13.528463319154236Z"/></g><g><path fill="#cccccc" d="M-222.49977365482007,0.3173697430967335A222.5,222.5,0,0,1,-222.47882968348148,-3.06925767384199L-212.4797811583812,-2.9313135087254962A212.5,212.5,0,0,0,-212.49978382763715,0.3031059344182286Z"/></g><g><path fill="#cccccc" d="M-222.08814944902758,-13.531588018647117A222.5,222.5,0,0,1,-221.85646305441645,-16.910345974708573L-211.88538606320674,-16.15033042528347A212.5,212.5,0,0,0,-212.10665958614993,-12.923426759382076Z"/></g><g><path fill="#cccccc" d="M-220.81536686432835,-27.328076342327382A222.5,222.5,0,0,1,-220.37383642251973,-30.685863527372426L-210.46939433611433,-29.306723593557937A212.5,212.5,0,0,0,-210.8910807131226,-26.09984819211042Z"/></g><g><path fill="#cccccc" d="M-218.68636118155604,-41.01859862513612A222.5,222.5,0,0,1,-218.03669874985883,-44.34239504428363L-208.23729655885393,-42.34947841307987A212.5,212.5,0,0,0,-208.8577606790142,-39.17506610265809Z"/></g><g><path fill="#cccccc" d="M-215.70938773124942,-54.550069153113824A222.5,222.5,0,0,1,-214.8541124096152,-57.82698661244965L-205.19774780693587,-55.22802092200247A212.5,212.5,0,0,0,-206.01458378827192,-52.09838065185028Z"/></g><g><path fill="#cccccc" d="M-211.89598988317803,-67.87001894377309A222.5,222.5,0,0,1,-210.8384180462595,-71.087351024994L-201.36253408912424,-67.89241390027517A212.5,212.5,0,0,0,-202.37257460752957,-64.81968101371588Z"/></g><g><path fill="#cccccc" d="M-207.26095428632385,-80.92679919731394A222.5,222.5,0,0,1,-206.00518672405923,-84.07207052752705L-196.74652664657344,-80.29355050381795A212.5,212.5,0,0,0,-197.94585521727558,-77.28963968282793Z"/></g><g><path fill="#cccccc" d="M-201.82225353287913,-93.66978156753792A222.5,222.5,0,0,1,-200.37315954946536,-96.73079619316952L-191.36762428881522,-92.38334467886978A212.5,212.5,0,0,0,-192.75159045274972,-89.4599037442778Z"/></g><g><path fill="#cccccc" d="M-195.6009764685828,-106.04955447590018A222.5,222.5,0,0,1,-193.96417500149468,-109.01444315314164L-185.24668399019154,-104.11491761816899A212.5,212.5,0,0,0,-186.8099213463993,-101.28328236462377Z"/></g><g><path fill="#cccccc" d="M-188.62124641962188,-118.01811470748157A222.5,222.5,0,0,1,-186.80308425188892,-120.87538092590104L-178.40744001584898,-115.4427795359729A212.5,212.5,0,0,0,-180.14388702997596,-112.71392977680824Z"/></g><g><path fill="rgb(253, 190, 112)" d="M-180.91012765317623,-129.5290535459573A222.5,222.5,0,0,1,-178.91765480340072,-132.26761810681833L-170.87641189088833,-126.32300605707368A212.5,212.5,0,0,0,-172.7793353991009,-123.7075230495098Z"/></g><g><path fill="#cccccc" d="M-172.49752043431153,-140.53773672581423A222.5,222.5,0,0,1,-170.33846281985367,-143.1469807022465L-162.68280156952318,-136.7134085358534A212.5,212.5,0,0,0,-164.74482288670202,-134.22143395162033Z"/></g><g><path fill="#cccccc" d="M-163.41604508614245,-151.0014775040425A222.5,222.5,0,0,1,-161.09877456547306,-153.47128341648443L-153.85838020297987,-146.57369764495704A212.5,212.5,0,0,0,-156.0715037339563,-144.21489424543384Z"/></g><g><path fill="#cccccc" d="M-153.70091550282913,-160.87970218020723A222.5,222.5,0,0,1,-151.2344174132119,-163.20049322746053L-144.43736494520238,-155.86563959926005A212.5,212.5,0,0,0,-146.79300918809525,-153.64915376761365Z"/></g><g><path fill="rgb(251, 248, 176)" d="M-143.38980260586644,-170.13410742308744A222.5,222.5,0,0,1,-140.7836409222442,-172.29688461686305L-134.4562862740534,-164.5532044093636A212.5,212.5,0,0,0,-136.9453170954904,-162.48763068497118Z"/></g><g><path fill="#cccccc" d="M-132.52268827312176,-178.72880879383993A222.5,222.5,0,0,1,-127.02117952961008,-182.67969222359272L-121.31236247209952,-174.46936897758857A212.5,212.5,0,0,0,-126.56661239567808,-170.6960533424314Z"/></g><g><path fill="#cccccc" d="M-118.28704038697492,-188.4527157578A222.5,222.5,0,0,1,-115.40496554403687,-190.2312906116648L-110.21822551958577,-181.68156968529783A212.5,212.5,0,0,0,-112.97076890890864,-179.98293077992133Z"/></g><g><path fill="#cccccc" d="M-106.32844808419549,-195.44951043173924A222.5,222.5,0,0,1,-103.34126278748582,-197.04525725195163L-98.6967116509696,-188.1892906338864A212.5,212.5,0,0,0,-101.54964142872603,-186.6652627718858Z"/></g><g><path fill="#cccccc" d="M-93.95756168012785,-201.68843943846898A222.5,222.5,0,0,1,-90.87684889638291,-203.09517063353326L-86.79249613699491,-193.96729779607108A212.5,212.5,0,0,0,-89.73474991922323,-192.6237904749423Z"/></g><g><path fill="#cccccc" d="M-81.22234993180741,-207.14531100547515A222.5,222.5,0,0,1,-78.06005528547095,-208.3575719018371L-74.55173819398911,-198.99318664782194A212.5,212.5,0,0,0,-77.57190723824303,-197.83540938725156Z"/></g><g><path fill="#cccccc" d="M-68.17219428678742,-211.79896582874173A222.5,222.5,0,0,1,-64.94057974022898,-212.81205582156986L-62.0219019990951,-203.24746904307233A212.5,212.5,0,0,0,-65.10827544243742,-202.27991118475336Z"/></g><g><path fill="#cccccc" d="M-54.85769740400139,-215.63135911905536A222.5,222.5,0,0,1,-51.5692937111179,-216.4413498990811L-49.251572645449684,-206.7136487800213A212.5,212.5,0,0,0,-52.392182913933915,-205.9400620799967Z"/></g><g><path fill="#cccccc" d="M-41.330486939314746,-218.6276305716163A222.5,222.5,0,0,1,-37.998045056878894,-219.23138135735815L-36.290267750951756,-209.37828556601622A212.5,212.5,0,0,0,-39.47293696451408,-208.80166964704927Z"/></g><g><path fill="#cccccc" d="M-27.643015356597335,-220.77616198764514A222.5,222.5,0,0,1,-24.279457001757923,-221.1713317039525L-23.188245451117115,-211.23104713298835A212.5,212.5,0,0,0,-26.400632643941275,-210.85363785336895Z"/></g><g><path fill="#cccccc" d="M-13.848356540560014,-222.0686223245543A222.5,222.5,0,0,1,-10.466724086209947,-222.2536786802485L-9.99630952053759,-212.26474930136092A212.5,212.5,0,0,0,-13.225958493793271,-212.08801008524847Z"/></g></g><g fill-opacity="0.7"><path fill="rgb(86, 173, 174)" d="M0.49764659963378216,-211.4994145331421A211.5,211.5,0,0,1,2.721569110718217,-211.48248878234716Q0,0,59.584959214598435,-177.78043378109595L66.9741866551802,-196.394267538228L61.451054583273674,-177.14405971017916Q0,0,0.49764659963378216,-211.4994145331421Z"/><path fill="rgb(86, 173, 174)" d="M3.7167470144584787,-211.46733977527242A211.5,211.5,0,0,1,5.940154283765415,-211.4165664442715Q0,0,70.53445679544609,-173.72720110728588L79.06787955602259,-191.8450427363561L72.35732642520216,-172.97591541193455Q0,0,3.7167470144584787,-211.46733977527242Z"/><path fill="rgb(86, 173, 174)" d="M6.934986327635693,-211.38627193986724A211.5,211.5,0,0,1,9.157363232759781,-211.3016627919035Q0,0,81.21045334248477,-169.00033215324785L90.85498263137916,-186.55192877869635L82.98302896128996,-168.13704798291693Q0,0,6.934986327635693,-211.38627193986724Z"/><path fill="rgb(86, 173, 174)" d="M10.151618932546711,-211.25622980884697A211.5,211.5,0,0,1,12.372450589798763,-211.13780444629754Q0,0,91.57155212246931,-163.61815559980465L102.28979077450927,-180.53544999059633L93.28696047594163,-162.64622038387523Q0,0,10.151618932546711,-211.25622980884697Z"/><path fill="rgb(86, 173, 174)" d="M13.365899594817261,-211.0772435105719A211.5,211.5,0,0,1,15.584671478513679,-210.9250293704064Q0,0,101.57757743466459,-157.60154111716267L113.32796492064038,-173.81893558224922L103.22916693747413,-156.52472358511002Q0,0,13.365899594817261,-211.0772435105719Z"/><path fill="rgb(86, 173, 174)" d="M16.577083624974946,-210.84935451286205A211.5,211.5,0,0,1,18.793281686643432,-210.6633868602859Q0,0,111.1897303942201,-150.97381844167765L123.92670397400326,-166.42842918846455L112.77109692195769,-149.79629400962637Q0,0,16.577083624974946,-210.84935451286205Z"/><path fill="rgb(86, 173, 174)" d="M19.784427050979648,-210.57261561338993A211.5,211.5,0,0,1,21.997537838455134,-210.35293753367395Q0,0,152.35456882474946,109.2901430057838L167.96749118209937,121.83255683925941L151.19694252067544,110.88613336391333Q0,0,19.784427050979648,-210.57261561338993Z"/><path fill="rgb(86, 173, 174)" d="M22.9871867905885,-210.247090927448A211.5,211.5,0,0,1,25.19669756697014,-209.9937533159466Q0,0,-37.793667907850285,183.6515414203516L-42.892985113723675,203.01832879824886L-39.72270365759718,183.2439816586911Q0,0,22.9871867905885,-210.247090927448Z"/><path fill="rgb(86, 173, 174)" d="M26.184620823513935,-209.87285587309475A211.5,211.5,0,0,1,28.39001968595718,-209.58591742345422Q0,0,-131.69129081626443,133.46780107256606L-146.51292570773956,146.93608338511814L-133.08744533815175,132.07566730236297Q0,0,26.184620823513935,-209.87285587309475Z"/><path fill="rgb(86, 173, 174)" d="M29.375988363336475,-209.44999715368135A211.5,211.5,0,0,1,31.57676436165109,-209.12952434424164Q0,0,-186.0256637479486,-23.467049817460232L-205.7290135031531,-27.052227320859227L-185.7686194016518,-25.4218419003078Q0,0,29.375988363336475,-209.44999715368135Z"/><path fill="rgb(86, 173, 174)" d="M32.56055002913087,-208.9786127377643A211.5,211.5,0,0,1,34.756193284159075,-208.62467981615737Q0,0,-109.01239374652376,-152.55342673848028L-119.75108766237767,-169.45774400621983L-107.4022433320538,-153.6912753777595Q0,0,32.56055002913087,-208.9786127377643Z"/><path fill="rgb(86, 173, 174)" d="M35.7375680167674,-208.4588118364079A211.5,211.5,0,0,1,37.927569838513044,-208.0715008023557Q0,0,-99.3061476432972,-159.04256989953242L-108.97190023143355,-176.5824876932888L-97.62829947285861,-160.07799705780255Q0,0,35.7375680167674,-208.4588118364079Z"/><path fill="rgb(86, 173, 174)" d="M38.90630626984705,-207.89071487788206A211.5,211.5,0,0,1,41.090159275330116,-207.47011546419884Q0,0,-78.77759072530341,-170.14799792979224L-86.18932799363878,-188.7528800840002L-76.98410214865568,-170.9669500703728Q0,0,38.90630626984705,-207.89071487788206Z"/><path fill="rgb(86, 173, 174)" d="M42.06603065023263,-207.27445347976118A211.5,211.5,0,0,1,44.243228881040054,-206.82066313156406Q0,0,-68.03488046032084,-174.72122092278846L-74.27428379849705,-193.7513374565975L-66.19389763513702,-175.42695891985645Q0,0,42.06603065023263,-207.27445347976118Z"/><path fill="rgb(86, 173, 174)" d="M45.216009108134585,-206.61017041843098A211.5,211.5,0,0,1,47.38604814764192,-206.1232942705636Q0,0,-57.02836139909375,-178.61695327189508L-62.071237195351785,-197.99851391623721L-55.147022832265186,-179.20674058957053Q0,0,45.216009108134585,-206.61017041843098Z"/><path fill="rgb(86, 173, 174)" d="M48.35551185171382,-205.89801959600962A211.5,211.5,0,0,1,50.51788894194883,-205.37817044868456Q0,0,-45.80071189314916,-181.82008907180952L-49.627506133659345,-201.47794081475422L-43.88631257305954,-182.2916387790173Q0,0,48.35551185171382,-205.89801959600962Z"/><path fill="rgb(86, 173, 174)" d="M51.48381151616061,-205.1381660046917A211.5,211.5,0,0,1,53.63802567428342,-204.58546429735645Q0,0,-22.856853365039715,-186.10162345946657L-24.211741668537776,-206.08260859513592L-20.898701498977296,-186.33167813245456Q0,0,51.48381151616061,-205.1381660046917Z"/><path fill="rgb(86, 173, 174)" d="M54.60018333221195,-204.33078568852233A211.5,211.5,0,0,1,56.74573546658312,-203.745359471956Q0,0,-11.229610350583721,-187.1634201743868L-11.338259216970583,-207.18999463760017L-9.260936344587781,-187.27115383320918Q0,0,54.60018333221195,-204.33078568852233Z"/><path fill="rgb(231, 245, 163)" d="M135.77819401710784,-162.16205483852448A211.5,211.5,0,0,1,137.4758472389641,-160.7253602451368Q0,0,129.0850045415929,-135.9901158264708L143.64335143816027,-149.7425710598465L130.5078256954431,-134.62524812325447Q0,0,135.77819401710784,-162.16205483852448Z"/><path fill="rgb(94, 79, 162)" d="M154.87297406233566,-144.0368421796559A211.5,211.5,0,0,1,156.37898211626657,-142.4003650005167Q0,0,186.39794441182812,-20.29917040287701L206.39565078543026,-21.379554178203065L186.60108825882722,-18.33804407840093Q0,0,154.87297406233566,-144.0368421796559Z"/><path fill="rgb(94, 79, 162)" d="M157.04736747885553,-141.6628898757939A211.5,211.5,0,0,1,158.5282928331604,-140.00367984950876Q0,0,187.29997693878718,-8.65844320474463L207.32615511298107,-8.492079019186765L187.3806668159754,-6.688475431697059Q0,0,157.04736747885553,-141.6628898757939Z"/><path fill="rgb(94, 79, 162)" d="M159.18537592046715,-139.25611689638467A211.5,211.5,0,0,1,160.6408754720891,-137.57455843127667Q0,0,185.22700702913068,29.10680104426413L204.81236423539897,33.288818788089436L184.9107039549738,31.052883326287578Q0,0,159.18537592046715,-139.25611689638467Z"/><path fill="rgb(94, 79, 162)" d="M161.28650405009643,-136.81708084628264A211.5,211.5,0,0,1,162.71624058666754,-135.11356352839536Q0,0,183.05629172873458,40.578862213280686L202.34338934561026,45.97176076822346L182.6194781142907,42.501484835992464Q0,0,161.28650405009643,-136.81708084628264Z"/><path fill="rgb(94, 79, 162)" d="M163.35026507515641,-134.34634680509973A211.5,211.5,0,0,1,164.7539073531236,-132.62126530793756Q0,0,170.0041942337601,79.08744491339928L187.6752067839532,88.51139338300126L169.16317833580442,80.87069367409204Q0,0,163.35026507515641,-134.34634680509973Z"/><path fill="rgb(94, 79, 162)" d="M165.37618086032845,-131.84448719628716A211.5,211.5,0,0,1,166.75340368169643,-130.09824118937652Q0,0,164.75220704649146,89.51513991113464L181.80241474839875,100.02065782452743L163.80183263547727,91.24258668658561Q0,0,165.37618086032845,-131.84448719628716Z"/><path fill="rgb(94, 79, 162)" d="M167.3637820383369,-129.31208165451542A211.5,211.5,0,0,1,168.71426632601063,-127.54507571080882Q0,0,158.86138458641136,99.59573528664919L175.2246743706907,111.14208695037811L157.80533678866885,101.26068181191947Q0,0,167.3637820383369,-129.31208165451542Z"/><path fill="rgb(94, 79, 162)" d="M169.31260811869308,-126.74971689138347A211.5,211.5,0,0,1,170.63604099040205,-124.96236039352742Q0,0,145.25699027887939,118.56077249715246L160.05900528881958,132.05061463678854L144.00227422482516,120.08161815231443Q0,0,169.31260811869308,-126.74971689138347Z"/><path fill="rgb(94, 79, 162)" d="M171.2222075943825,-124.1579865594887A211.5,211.5,0,0,1,172.51828243516968,-122.35069360497727Q0,0,137.59617017967224,127.37167641154245L151.52988225724184,141.75663929109785L136.24922960255688,128.81148020541391Q0,0,171.2222075943825,-124.1579865594887Z"/><path fill="rgb(94, 79, 162)" d="M173.09213804647052,-121.53749111488844A211.5,211.5,0,0,1,174.36055457972944,-119.71068042012458Q0,0,129.40181375648896,135.68869000963545L142.4131942066196,150.91299518552947L127.96787148862815,137.04186902793595Q0,0,173.09213804647052,-121.53749111488844Z"/><path fill="rgb(94, 79, 162)" d="M174.9219662466027,-118.88883767798549A211.5,211.5,0,0,1,176.16243060364596,-117.0429324812721Q0,0,120.70569505360467,143.47956363756546L132.74429157020273,159.48417807270098L119.19031128090612,144.74087085809836Q0,0,174.9219662466027,-118.88883767798549Z"/><path fill="rgb(94, 79, 162)" d="M176.71126825737585,-116.21263989286945A211.5,211.5,0,0,1,177.9234930455191,-114.348067856353Q0,0,111.54153372469533,150.71408777663305L122.5606660220893,167.43695274407585L109.95058442674802,151.87863241488765Q0,0,176.71126825737585,-116.21263989286945Z"/><path fill="rgb(94, 79, 162)" d="M178.45962953055644,-113.50951778514678A211.5,211.5,0,0,1,179.64333389970204,-111.62671089573568Q0,0,101.94486428312251,157.36421018228933L111.90180510130445,174.74048190121735L100.2845184487795,158.42747665571275Q0,0,178.45962953055644,-113.50951778514678Z"/><path fill="rgb(94, 79, 162)" d="M180.16664500312385,-110.78009761829222A211.5,211.5,0,0,1,181.3215547108285,-108.87949208757368Q0,0,91.95289831500509,163.4041446581767L100.80903909680919,181.36644572902122L90.22959402180753,164.36201009558076Q0,0,180.16664500312385,-110.78009761829222Z"/><path fill="rgb(94, 79, 162)" d="M181.8319191911159,-108.02501174855523A211.5,211.5,0,0,1,182.95776666612764,-106.10704791173296Q0,0,54.56462695499875,179.38492546828405L59.34027367340007,198.8340562387791L52.67534924779747,179.94876376797524Q0,0,181.8319191911159,-108.02501174855523Z"/><path fill="rgb(94, 79, 162)" d="M183.45506628125528,-105.2448984784547A211.5,211.5,0,0,1,184.5515906855047,-103.31002069233134Q0,0,43.29395563893549,182.43322999150644L46.849833347476434,202.14188857165078L41.373247632499414,182.87838685951897Q0,0,183.45506628125528,-105.2448984784547Z"/><path fill="rgb(94, 79, 162)" d="M185.0357102203352,-102.44040190889596A211.5,211.5,0,0,1,186.10265750936702,-100.48905844892387Q0,0,31.855409752585718,184.7741401535801L34.17773035005207,204.66590519214267L29.910719092353283,185.0988894709483Q0,0,185.0357102203352,-102.44040190889596Z"/><path fill="rgb(94, 79, 162)" d="M186.57348480234424,-99.61217178994454A211.5,211.5,0,0,1,187.61060778417448,-97.64481474636864Q0,0,20.293342854016238,186.39857895329928L21.373101421208233,206.3963190942095L18.3322101794164,186.60166148761297Q0,0,186.57348480234424,-99.61217178994454Z"/><path fill="rgb(94, 79, 162)" d="M188.0680337533092,-96.76086337029113A211.5,211.5,0,0,1,189.07509214569518,-94.77794854340794Q0,0,8.652587460458989,187.30024754452168L8.485597177234983,207.32642050772424L6.682617165688696,187.3808758326656Q0,0,188.0680337533092,-96.76086337029113Z"/><path fill="rgb(94, 79, 162)" d="M189.51901081383747,-93.88713724544247A211.5,211.5,0,0,1,190.49577129994663,-91.88912403999963Q0,0,-94.71926192556207,161.81628910674218L-105.76272403954657,178.52309711556853L-96.41554934222037,160.8113548386365Q0,0,189.51901081383747,-93.88713724544247Z"/><path fill="rgb(94, 79, 162)" d="M190.92607981933878,-90.99165920467365A211.5,211.5,0,0,1,191.87231610180396,-88.97901052343425Q0,0,-139.74298076246092,125.01259667578493L-155.37414308336244,137.53227134425873L-141.04978231943076,123.5362655564802Q0,0,190.92607981933878,-90.99165920467365Z"/><path fill="rgb(94, 79, 162)" d="M192.28891477790842,-88.07510007677696A211.5,211.5,0,0,1,193.20440763125674,-86.04828221327361Q0,0,-149.00245303258413,113.81792033890163L-165.5560148921223,125.08979148211648L-150.1910288677108,112.24484330096622Q0,0,192.28891477790842,-88.07510007677696Z"/><path fill="rgb(94, 79, 162)" d="M193.60719994585338,-85.13813557464331A211.5,211.5,0,0,1,194.49173726729686,-83.09761810514647Q0,0,-164.78759510216977,89.44997764361572L-182.8828798941529,98.03112894188688L-165.71906544495286,87.71226452470275Q0,0,193.60719994585338,-85.13813557464331Z"/><path fill="rgb(94, 79, 162)" d="M194.88062990084464,-82.18144613871198A211.5,211.5,0,0,1,195.7340067594203,-80.12770181343784Q0,0,-170.0354579931203,79.02020643525186L-188.6297492606848,86.458473811716L-170.85696749838817,77.22788782075243Q0,0,194.88062990084464,-82.18144613871198Z"/><path fill="rgb(94, 79, 162)" d="M196.10890961267754,-79.20571677932517A211.5,211.5,0,0,1,196.93092829672622,-77.13922141290816Q0,0,-174.62399953025127,68.28403025641357L-193.64519693952244,74.55057144149583L-175.33236275206474,66.44405595520479Q0,0,196.10890961267754,-79.20571677932517Z"/><path fill="rgb(94, 79, 162)" d="M197.29175451162504,-76.21163691802374A211.5,211.5,0,0,1,198.08222457459763,-74.13286927927902Q0,0,-178.53542740451124,57.28307919000603L-197.90977527079147,62.35359534353107L-179.12789762754443,55.40258379837496Q0,0,197.29175451162504,-76.21163691802374Z"/><path fill="rgb(94, 79, 162)" d="M198.42889055436726,-73.19990022782098A211.5,211.5,0,0,1,199.18762885894745,-71.1093419288226Q0,0,-181.75457485038044,46.06000999736604L-201.40694812966225,49.91483992857775L-182.22885474045287,44.14628523424058Q0,0,198.42889055436726,-73.19990022782098Z"/><path fill="rgb(94, 79, 162)" d="M199.5200542874821,-70.17120447249133A211.5,211.5,0,0,1,200.24688504801608,-68.06933985699162Q0,0,-184.26895945579489,34.65834071444584L-204.123155046036,37.282537119299604L-184.62320996790442,32.718807147374406Q0,0,199.5200542874821,-70.17120447249133Z"/><path fill="rgb(94, 79, 162)" d="M200.56499290848282,-67.12625134491152A211.5,211.5,0,0,1,201.2597477317055,-65.0135673761275Q0,0,-186.06883156335007,23.12228190835977L-206.04786378597456,24.505669328473203L-186.30167907266573,21.1644601798737Q0,0,200.56499290848282,-67.12625134491152Z"/><path fill="rgb(94, 79, 162)" d="M201.56346432438738,-64.06574630449116A211.5,211.5,0,0,1,202.22598224843594,-61.942732452284226Q0,0,-187.14721207510564,11.496565248605117L-207.17361119098678,11.63377952712852L-187.25775370326969,9.528046914535167Q0,0,201.56346432438738,-64.06574630449116Z"/><path fill="rgb(94, 79, 162)" d="M202.51523720780708,-60.990398413730844A211.5,211.5,0,0,1,203.1453647395131,-58.85754654120565Q0,0,-187.49991951440177,-0.17372994231855793L-207.49603211681455,-1.2832208609043534L-187.48772663048751,-2.145311849495774Q0,0,202.51523720780708,-60.990398413730844Z"/><path fill="rgb(94, 79, 162)" d="M203.42009105054098,-57.900920173945586A211.5,211.5,0,0,1,204.01768220099163,-55.75872442349437Q0,0,-184.20441704579972,-34.99975343937573L-203.6464256704687,-39.80431272666669L-183.82620517351032,-36.934757228205626Q0,0,203.42009105054098,-57.900920173945586Z"/><path fill="rgb(94, 79, 162)" d="M204.27781621466323,-54.798027360191234A211.5,211.5,0,0,1,204.84273253302447,-52.64698403901024Q0,0,-181.66890811235143,-46.39674369248357L-200.77418820435895,-52.40205483452588L-181.17099525032378,-48.30445610921576Q0,0,204.27781621466323,-54.798027360191234Z"/><path fill="rgb(94, 79, 162)" d="M205.08821398109268,-51.68243885543278A211.5,211.5,0,0,1,205.6203245866856,-49.52304632053697Q0,0,-178.42896851569168,-57.61382815285148L-197.1234383553539,-64.79660524258195L-177.81328534700893,-59.48685194312418Q0,0,205.08821398109268,-51.68243885543278Z"/><path fill="rgb(94, 79, 162)" d="M205.8510965956321,-48.55487648399229A211.5,211.5,0,0,1,206.35027820825573,-46.387635026755305Q0,0,-169.88873222439148,-79.33516662356617L-187.5459892320318,-88.7848631410705L-169.04511787661642,-81.1171875873471Q0,0,205.8510965956321,-48.55487648399229Z"/><path fill="rgb(94, 79, 162)" d="M206.56628731246758,-45.4160648443157A211.5,211.5,0,0,1,207.0324242809605,-43.241476574561524Q0,0,-158.71604061192997,-99.82719295098L-175.06248253295342,-111.39738421255403L-157.65756703544878,-101.49059836488784Q0,0,206.56628731246758,-45.4160648443157Z"/><path fill="rgb(94, 79, 162)" d="M207.23362043511727,-42.26673114109662A211.5,211.5,0,0,1,207.66660476415183,-40.08529987077003Q0,0,-137.41036134042997,-127.57210743846973L-151.32309044896044,-141.97736543891682L-136.06132347174213,-129.0099463418149Q0,0,207.23362043511727,-42.26673114109662Z"/><path fill="rgb(94, 79, 162)" d="M207.85294135482,-39.1076050167965A211.5,211.5,0,0,1,208.2526727299229,-36.91983614323912Q0,0,-89.21483677487656,-164.91501720350433L-97.77016857567375,-183.02252357752127L-87.4757967922313,-165.84400795797313Q0,0,207.85294135482,-39.1076050167965Z"/><path fill="rgb(94, 79, 162)" d="M208.4241065863554,-35.939418382599904A211.5,211.5,0,0,1,208.7904923971488,-33.745818771459Q0,0,-34.39546773884298,-184.3182079964598L-36.99134182941313,-204.17612649293628L-32.4554308486705,-184.66969163462412Q0,0,208.4241065863554,-35.939418382599904Z"/><path fill="rgb(158, 1, 66)" d="M211.47263927662698,3.401887325824798A211.5,211.5,0,0,1,211.42517645240437,5.625367727507042Q0,0,186.67949495225037,17.521876736603655L206.48716850418623,20.476797677464265L186.48492890004223,19.483872642423748Q0,0,211.47263927662698,3.401887325824798Z"/><path fill="rgb(158, 1, 66)" d="M211.39636319569712,6.620243774432519A211.5,211.5,0,0,1,211.31506305789796,8.842744191517308Q0,0,-147.25281001471438,116.07264941738183L-163.6328891181523,127.59517075048916L-148.46519141559452,114.51784549986469Q0,0,211.39636319569712,6.620243774432519Z"/><path fill="rgb(248, 142, 83)" d="M203.23826417525865,58.53595454955681A211.5,211.5,0,0,1,202.61151309853548,60.66980105391802Q0,0,174.5969812940662,68.35308422448465L192.8202784200357,76.65892139875123L173.8685849921629,70.18522033037313Q0,0,203.23826417525865,58.53595454955681Z"/><path fill="rgb(248, 142, 83)" d="M202.3237657610252,61.62259170367478A211.5,211.5,0,0,1,201.66460876188762,63.74665146433033Q0,0,-187.12558623975283,-11.843351486332816L-207.01387635950735,-14.195245493143425L-186.99070612230335,-13.81035205497623Q0,0,202.3237657610252,61.62259170367478Z"/><path fill="rgb(248, 142, 83)" d="M201.3623926665043,64.69495204125698A211.5,211.5,0,0,1,200.67098245945655,66.80873295278457Q0,0,-174.49716129053323,-68.60751199063866L-192.7083320963389,-76.93990343539018L-173.76609515878295,-70.43858440704778Q0,0,201.3623926665043,64.69495204125698Z"/><path fill="rgb(190, 229, 160)" d="M92.04974085359126,190.4182113370113A211.5,211.5,0,0,1,90.0423739934122,191.37560159443126Q0,0,65.62372108510775,175.64104654363678L71.60061899422217,194.75523448586492L63.77319944995569,176.32137996260175Q0,0,92.04974085359126,190.4182113370113Z"/><path fill="rgb(190, 229, 160)" d="M89.14078924391714,191.79720981539734A211.5,211.5,0,0,1,87.11908281890148,192.7239357443527Q0,0,-26.289958382361768,185.64775271533367L-30.174004090450996,205.29437273619908L-28.240620603719822,185.3610459290645Q0,0,89.14078924391714,191.79720981539734Z"/><path fill="rgb(190, 229, 160)" d="M86.21118535950573,193.13177242211842A211.5,211.5,0,0,1,84.175607761698,194.02761931732493Q0,0,-123.12896102369693,141.40547711183228L-137.08359682367131,155.77014310157492L-124.60905484854926,140.102938762009Q0,0,86.21118535950573,193.13177242211842Z"/><path fill="rgb(137, 207, 165)" d="M-3.4084987975023875,211.47253281678786A211.5,211.5,0,0,1,-5.631977714221788,211.42500047777347Q0,0,-14.684308172517758,186.92410516970392L-17.338021793080074,206.77437704005465L-16.6490330710184,186.75936307933839Q0,0,-3.4084987975023875,211.47253281678786Z"/><path fill="rgb(254, 227, 149)" d="M-55.442136821493214,204.1039427954953A211.5,211.5,0,0,1,-57.585257118635745,203.5096758451072Q0,0,-63.01259227318343,176.59462963242552L-70.76048191399876,195.06205217647707L-64.86602922291496,175.9222790122159Q0,0,-55.442136821493214,204.1039427954953Z"/><path fill="rgb(254, 227, 149)" d="M-58.54230855506829,203.23643400985753A211.5,211.5,0,0,1,-60.67613546366241,202.6096162209368Q0,0,-164.6215507412485,-89.75519501146738L-181.6564270160475,-100.28555491078171L-163.6686593360673,-91.48125464342057Q0,0,-58.54230855506829,203.23643400985753Z"/><path fill="rgb(232, 94, 73)" d="M-83.33849017096226,194.38864693192457A211.5,211.5,0,0,1,-85.37791031235753,193.5015825017848Q0,0,-84.46420825971954,167.39787191914573L-94.4464311063939,184.75963209333685L-86.21975386748737,166.50046259103874Q0,0,-83.33849017096226,194.38864693192457Z"/><path fill="rgb(202, 50, 74)" d="M-117.99673741422215,175.5249838615549A211.5,211.5,0,0,1,-119.83588702504937,174.27452533551656Q0,0,-114.08919226495911,148.79484604088006L-127.12271914553969,164.0001959664812L-115.6474862518002,147.58695377180086Q0,0,-117.99673741422215,175.5249838615549Z"/><path fill="rgb(67, 127, 180)" d="M-175.73966547189733,117.67676057669851A211.5,211.5,0,0,1,-176.96733943803594,115.8223241530879Q0,0,-163.40701939057672,91.94778960849295L-181.36959733072436,100.80336881320437L-164.3648309501864,90.22445536946537Q0,0,-175.73966547189733,117.67676057669851Z"/><path fill="rgb(67, 127, 180)" d="M-177.51042416130605,114.98825728774746A211.5,211.5,0,0,1,-178.70973018939497,113.11534969063062Q0,0,-129.20389037101054,-135.8771677398226L-142.1930653690201,-151.12042271301908L-127.76797717215851,-137.2282551420617Q0,0,-177.51042416130605,114.98825728774746Z"/><path fill="rgb(253, 190, 112)" d="M-171.6760736571319,-123.52965528030516A211.5,211.5,0,0,1,-170.36764840878465,-125.3280270955413Q0,0,-145.0840164693353,-118.77237963906273L-159.86635235587477,-132.28378352779032L-143.82708489548472,-120.29139474819898Q0,0,-171.6760736571319,-123.52965528030516Z"/><path fill="rgb(251, 248, 176)" d="M-135.91996692639438,-162.04324296535125A211.5,211.5,0,0,1,-134.20854197598115,-163.46350436926681Q0,0,-111.32172762041003,-150.87651560003377L-122.31647221428783,-167.61542478259975L-109.72908252019347,-152.03873996214443Q0,0,-135.91996692639438,-162.04324296535125Z"/></g><g><g id="Soviet Union" transform="rotate(-82.15098708313975) translate(222.5,0)"><text x="8" dy="0.35em" style="font-family: Arial, sans-serif; font-size: 10px; fill: black; font-weight: bold;">Soviet Union</text></g><g id="Aleksandr Pavlovich Aleksandrov" transform="rotate(-71.16964591603438) translate(222.5,0)"><text x="8" dy="0.35em" style="font-family: Arial, sans-serif; font-size: 10px; fill: black; font-weight: bold;">Aleksandr Pavlovich Aleksandrov</text></g><g id="Aleksei Gubarev" transform="rotate(-67.60126139263035) translate(222.5,0)"><text x="8" dy="0.35em" style="font-family: Arial, sans-serif; font-size: 10px; fill: black; font-weight: bold;">Aleksei Gubarev</text></g><g id="Anatolii Levchenko" transform="rotate(-64.03287686922631) translate(222.5,0)"><text x="8" dy="0.35em" style="font-family: Arial, sans-serif; font-size: 10px; fill: black; font-weight: bold;">Anatolii Levchenko</text></g><g id="Anatoly Artsebarsky" transform="rotate(-60.46449234582229) translate(222.5,0)"><text x="8" dy="0.35em" style="font-family: Arial, sans-serif; font-size: 10px; fill: black; font-weight: bold;">Anatoly Artsebarsky</text></g><g id="Anatoly Berezovoy" transform="rotate(-56.89610782241826) translate(222.5,0)"><text x="8" dy="0.35em" style="font-family: Arial, sans-serif; font-size: 10px; fill: black; font-weight: bold;">Anatoly Berezovoy</text></g><g id="Anatoly Filipchenko" transform="rotate(-53.32772329901423) translate(222.5,0)"><text x="8" dy="0.35em" style="font-family: Arial, sans-serif; font-size: 10px; fill: black; font-weight: bold;">Anatoly Filipchenko</text></g><g id="Kingdom of Denmark" transform="rotate(-49.7593387756102) translate(222.5,0)"><text x="8" dy="0.35em" style="font-family: Arial, sans-serif; font-size: 10px; fill: black; font-weight: bold;">Kingdom of Denmark</text></g><g id="Andreas Mogensen" transform="rotate(-46.190954252206176) translate(222.5,0)"><text x="8" dy="0.35em" style="font-family: Arial, sans-serif; font-size: 10px; fill: black; font-weight: bold;">Andreas Mogensen</text></g><g id="United States of America" transform="rotate(-26.052431348763776) translate(222.5,0)"><text x="8" dy="0.35em" style="font-family: Arial, sans-serif; font-size: 10px; fill: black; font-weight: bold;">United States of America</text></g><g id="Andrew J. Feustel" transform="rotate(-5.913908445321368) translate(222.5,0)"><text x="8" dy="0.35em" style="font-family: Arial, sans-serif; font-size: 10px; fill: black; font-weight: bold;">Andrew J. Feustel</text></g><g id="Andrew M. Allen" transform="rotate(-2.3455239219173194) translate(222.5,0)"><text x="8" dy="0.35em" style="font-family: Arial, sans-serif; font-size: 10px; fill: black; font-weight: bold;">Andrew M. Allen</text></g><g id="Australia" transform="rotate(1.6589168746456266) translate(222.5,0)"><text x="8" dy="0.35em" style="font-family: Arial, sans-serif; font-size: 10px; fill: black; font-weight: bold;">Australia</text></g><g id="Andy Thomas" transform="rotate(5.663357671208573) translate(222.5,0)"><text x="8" dy="0.35em" style="font-family: Arial, sans-serif; font-size: 10px; fill: black; font-weight: bold;">Andy Thomas</text></g><g id="Brewster H. Shaw" transform="rotate(9.231742194612622) translate(222.5,0)"><text x="8" dy="0.35em" style="font-family: Arial, sans-serif; font-size: 10px; fill: black; font-weight: bold;">Brewster H. Shaw</text></g><g id="C. Gordon Fullerton" transform="rotate(12.800126718016656) translate(222.5,0)"><text x="8" dy="0.35em" style="font-family: Arial, sans-serif; font-size: 10px; fill: black; font-weight: bold;">C. Gordon Fullerton</text></g><g id="Canada" transform="rotate(17.2406237877385) translate(222.5,0)"><text x="8" dy="0.35em" style="font-family: Arial, sans-serif; font-size: 10px; fill: black; font-weight: bold;">Canada</text></g><g id="Dafydd Williams" transform="rotate(21.68112085746037) translate(222.5,0)"><text x="8" dy="0.35em" style="font-family: Arial, sans-serif; font-size: 10px; fill: black; font-weight: bold;">Dafydd Williams</text></g><g id="David Wolf" transform="rotate(25.249505380864406) translate(222.5,0)"><text x="8" dy="0.35em" style="font-family: Arial, sans-serif; font-size: 10px; fill: black; font-weight: bold;">David Wolf</text></g><g id="Douglas H. Wheelock" transform="rotate(28.817889904268398) translate(222.5,0)"><text x="8" dy="0.35em" style="font-family: Arial, sans-serif; font-size: 10px; fill: black; font-weight: bold;">Douglas H. Wheelock</text></g><g id="Eric Boe" transform="rotate(32.38627442767245) translate(222.5,0)"><text x="8" dy="0.35em" style="font-family: Arial, sans-serif; font-size: 10px; fill: black; font-weight: bold;">Eric Boe</text></g><g id="Gennadi Sarafanov" transform="rotate(35.954658951076425) translate(222.5,0)"><text x="8" dy="0.35em" style="font-family: Arial, sans-serif; font-size: 10px; fill: black; font-weight: bold;">Gennadi Sarafanov</text></g><g id="George Nelson" transform="rotate(39.52304347448049) translate(222.5,0)"><text x="8" dy="0.35em" style="font-family: Arial, sans-serif; font-size: 10px; fill: black; font-weight: bold;">George Nelson</text></g><g id="Gregory Chamitoff" transform="rotate(43.091427997884466) translate(222.5,0)"><text x="8" dy="0.35em" style="font-family: Arial, sans-serif; font-size: 10px; fill: black; font-weight: bold;">Gregory Chamitoff</text></g><g id="Gregory H. Johnson" transform="rotate(46.6598125212885) translate(222.5,0)"><text x="8" dy="0.35em" style="font-family: Arial, sans-serif; font-size: 10px; fill: black; font-weight: bold;">Gregory H. Johnson</text></g><g id="Guion Bluford" transform="rotate(50.22819704469251) translate(222.5,0)"><text x="8" dy="0.35em" style="font-family: Arial, sans-serif; font-size: 10px; fill: black; font-weight: bold;">Guion Bluford</text></g><g id="Henry Hartsfield" transform="rotate(53.79658156809654) translate(222.5,0)"><text x="8" dy="0.35em" style="font-family: Arial, sans-serif; font-size: 10px; fill: black; font-weight: bold;">Henry Hartsfield</text></g><g id="Jake Garn" transform="rotate(57.36496609150052) translate(222.5,0)"><text x="8" dy="0.35em" style="font-family: Arial, sans-serif; font-size: 10px; fill: black; font-weight: bold;">Jake Garn</text></g><g id="James S. Voss" transform="rotate(60.933350614904555) translate(222.5,0)"><text x="8" dy="0.35em" style="font-family: Arial, sans-serif; font-size: 10px; fill: black; font-weight: bold;">James S. Voss</text></g><g id="People's Republic of China" transform="rotate(65.37384768462638) translate(222.5,0)"><text x="8" dy="0.35em" style="font-family: Arial, sans-serif; font-size: 10px; fill: black; font-weight: bold;">People's Republic of China</text></g><g id="Jing Haipeng" transform="rotate(69.81434475434818) translate(222.5,0)"><text x="8" dy="0.35em" style="font-family: Arial, sans-serif; font-size: 10px; fill: black; font-weight: bold;">Jing Haipeng</text></g><g id="John Danny Olivas" transform="rotate(73.38272927775219) translate(222.5,0)"><text x="8" dy="0.35em" style="font-family: Arial, sans-serif; font-size: 10px; fill: black; font-weight: bold;">John Danny Olivas</text></g><g id="John L. Finley" transform="rotate(76.95111380115623) translate(222.5,0)"><text x="8" dy="0.35em" style="font-family: Arial, sans-serif; font-size: 10px; fill: black; font-weight: bold;">John L. Finley</text></g><g id="John M. Lounge" transform="rotate(80.51949832456023) translate(222.5,0)"><text x="8" dy="0.35em" style="font-family: Arial, sans-serif; font-size: 10px; fill: black; font-weight: bold;">John M. Lounge</text></g><g id="Kathryn D. Sullivan" transform="rotate(84.08788284796427) translate(222.5,0)"><text x="8" dy="0.35em" style="font-family: Arial, sans-serif; font-size: 10px; fill: black; font-weight: bold;">Kathryn D. Sullivan</text></g><g id="Kenneth Cockrell" transform="rotate(87.65626737136824) translate(222.5,0)"><text x="8" dy="0.35em" style="font-family: Arial, sans-serif; font-size: 10px; fill: black; font-weight: bold;">Kenneth Cockrell</text></g><g id="South Korea" transform="rotate(91.22465189477228) translate(222.5,0)"><text x="8" dy="0.35em" transform="rotate(180) translate(-16)" text-anchor="end" style="font-family: Arial, sans-serif; font-size: 10px; fill: black; font-weight: bold;">South Korea</text></g><g id="Ko San" transform="rotate(94.79303641817629) translate(222.5,0)"><text x="8" dy="0.35em" transform="rotate(180) translate(-16)" text-anchor="end" style="font-family: Arial, sans-serif; font-size: 10px; fill: black; font-weight: bold;">Ko San</text></g><g id="Liu Wang" transform="rotate(98.36142094158032) translate(222.5,0)"><text x="8" dy="0.35em" transform="rotate(180) translate(-16)" text-anchor="end" style="font-family: Arial, sans-serif; font-size: 10px; fill: black; font-weight: bold;">Liu Wang</text></g><g id="Maksim Surayev" transform="rotate(101.9298054649843) translate(222.5,0)"><text x="8" dy="0.35em" transform="rotate(180) translate(-16)" text-anchor="end" style="font-family: Arial, sans-serif; font-size: 10px; fill: black; font-weight: bold;">Maksim Surayev</text></g><g id="Japan" transform="rotate(105.93424626154723) translate(222.5,0)"><text x="8" dy="0.35em" transform="rotate(180) translate(-16)" text-anchor="end" style="font-family: Arial, sans-serif; font-size: 10px; fill: black; font-weight: bold;">Japan</text></g><g id="Mamoru Mohri" transform="rotate(109.93868705811016) translate(222.5,0)"><text x="8" dy="0.35em" transform="rotate(180) translate(-16)" text-anchor="end" style="font-family: Arial, sans-serif; font-size: 10px; fill: black; font-weight: bold;">Mamoru Mohri</text></g><g id="Belgium" transform="rotate(113.50707158151417) translate(222.5,0)"><text x="8" dy="0.35em" transform="rotate(180) translate(-16)" text-anchor="end" style="font-family: Arial, sans-serif; font-size: 10px; fill: black; font-weight: bold;">Belgium</text></g><g id="Marianne Merchez" transform="rotate(117.0754561049182) translate(222.5,0)"><text x="8" dy="0.35em" transform="rotate(180) translate(-16)" text-anchor="end" style="font-family: Arial, sans-serif; font-size: 10px; fill: black; font-weight: bold;">Marianne Merchez</text></g><g id="Mark L. Polansky" transform="rotate(120.64384062832218) translate(222.5,0)"><text x="8" dy="0.35em" transform="rotate(180) translate(-16)" text-anchor="end" style="font-family: Arial, sans-serif; font-size: 10px; fill: black; font-weight: bold;">Mark L. Polansky</text></g><g id="Azerbaijan" transform="rotate(124.21222515172622) translate(222.5,0)"><text x="8" dy="0.35em" transform="rotate(180) translate(-16)" text-anchor="end" style="font-family: Arial, sans-serif; font-size: 10px; fill: black; font-weight: bold;">Azerbaijan</text></g><g id="Musa Manarov" transform="rotate(127.78060967513022) translate(222.5,0)"><text x="8" dy="0.35em" transform="rotate(180) translate(-16)" text-anchor="end" style="font-family: Arial, sans-serif; font-size: 10px; fill: black; font-weight: bold;">Musa Manarov</text></g><g id="Nie Haisheng" transform="rotate(131.34899419853426) translate(222.5,0)"><text x="8" dy="0.35em" transform="rotate(180) translate(-16)" text-anchor="end" style="font-family: Arial, sans-serif; font-size: 10px; fill: black; font-weight: bold;">Nie Haisheng</text></g><g id="Oleg Grigoryevich Makarov" transform="rotate(134.91737872193823) translate(222.5,0)"><text x="8" dy="0.35em" transform="rotate(180) translate(-16)" text-anchor="end" style="font-family: Arial, sans-serif; font-size: 10px; fill: black; font-weight: bold;">Oleg Grigoryevich Makarov</text></g><g id="Owen K. Garriott" transform="rotate(138.48576324534227) translate(222.5,0)"><text x="8" dy="0.35em" transform="rotate(180) translate(-16)" text-anchor="end" style="font-family: Arial, sans-serif; font-size: 10px; fill: black; font-weight: bold;">Owen K. Garriott</text></g><g id="Paul Scully-Power" transform="rotate(142.49020404190523) translate(222.5,0)"><text x="8" dy="0.35em" transform="rotate(180) translate(-16)" text-anchor="end" style="font-family: Arial, sans-serif; font-size: 10px; fill: black; font-weight: bold;">Paul Scully-Power</text></g><g id="United Kingdom" transform="rotate(146.93070111162712) translate(222.5,0)"><text x="8" dy="0.35em" transform="rotate(180) translate(-16)" text-anchor="end" style="font-family: Arial, sans-serif; font-size: 10px; fill: black; font-weight: bold;">United Kingdom</text></g><g id="Piers Sellers" transform="rotate(151.37119818134897) translate(222.5,0)"><text x="8" dy="0.35em" transform="rotate(180) translate(-16)" text-anchor="end" style="font-family: Arial, sans-serif; font-size: 10px; fill: black; font-weight: bold;">Piers Sellers</text></g><g id="Richard E. Lawyer" transform="rotate(155.37563897791193) translate(222.5,0)"><text x="8" dy="0.35em" transform="rotate(180) translate(-16)" text-anchor="end" style="font-family: Arial, sans-serif; font-size: 10px; fill: black; font-weight: bold;">Richard E. Lawyer</text></g><g id="Richard F. Gordon" transform="rotate(158.94402350131597) translate(222.5,0)"><text x="8" dy="0.35em" transform="rotate(180) translate(-16)" text-anchor="end" style="font-family: Arial, sans-serif; font-size: 10px; fill: black; font-weight: bold;">Richard F. Gordon</text></g><g id="Richard M. Linnehan" transform="rotate(162.51240802472) translate(222.5,0)"><text x="8" dy="0.35em" transform="rotate(180) translate(-16)" text-anchor="end" style="font-family: Arial, sans-serif; font-size: 10px; fill: black; font-weight: bold;">Richard M. Linnehan</text></g><g id="Richard R. Arnold" transform="rotate(166.080792548124) translate(222.5,0)"><text x="8" dy="0.35em" transform="rotate(180) translate(-16)" text-anchor="end" style="font-family: Arial, sans-serif; font-size: 10px; fill: black; font-weight: bold;">Richard R. Arnold</text></g><g id="Robert A. Parker" transform="rotate(169.64917707152813) translate(222.5,0)"><text x="8" dy="0.35em" transform="rotate(180) translate(-16)" text-anchor="end" style="font-family: Arial, sans-serif; font-size: 10px; fill: black; font-weight: bold;">Robert A. Parker</text></g><g id="Robert F. Overmyer" transform="rotate(173.21756159493214) translate(222.5,0)"><text x="8" dy="0.35em" transform="rotate(180) translate(-16)" text-anchor="end" style="font-family: Arial, sans-serif; font-size: 10px; fill: black; font-weight: bold;">Robert F. Overmyer</text></g><g id="Robert L. Behnken" transform="rotate(176.78594611833614) translate(222.5,0)"><text x="8" dy="0.35em" transform="rotate(180) translate(-16)" text-anchor="end" style="font-family: Arial, sans-serif; font-size: 10px; fill: black; font-weight: bold;">Robert L. Behnken</text></g><g id="Robert L. Gibson" transform="rotate(180.3543306417402) translate(222.5,0)"><text x="8" dy="0.35em" transform="rotate(180) translate(-16)" text-anchor="end" style="font-family: Arial, sans-serif; font-size: 10px; fill: black; font-weight: bold;">Robert L. Gibson</text></g><g id="Robert Thirsk" transform="rotate(183.92271516514427) translate(222.5,0)"><text x="8" dy="0.35em" transform="rotate(180) translate(-16)" text-anchor="end" style="font-family: Arial, sans-serif; font-size: 10px; fill: black; font-weight: bold;">Robert Thirsk</text></g><g id="Roman Romanenko" transform="rotate(187.49109968854827) translate(222.5,0)"><text x="8" dy="0.35em" transform="rotate(180) translate(-16)" text-anchor="end" style="font-family: Arial, sans-serif; font-size: 10px; fill: black; font-weight: bold;">Roman Romanenko</text></g><g id="Ronald J. Grabe" transform="rotate(191.05948421195234) translate(222.5,0)"><text x="8" dy="0.35em" transform="rotate(180) translate(-16)" text-anchor="end" style="font-family: Arial, sans-serif; font-size: 10px; fill: black; font-weight: bold;">Ronald J. Grabe</text></g><g id="Shane Kimbrough" transform="rotate(194.62786873535634) translate(222.5,0)"><text x="8" dy="0.35em" transform="rotate(180) translate(-16)" text-anchor="end" style="font-family: Arial, sans-serif; font-size: 10px; fill: black; font-weight: bold;">Shane Kimbrough</text></g><g id="Stephen Bowen" transform="rotate(198.1962532587604) translate(222.5,0)"><text x="8" dy="0.35em" transform="rotate(180) translate(-16)" text-anchor="end" style="font-family: Arial, sans-serif; font-size: 10px; fill: black; font-weight: bold;">Stephen Bowen</text></g><g id="Steve MacLean" transform="rotate(201.76463778216447) translate(222.5,0)"><text x="8" dy="0.35em" transform="rotate(180) translate(-16)" text-anchor="end" style="font-family: Arial, sans-serif; font-size: 10px; fill: black; font-weight: bold;">Steve MacLean</text></g><g id="Story Musgrave" transform="rotate(205.33302230556848) translate(222.5,0)"><text x="8" dy="0.35em" transform="rotate(180) translate(-16)" text-anchor="end" style="font-family: Arial, sans-serif; font-size: 10px; fill: black; font-weight: bold;">Story Musgrave</text></g><g id="Takao Doi" transform="rotate(208.90140682897254) translate(222.5,0)"><text x="8" dy="0.35em" transform="rotate(180) translate(-16)" text-anchor="end" style="font-family: Arial, sans-serif; font-size: 10px; fill: black; font-weight: bold;">Takao Doi</text></g><g id="Thomas Marshburn" transform="rotate(212.4697913523766) translate(222.5,0)"><text x="8" dy="0.35em" transform="rotate(180) translate(-16)" text-anchor="end" style="font-family: Arial, sans-serif; font-size: 10px; fill: black; font-weight: bold;">Thomas Marshburn</text></g><g id="France" transform="rotate(216.0381758757806) translate(222.5,0)"><text x="8" dy="0.35em" transform="rotate(180) translate(-16)" text-anchor="end" style="font-family: Arial, sans-serif; font-size: 10px; fill: black; font-weight: bold;">France</text></g><g id="Thomas Pesquet" transform="rotate(219.60656039918467) translate(222.5,0)"><text x="8" dy="0.35em" transform="rotate(180) translate(-16)" text-anchor="end" style="font-family: Arial, sans-serif; font-size: 10px; fill: black; font-weight: bold;">Thomas Pesquet</text></g><g id="Timothy Creamer" transform="rotate(223.17494492258868) translate(222.5,0)"><text x="8" dy="0.35em" transform="rotate(180) translate(-16)" text-anchor="end" style="font-family: Arial, sans-serif; font-size: 10px; fill: black; font-weight: bold;">Timothy Creamer</text></g><g id="Timothy Peake" transform="rotate(226.74332944599274) translate(222.5,0)"><text x="8" dy="0.35em" transform="rotate(180) translate(-16)" text-anchor="end" style="font-family: Arial, sans-serif; font-size: 10px; fill: black; font-weight: bold;">Timothy Peake</text></g><g id="Kazakhstan" transform="rotate(230.3117139693968) translate(222.5,0)"><text x="8" dy="0.35em" transform="rotate(180) translate(-16)" text-anchor="end" style="font-family: Arial, sans-serif; font-size: 10px; fill: black; font-weight: bold;">Kazakhstan</text></g><g id="Toktar Aubakirov" transform="rotate(234.3161547659597) translate(222.5,0)"><text x="8" dy="0.35em" transform="rotate(180) translate(-16)" text-anchor="end" style="font-family: Arial, sans-serif; font-size: 10px; fill: black; font-weight: bold;">Toktar Aubakirov</text></g><g id="Valery Ryumin" transform="rotate(238.32059556252267) translate(222.5,0)"><text x="8" dy="0.35em" transform="rotate(180) translate(-16)" text-anchor="end" style="font-family: Arial, sans-serif; font-size: 10px; fill: black; font-weight: bold;">Valery Ryumin</text></g><g id="Vance D. Brand" transform="rotate(241.88898008592673) translate(222.5,0)"><text x="8" dy="0.35em" transform="rotate(180) translate(-16)" text-anchor="end" style="font-family: Arial, sans-serif; font-size: 10px; fill: black; font-weight: bold;">Vance D. Brand</text></g><g id="Viktor Afanasyev" transform="rotate(245.45736460933074) translate(222.5,0)"><text x="8" dy="0.35em" transform="rotate(180) translate(-16)" text-anchor="end" style="font-family: Arial, sans-serif; font-size: 10px; fill: black; font-weight: bold;">Viktor Afanasyev</text></g><g id="Vladimir Aksyonov" transform="rotate(249.0257491327348) translate(222.5,0)"><text x="8" dy="0.35em" transform="rotate(180) translate(-16)" text-anchor="end" style="font-family: Arial, sans-serif; font-size: 10px; fill: black; font-weight: bold;">Vladimir Aksyonov</text></g><g id="Vladimir Dzhanibekov" transform="rotate(252.59413365613887) translate(222.5,0)"><text x="8" dy="0.35em" transform="rotate(180) translate(-16)" text-anchor="end" style="font-family: Arial, sans-serif; font-size: 10px; fill: black; font-weight: bold;">Vladimir Dzhanibekov</text></g><g id="Vladimir Titov" transform="rotate(256.16251817954293) translate(222.5,0)"><text x="8" dy="0.35em" transform="rotate(180) translate(-16)" text-anchor="end" style="font-family: Arial, sans-serif; font-size: 10px; fill: black; font-weight: bold;">Vladimir Titov</text></g><g id="William R. Pogue" transform="rotate(259.73090270294693) translate(222.5,0)"><text x="8" dy="0.35em" transform="rotate(180) translate(-16)" text-anchor="end" style="font-family: Arial, sans-serif; font-size: 10px; fill: black; font-weight: bold;">William R. Pogue</text></g><g id="Yuri Baturin" transform="rotate(263.299287226351) translate(222.5,0)"><text x="8" dy="0.35em" transform="rotate(180) translate(-16)" text-anchor="end" style="font-family: Arial, sans-serif; font-size: 10px; fill: black; font-weight: bold;">Yuri Baturin</text></g><g id="Yury Glazkov" transform="rotate(266.867671749755) translate(222.5,0)"><text x="8" dy="0.35em" transform="rotate(180) translate(-16)" text-anchor="end" style="font-family: Arial, sans-serif; font-size: 10px; fill: black; font-weight: bold;">Yury Glazkov</text></g></g></g></svg>