<svg xmlns="http://www.w3.org/2000/svg" width="900" height="1000"><rect width="900" height="1000" x="0" y="0" fill="#FFFFFF" id="background"/><g transform="translate(450,500)" id="viz"><g id="links"><path d="M0,0C-7.794401365033877,85.89708846847347,3.782141006641611,-86.16703493451472,7.564282013283222,-172.33406986902943" fill="none" stroke="#ccc"/><path d="M0,0C-7.794401365033877,85.89708846847347,11.707324492749189,-85.45174692902114,23.414648985498378,-170.90349385804228" fill="none" stroke="#ccc"/><path d="M0,0C-7.794401365033877,85.89708846847347,19.53285701078207,-84.0091066313429,39.06571402156414,-168.0182132626858" fill="none" stroke="#ccc"/><path d="M0,0C-7.794401365033877,85.89708846847347,27.19212881642122,-81.85139357659804,54.38425763284244,-163.70278715319608" fill="none" stroke="#ccc"/><path d="M0,0C-7.794401365033877,85.89708846847347,37.52012286789033,-77.66146328764617,75.04024573578066,-155.32292657529234" fill="none" stroke="#ccc"/><path d="M0,0C-7.794401365033877,85.89708846847347,49.86060882481063,-70.37742669080204,99.72121764962127,-140.75485338160408" fill="none" stroke="#ccc"/><path d="M0,0C-7.794401365033877,85.89708846847347,58.51972609573299,-63.36011488058072,117.03945219146598,-126.72022976116143" fill="none" stroke="#ccc"/><path d="M0,0C-7.794401365033877,85.89708846847347,63.84612291915243,-57.989094562619954,127.69224583830486,-115.97818912523991" fill="none" stroke="#ccc"/><path d="M0,0C-7.794401365033877,85.89708846847347,68.44269247996952,-52.48485825542757,136.88538495993905,-104.96971651085514" fill="none" stroke="#ccc"/><path d="M0,0C-7.794401365033877,85.89708846847347,72.56612847228318,-46.61780237789091,145.13225694456636,-93.23560475578182" fill="none" stroke="#ccc"/><path d="M0,0C-7.794401365033877,85.89708846847347,76.18792623160918,-40.428484964525644,152.37585246321837,-80.85696992905129" fill="none" stroke="#ccc"/><path d="M0,0C-7.794401365033877,85.89708846847347,79.28304883967068,-33.95969179315963,158.56609767934137,-67.91938358631926" fill="none" stroke="#ccc"/><path d="M0,0C-7.794401365033877,85.89708846847347,81.8301002006765,-27.256140613579994,163.660200401353,-54.51228122715999" fill="none" stroke="#ccc"/><path d="M0,0C-7.794401365033877,85.89708846847347,83.81147294916614,-20.364172020762144,167.6229458983323,-40.72834404152429" fill="none" stroke="#ccc"/><path d="M0,0C-7.794401365033877,85.89708846847347,85.213470166958,-13.33142910962506,170.426940333916,-26.66285821925012" fill="none" stroke="#ccc"/><path d="M0,0C-7.794401365033877,85.89708846847347,86.02640006779045,-6.2065281258093625,172.0528001355809,-12.413056251618725" fill="none" stroke="#ccc"/><path d="M0,0C-7.794401365033877,85.89708846847347,86.24464299511598,0.9612776107823567,172.48928599023196,1.9225552215647135" fill="none" stroke="#ccc"/><path d="M0,0C-7.794401365033877,85.89708846847347,85.86669026990306,8.122438186439712,171.73338053980612,16.244876372879425" fill="none" stroke="#ccc"/><path d="M0,0C-7.794401365033877,85.89708846847347,84.895154619897,15.227449624404631,169.790309239794,30.454899248809262" fill="none" stroke="#ccc"/><path d="M0,0C-7.794401365033877,85.89708846847347,83.33675211824395,22.227196098076863,166.6735042364879,44.45439219615373" fill="none" stroke="#ccc"/><path d="M0,0C-7.794401365033877,85.89708846847347,81.20225575633357,29.07328946099826,162.40451151266714,58.14657892199652" fill="none" stroke="#ccc"/><path d="M0,0C-7.794401365033877,85.89708846847347,78.50642097180392,35.71840374649891,157.01284194360784,71.43680749299781" fill="none" stroke="#ccc"/><path d="M0,0C-7.794401365033877,85.89708846847347,75.26788364652174,42.1166023246613,150.53576729304348,84.2332046493226" fill="none" stroke="#ccc"/><path d="M0,0C-7.794401365033877,85.89708846847347,71.50903127966224,48.22365545501801,143.01806255932448,96.44731091003602" fill="none" stroke="#ccc"/><path d="M0,0C-7.794401365033877,85.89708846847347,67.25584822644825,53.99734603979123,134.5116964528965,107.99469207958246" fill="none" stroke="#ccc"/><path d="M0,0C-7.794401365033877,85.89708846847347,62.53773607238955,59.39776146404969,125.0754721447791,118.79552292809937" fill="none" stroke="#ccc"/><path d="M0,0C-7.794401365033877,85.89708846847347,57.387310384746286,64.38756950533846,114.77462076949257,128.77513901067692" fill="none" stroke="#ccc"/><path d="M0,0C-7.794401365033877,85.89708846847347,51.84017524624246,68.93227640546097,103.68035049248492,137.86455281092194" fill="none" stroke="#ccc"/><path d="M0,0C-7.794401365033877,85.89708846847347,45.934677129641614,73.0004653204045,91.86935425928323,146.000930640809" fill="none" stroke="#ccc"/><path d="M0,0C-7.794401365033877,85.89708846847347,39.71163981461193,76.56401350004144,79.42327962922386,153.12802700008288" fill="none" stroke="#ccc"/><path d="M0,0C-7.794401365033877,85.89708846847347,33.214082179358044,79.5982866962779,66.42816435871609,159.1965733925558" fill="none" stroke="#ccc"/><path d="M0,0C-7.794401365033877,85.89708846847347,26.48692081788185,82.0823094557363,52.9738416357637,164.1646189114726" fill="none" stroke="#ccc"/><path d="M0,0C-7.794401365033877,85.89708846847347,19.57665953863284,83.99891011976557,39.15331907726568,167.99782023953114" fill="none" stroke="#ccc"/><path d="M0,0C-7.794401365033877,85.89708846847347,12.531067890994272,85.33483952941666,25.062135781988545,170.6696790588333" fill="none" stroke="#ccc"/><path d="M0,0C-7.794401365033877,85.89708846847347,5.398850941901351,86.08086261479453,10.797701883802702,172.16172522958905" fill="none" stroke="#ccc"/><path d="M0,0C-7.794401365033877,85.89708846847347,-1.7706874146261582,86.23182223564386,-3.5413748292523164,172.46364447128772" fill="none" stroke="#ccc"/><path d="M0,0C-7.794401365033877,85.89708846847347,-8.927985287548507,85.78667483184856,-17.855970575097015,171.57334966369712" fill="none" stroke="#ccc"/><path d="M0,0C-7.794401365033877,85.89708846847347,-16.02356540236436,84.74849763739857,-32.04713080472872,169.49699527479714" fill="none" stroke="#ccc"/><path d="M0,0C-7.794401365033877,85.89708846847347,-23.008377129726828,83.12446740795555,-46.016754259453656,166.2489348159111" fill="none" stroke="#ccc"/><path d="M0,0C-7.794401365033877,85.89708846847347,-29.834135564730232,80.92581080906943,-59.668271129460464,161.85162161813886" fill="none" stroke="#ccc"/><path d="M0,0C-7.794401365033877,85.89708846847347,-36.45365531286302,78.16772680800545,-72.90731062572604,156.3354536160109" fill="none" stroke="#ccc"/><path d="M0,0C-7.794401365033877,85.89708846847347,-42.82117667521903,74.86928160567375,-85.64235335043806,149.7385632113475" fill="none" stroke="#ccc"/><path d="M0,0C-7.794401365033877,85.89708846847347,-48.89268197809886,71.05327683498128,-97.78536395619771,142.10655366996255" fill="none" stroke="#ccc"/><path d="M0,0C-7.794401365033877,85.89708846847347,-54.62619986026501,66.74609193672977,-109.25239972053002,133.49218387345954" fill="none" stroke="#ccc"/><path d="M0,0C-7.794401365033877,85.89708846847347,-59.98209541436118,61.97750180269024,-119.96419082872237,123.95500360538048" fill="none" stroke="#ccc"/><path d="M0,0C-7.794401365033877,85.89708846847347,-64.9233441767926,56.780470946459495,-129.8466883535852,113.56094189291899" fill="none" stroke="#ccc"/><path d="M0,0C-7.794401365033877,85.89708846847347,-69.41578807202028,51.19092562496177,-138.83157614404055,102.38185124992354" fill="none" stroke="#ccc"/><path d="M0,0C-7.794401365033877,85.89708846847347,-73.42837154196435,45.24750548588551,-146.8567430839287,90.49501097177102" fill="none" stroke="#ccc"/><path d="M0,0C-7.794401365033877,85.89708846847347,-76.93335622819293,38.99129645787592,-153.86671245638587,77.98259291575184" fill="none" stroke="#ccc"/><path d="M0,0C-7.794401365033877,85.89708846847347,-79.90651272283124,32.46554672997219,-159.81302544566248,64.93109345994438" fill="none" stroke="#ccc"/><path d="M0,0C-7.794401365033877,85.89708846847347,-82.32728806264748,25.715367783678747,-164.65457612529497,51.430735567357495" fill="none" stroke="#ccc"/><path d="M0,0C-7.794401365033877,85.89708846847347,-84.178947808455,18.787422544388782,-168.35789561691,37.574845088777565" fill="none" stroke="#ccc"/><path d="M0,0C-7.794401365033877,85.89708846847347,-85.44869172765864,11.72960280791981,-170.89738345531728,23.45920561583962" fill="none" stroke="#ccc"/><path d="M0,0C-7.794401365033877,85.89708846847347,-86.1277422802492,4.590698172062081,-172.2554845604984,9.181396344124162" fill="none" stroke="#ccc"/><path d="M0,0C-7.794401365033877,85.89708846847347,-86.21140529655713,-2.579941238237866,-172.42281059311426,-5.159882476475732" fill="none" stroke="#ccc"/><path d="M0,0C-7.794401365033877,85.89708846847347,-85.69910242730916,-9.732745920528995,-171.3982048546183,-19.46549184105799" fill="none" stroke="#ccc"/><path d="M0,0C-7.794401365033877,85.89708846847347,-84.5943751416658,-16.81826966102981,-169.1887502833316,-33.63653932205962" fill="none" stroke="#ccc"/><path d="M0,0C-7.794401365033877,85.89708846847347,-82.90486024560211,-23.787531348527594,-165.80972049120422,-47.57506269705519" fill="none" stroke="#ccc"/><path d="M0,0C-7.794401365033877,85.89708846847347,-80.64223708986906,-30.59235357309645,-161.2844741797381,-61.1847071461929" fill="none" stroke="#ccc"/><path d="M0,0C-7.794401365033877,85.89708846847347,-77.82214683247875,-37.18569566895472,-155.6442936649575,-74.37139133790944" fill="none" stroke="#ccc"/><path d="M0,0C-7.794401365033877,85.89708846847347,-74.46408431383897,-43.52197889918932,-148.92816862767793,-87.04395779837864" fill="none" stroke="#ccc"/><path d="M0,0C-7.794401365033877,85.89708846847347,-70.59126329198779,-49.55740153439501,-141.18252658397557,-99.11480306879002" fill="none" stroke="#ccc"/><path d="M0,0C-7.794401365033877,85.89708846847347,-66.23045596953514,-55.25024164714094,-132.4609119390703,-110.50048329428188" fill="none" stroke="#ccc"/><path d="M0,0C-7.794401365033877,85.89708846847347,-61.411807921637,-60.56114552909285,-122.823615843274,-121.1222910581857" fill="none" stroke="#ccc"/><path d="M0,0C-7.794401365033877,85.89708846847347,-56.1686297043753,-65.4533997370096,-112.3372594087506,-130.9067994740192" fill="none" stroke="#ccc"/><path d="M0,0C-7.794401365033877,85.89708846847347,-50.537166584123426,-69.89318488700138,-101.07433316824685,-139.78636977400276" fill="none" stroke="#ccc"/><path d="M0,0C-7.794401365033877,85.89708846847347,-44.556347979719604,-73.84980944261223,-89.11269595943921,-147.69961888522445" fill="none" stroke="#ccc"/><path d="M0,0C-7.794401365033877,85.89708846847347,-38.26751834951787,-77.29592188058379,-76.53503669903574,-154.59184376116758" fill="none" stroke="#ccc"/><path d="M0,0C-7.794401365033877,85.89708846847347,-31.71415138364993,-80.20769976763413,-63.42830276729986,-160.41539953526825" fill="none" stroke="#ccc"/><path d="M0,0C-7.794401365033877,85.89708846847347,-24.941549477242486,-82.56501444119213,-49.88309895448497,-165.13002888238427" fill="none" stroke="#ccc"/><path d="M0,0C-7.794401365033877,85.89708846847347,-17.996530562085333,-84.35157015567599,-35.993061124170666,-168.70314031135197" fill="none" stroke="#ccc"/><path d="M0,0C-7.794401365033877,85.89708846847347,-10.92710446163206,-85.5550167324195,-21.85420892326412,-171.110033464839" fill="none" stroke="#ccc"/><path d="M0,0C-7.794401365033877,85.89708846847347,-3.782141006641641,-86.16703493451472,-7.564282013283282,-172.33406986902943" fill="none" stroke="#ccc"/><path d="M7.564282013283222,-172.33406986902943C11.346423019924833,-258.50110480354414,11.346423019924833,-258.50110480354414,15.128564026566444,-344.66813973805887" fill="none" stroke="#ccc"/><path d="M23.414648985498378,-170.90349385804228C35.12197347824757,-256.35524078706345,35.12197347824757,-256.35524078706345,46.829297970996755,-341.80698771608456" fill="none" stroke="#ccc"/><path d="M39.06571402156414,-168.0182132626858C58.59857103234621,-252.0273198940287,58.59857103234621,-252.0273198940287,78.13142804312828,-336.0364265253716" fill="none" stroke="#ccc"/><path d="M54.38425763284244,-163.70278715319608C81.57638644926367,-245.55418072979413,81.57638644926367,-245.55418072979413,108.76851526568488,-327.40557430639217" fill="none" stroke="#ccc"/><path d="M75.04024573578066,-155.32292657529234C112.560368603671,-232.98438986293849,102.77749292864458,-237.46231163555706,137.0366572381928,-316.6164155140761" fill="none" stroke="#ccc"/><path d="M75.04024573578066,-155.32292657529234C112.560368603671,-232.98438986293849,122.14863212845007,-228.10364786462443,162.86484283793342,-304.13819715283256" fill="none" stroke="#ccc"/><path d="M99.72121764962127,-140.75485338160408C149.5818264744319,-211.13228007240613,140.67537704578834,-217.1681394519585,187.56716939438445,-289.557519269278" fill="none" stroke="#ccc"/><path d="M99.72121764962127,-140.75485338160408C149.5818264744319,-211.13228007240613,158.2296552069171,-204.7313818472882,210.9728736092228,-272.9751757963843" fill="none" stroke="#ccc"/><path d="M117.03945219146598,-126.72022976116143C175.559178287199,-190.08034464174216,175.559178287199,-190.08034464174216,234.07890438293197,-253.44045952232287" fill="none" stroke="#ccc"/><path d="M127.69224583830486,-115.97818912523991C191.53836875745728,-173.96728368785986,191.53836875745728,-173.96728368785986,255.3844916766097,-231.95637825047982" fill="none" stroke="#ccc"/><path d="M136.88538495993905,-104.96971651085514C205.32807743990858,-157.45457476628272,205.32807743990858,-157.45457476628272,273.7707699198781,-209.93943302171027" fill="none" stroke="#ccc"/><path d="M145.13225694456636,-93.23560475578182C217.69838541684956,-139.85340713367273,217.69838541684956,-139.85340713367273,290.26451388913273,-186.47120951156364" fill="none" stroke="#ccc"/><path d="M152.37585246321837,-80.85696992905129C228.56377869482756,-121.28545489357694,228.56377869482756,-121.28545489357694,304.75170492643673,-161.71393985810258" fill="none" stroke="#ccc"/><path d="M158.56609767934137,-67.91938358631926C237.84914651901204,-101.87907537947888,237.84914651901204,-101.87907537947888,317.13219535868274,-135.8387671726385" fill="none" stroke="#ccc"/><path d="M163.660200401353,-54.51228122715999C245.4903006020295,-81.76842184073999,245.4903006020295,-81.76842184073999,327.320400802706,-109.02456245431998" fill="none" stroke="#ccc"/><path d="M167.6229458983323,-40.72834404152429C251.43441884749845,-61.092516062286435,251.43441884749845,-61.092516062286435,335.2458917966646,-81.45668808304858" fill="none" stroke="#ccc"/><path d="M170.426940333916,-26.66285821925012C255.64041050087403,-39.99428732887518,255.64041050087403,-39.99428732887518,340.853880667832,-53.32571643850024" fill="none" stroke="#ccc"/><path d="M172.0528001355809,-12.413056251618725C258.0792002033714,-18.61958437742809,258.0792002033714,-18.61958437742809,344.1056002711618,-24.82611250323745" fill="none" stroke="#ccc"/><path d="M172.48928599023196,1.9225552215647135C258.733928985348,2.8838328323470703,258.733928985348,2.8838328323470703,344.9785719804639,3.845110443129427" fill="none" stroke="#ccc"/><path d="M171.73338053980612,16.244876372879425C257.60007080970917,24.367314559319137,257.60007080970917,24.367314559319137,343.46676107961224,32.48975274575885" fill="none" stroke="#ccc"/><path d="M169.790309239794,30.454899248809262C254.68546385969103,45.6823488732139,254.68546385969103,45.6823488732139,339.580618479588,60.909798497618524" fill="none" stroke="#ccc"/><path d="M166.6735042364879,44.45439219615373C250.01025635473184,66.6815882942306,250.01025635473184,66.6815882942306,333.3470084729758,88.90878439230745" fill="none" stroke="#ccc"/><path d="M162.40451151266714,58.14657892199652C243.6067672690007,87.21986838299478,243.6067672690007,87.21986838299478,324.8090230253343,116.29315784399304" fill="none" stroke="#ccc"/><path d="M157.01284194360784,71.43680749299781C235.51926291541176,107.15521123949671,235.51926291541176,107.15521123949671,314.0256838872157,142.87361498599563" fill="none" stroke="#ccc"/><path d="M150.53576729304348,84.2332046493226C225.80365093956524,126.34980697398389,225.80365093956524,126.34980697398389,301.07153458608695,168.4664092986452" fill="none" stroke="#ccc"/><path d="M143.01806255932448,96.44731091003602C214.5270938389867,144.67096636505403,214.5270938389867,144.67096636505403,286.03612511864895,192.89462182007205" fill="none" stroke="#ccc"/><path d="M134.5116964528965,107.99469207958246C201.76754467934475,161.99203811937372,201.76754467934475,161.99203811937372,269.023392905793,215.98938415916493" fill="none" stroke="#ccc"/><path d="M125.0754721447791,118.79552292809937C187.61320821716865,178.19328439214905,187.61320821716865,178.19328439214905,250.1509442895582,237.59104585619875" fill="none" stroke="#ccc"/><path d="M114.77462076949257,128.77513901067692C172.16193115423886,193.16270851601536,172.16193115423886,193.16270851601536,229.54924153898514,257.55027802135385" fill="none" stroke="#ccc"/><path d="M103.68035049248492,137.86455281092194C155.52052573872737,206.7968292163829,155.52052573872737,206.7968292163829,207.36070098496984,275.72910562184387" fill="none" stroke="#ccc"/><path d="M91.86935425928323,146.000930640809C137.80403138892484,219.0013959612135,137.80403138892484,219.0013959612135,183.73870851856645,292.001861281618" fill="none" stroke="#ccc"/><path d="M79.42327962922386,153.12802700008288C119.13491944383578,229.69204050012434,119.13491944383578,229.69204050012434,158.8465592584477,306.25605400016576" fill="none" stroke="#ccc"/><path d="M66.42816435871609,159.1965733925558C99.64224653807413,238.7948600888337,99.64224653807413,238.7948600888337,132.85632871743218,318.3931467851116" fill="none" stroke="#ccc"/><path d="M52.9738416357637,164.1646189114726C79.46076245364554,246.24692836720888,79.46076245364554,246.24692836720888,105.9476832715274,328.3292378229452" fill="none" stroke="#ccc"/><path d="M39.15331907726568,167.99782023953114C58.729978615898524,251.99673035929672,58.729978615898524,251.99673035929672,78.30663815453136,335.9956404790623" fill="none" stroke="#ccc"/><path d="M25.062135781988545,170.6696790588333C37.59320367298282,256.00451858825,37.59320367298282,256.00451858825,50.12427156397709,341.3393581176666" fill="none" stroke="#ccc"/><path d="M10.797701883802702,172.16172522958905C16.196552825704053,258.2425878443836,16.196552825704053,258.2425878443836,21.595403767605404,344.3234504591781" fill="none" stroke="#ccc"/><path d="M-3.5413748292523164,172.46364447128772C-5.312062243878475,258.6954667069316,-5.312062243878475,258.6954667069316,-7.082749658504633,344.92728894257544" fill="none" stroke="#ccc"/><path d="M-17.855970575097015,171.57334966369712C-26.783955862645524,257.36002449554564,-26.783955862645524,257.36002449554564,-35.71194115019403,343.14669932739423" fill="none" stroke="#ccc"/><path d="M-32.04713080472872,169.49699527479714C-48.07069620709308,254.24549291219572,-48.07069620709308,254.24549291219572,-64.09426160945743,338.9939905495943" fill="none" stroke="#ccc"/><path d="M-46.016754259453656,166.2489348159111C-69.02513138918049,249.37340222386663,-69.02513138918049,249.37340222386663,-92.03350851890731,332.4978696318222" fill="none" stroke="#ccc"/><path d="M-59.668271129460464,161.85162161813886C-89.5024066941907,242.77743242720828,-89.5024066941907,242.77743242720828,-119.33654225892093,323.70324323627773" fill="none" stroke="#ccc"/><path d="M-72.90731062572604,156.3354536160109C-109.36096593858906,234.50318042401634,-109.36096593858906,234.50318042401634,-145.81462125145208,312.6709072320218" fill="none" stroke="#ccc"/><path d="M-85.64235335043806,149.7385632113475C-128.46353002565706,224.60784481702126,-128.46353002565706,224.60784481702126,-171.28470670087611,299.477126422695" fill="none" stroke="#ccc"/><path d="M-97.78536395619771,142.10655366996255C-146.67804593429656,213.15983050494384,-146.67804593429656,213.15983050494384,-195.57072791239543,284.2131073399251" fill="none" stroke="#ccc"/><path d="M-109.25239972053002,133.49218387345954C-163.87859958079503,200.2382758101893,-163.87859958079503,200.2382758101893,-218.50479944106004,266.9843677469191" fill="none" stroke="#ccc"/><path d="M-119.96419082872237,123.95500360538048C-179.94628624308353,185.9325054080707,-179.94628624308353,185.9325054080707,-239.92838165744473,247.91000721076097" fill="none" stroke="#ccc"/><path d="M-129.8466883535852,113.56094189291899C-194.7700325303778,170.34141283937848,-194.7700325303778,170.34141283937848,-259.6933767071704,227.12188378583798" fill="none" stroke="#ccc"/><path d="M-138.83157614404055,102.38185124992354C-208.24736421606084,153.5727768748853,-208.24736421606084,153.5727768748853,-277.6631522880811,204.76370249984708" fill="none" stroke="#ccc"/><path d="M-146.8567430839287,90.49501097177102C-220.28511462589304,135.74251645765654,-220.28511462589304,135.74251645765654,-293.7134861678574,180.99002194354205" fill="none" stroke="#ccc"/><path d="M-153.86671245638587,77.98259291575184C-230.8000686845788,116.97388937362776,-230.8000686845788,116.97388937362776,-307.73342491277174,155.96518583150367" fill="none" stroke="#ccc"/><path d="M-159.81302544566248,64.93109345994438C-239.71953816849373,97.39664018991657,-239.71953816849373,97.39664018991657,-319.62605089132495,129.86218691988876" fill="none" stroke="#ccc"/><path d="M-164.65457612529497,51.430735567357495C-246.98186418794242,77.14610335103625,-246.98186418794242,77.14610335103625,-329.30915225058993,102.86147113471499" fill="none" stroke="#ccc"/><path d="M-168.35789561691,37.574845088777565C-252.53684342536505,56.36226763316635,-252.53684342536505,56.36226763316635,-336.71579123382,75.14969017755513" fill="none" stroke="#ccc"/><path d="M-170.89738345531728,23.45920561583962C-256.34607518297594,35.188808423759426,-256.34607518297594,35.188808423759426,-341.79476691063456,46.91841123167924" fill="none" stroke="#ccc"/><path d="M-172.2554845604984,9.181396344124162C-258.38322684074757,13.772094516186241,-258.38322684074757,13.772094516186241,-344.5109691209968,18.362792688248323" fill="none" stroke="#ccc"/><path d="M-172.42281059311426,-5.159882476475732C-258.6342158896714,-7.739823714713599,-258.6342158896714,-7.739823714713599,-344.8456211862285,-10.319764952951465" fill="none" stroke="#ccc"/><path d="M-171.3982048546183,-19.46549184105799C-257.0973072819275,-29.198237761586984,-257.0973072819275,-29.198237761586984,-342.7964097092366,-38.93098368211598" fill="none" stroke="#ccc"/><path d="M-169.1887502833316,-33.63653932205962C-253.7831254249974,-50.45480898308943,-253.7831254249974,-50.45480898308943,-338.3775005666632,-67.27307864411924" fill="none" stroke="#ccc"/><path d="M-165.80972049120422,-47.57506269705519C-248.71458073680634,-71.36259404558278,-248.71458073680634,-71.36259404558278,-331.61944098240843,-95.15012539411038" fill="none" stroke="#ccc"/><path d="M-161.2844741797381,-61.1847071461929C-241.92671126960718,-91.77706071928935,-241.92671126960718,-91.77706071928935,-322.5689483594762,-122.3694142923858" fill="none" stroke="#ccc"/><path d="M-155.6442936649575,-74.37139133790944C-233.46644049743622,-111.55708700686418,-233.46644049743622,-111.55708700686418,-311.288587329915,-148.7427826758189" fill="none" stroke="#ccc"/><path d="M-148.92816862767793,-87.04395779837864C-223.39225294151692,-130.56593669756796,-223.39225294151692,-130.56593669756796,-297.85633725535587,-174.08791559675728" fill="none" stroke="#ccc"/><path d="M-141.18252658397557,-99.11480306879002C-211.77378987596336,-148.67220460318504,-211.77378987596336,-148.67220460318504,-282.36505316795115,-198.22960613758005" fill="none" stroke="#ccc"/><path d="M-132.4609119390703,-110.50048329428188C-198.69136790860543,-165.75072494142282,-198.69136790860543,-165.75072494142282,-264.9218238781406,-221.00096658856376" fill="none" stroke="#ccc"/><path d="M-122.823615843274,-121.1222910581857C-184.235423764911,-181.68343658727855,-184.235423764911,-181.68343658727855,-245.647231686548,-242.2445821163714" fill="none" stroke="#ccc"/><path d="M-112.3372594087506,-130.9067994740192C-168.5058891131259,-196.3601992110288,-168.5058891131259,-196.3601992110288,-224.6745188175012,-261.8135989480384" fill="none" stroke="#ccc"/><path d="M-101.07433316824685,-139.78636977400276C-151.6114997523703,-209.67955466100415,-151.6114997523703,-209.67955466100415,-202.1486663364937,-279.57273954800553" fill="none" stroke="#ccc"/><path d="M-89.11269595943921,-147.69961888522445C-133.6690439391588,-221.54942832783667,-133.6690439391588,-221.54942832783667,-178.22539191887842,-295.3992377704489" fill="none" stroke="#ccc"/><path d="M-76.53503669903574,-154.59184376116758C-114.80255504855361,-231.8877656417514,-114.80255504855361,-231.8877656417514,-153.0700733980715,-309.18368752233516" fill="none" stroke="#ccc"/><path d="M-63.42830276729986,-160.41539953526825C-95.14245415094979,-240.62309930290238,-95.14245415094979,-240.62309930290238,-126.85660553459972,-320.8307990705365" fill="none" stroke="#ccc"/><path d="M-49.88309895448497,-165.13002888238427C-74.82464843172745,-247.6950433235764,-74.82464843172745,-247.6950433235764,-99.76619790896994,-330.26005776476853" fill="none" stroke="#ccc"/><path d="M-35.993061124170666,-168.70314031135197C-53.98959168625599,-253.05471046702797,-53.98959168625599,-253.05471046702797,-71.98612224834133,-337.40628062270395" fill="none" stroke="#ccc"/><path d="M-21.85420892326412,-171.110033464839C-32.78131338489618,-256.6650501972585,-32.78131338489618,-256.6650501972585,-43.70841784652824,-342.220066929678" fill="none" stroke="#ccc"/><path d="M-7.564282013283282,-172.33406986902943C-11.346423019924924,-258.50110480354414,-11.346423019924924,-258.50110480354414,-15.128564026566565,-344.66813973805887" fill="none" stroke="#ccc"/></g><g><circle transform="&#10;&#9;        rotate(95.18488584259177)&#10;&#9;        translate(0,0)&#10;&#9;      " fill="#ccc" r="5"/><circle transform="&#10;&#9;        rotate(-87.48672201252495)&#10;&#9;        translate(172.5,0)&#10;&#9;      " fill="rgb(158, 1, 66)" r="5"/><circle transform="&#10;&#9;        rotate(-82.19875529724784)&#10;&#9;        translate(172.5,0)&#10;&#9;      " fill="rgb(158, 1, 66)" r="5"/><circle transform="&#10;&#9;        rotate(-76.91078858197072)&#10;&#9;        translate(172.5,0)&#10;&#9;      " fill="rgb(198, 47, 74)" r="5"/><circle transform="&#10;&#9;        rotate(-71.62282186669361)&#10;&#9;        translate(172.5,0)&#10;&#9;      " fill="rgb(254, 241, 168)" r="5"/><circle transform="&#10;&#9;        rotate(-64.21369327443199)&#10;&#9;        translate(172.5,0)&#10;&#9;      " fill="rgb(124, 201, 166)" r="5"/><circle transform="&#10;&#9;        rotate(-54.683402805185864)&#10;&#9;        translate(172.5,0)&#10;&#9;      " fill="rgb(124, 201, 166)" r="5"/><circle transform="&#10;&#9;        rotate(-47.27427421292426)&#10;&#9;        translate(172.5,0)&#10;&#9;      " fill="rgb(67, 123, 179)" r="5"/><circle transform="&#10;&#9;        rotate(-42.24771823797417)&#10;&#9;        translate(172.5,0)&#10;&#9;      " fill="rgb(229, 88, 73)" r="5"/><circle transform="&#10;&#9;        rotate(-37.48257300335111)&#10;&#9;        translate(172.5,0)&#10;&#9;      " fill="rgb(246, 130, 79)" r="5"/><circle transform="&#10;&#9;        rotate(-32.71742776872805)&#10;&#9;        translate(172.5,0)&#10;&#9;      " fill="rgb(246, 130, 79)" r="5"/><circle transform="&#10;&#9;        rotate(-27.95228253410498)&#10;&#9;        translate(172.5,0)&#10;&#9;      " fill="rgb(246, 130, 79)" r="5"/><circle transform="&#10;&#9;        rotate(-23.187137299481932)&#10;&#9;        translate(172.5,0)&#10;&#9;      " fill="rgb(252, 176, 102)" r="5"/><circle transform="&#10;&#9;        rotate(-18.42199206485887)&#10;&#9;        translate(172.5,0)&#10;&#9;      " fill="rgb(254, 214, 134)" r="5"/><circle transform="&#10;&#9;        rotate(-13.656846830235821)&#10;&#9;        translate(172.5,0)&#10;&#9;      " fill="rgb(254, 214, 134)" r="5"/><circle transform="&#10;&#9;        rotate(-8.891701595612773)&#10;&#9;        translate(172.5,0)&#10;&#9;      " fill="rgb(244, 249, 173)" r="5"/><circle transform="&#10;&#9;        rotate(-4.126556360989696)&#10;&#9;        translate(172.5,0)&#10;&#9;      " fill="rgb(217, 240, 159)" r="5"/><circle transform="&#10;&#9;        rotate(0.6385888736333385)&#10;&#9;        translate(172.5,0)&#10;&#9;      " fill="rgb(217, 240, 159)" r="5"/><circle transform="&#10;&#9;        rotate(5.403734108256387)&#10;&#9;        translate(172.5,0)&#10;&#9;      " fill="rgb(217, 240, 159)" r="5"/><circle transform="&#10;&#9;        rotate(10.168879342879436)&#10;&#9;        translate(172.5,0)&#10;&#9;      " fill="rgb(174, 222, 162)" r="5"/><circle transform="&#10;&#9;        rotate(14.934024577502498)&#10;&#9;        translate(172.5,0)&#10;&#9;      " fill="rgb(124, 201, 166)" r="5"/><circle transform="&#10;&#9;        rotate(19.699169812125547)&#10;&#9;        translate(172.5,0)&#10;&#9;      " fill="rgb(124, 201, 166)" r="5"/><circle transform="&#10;&#9;        rotate(24.46431504674861)&#10;&#9;        translate(172.5,0)&#10;&#9;      " fill="rgb(124, 201, 166)" r="5"/><circle transform="&#10;&#9;        rotate(29.229460281371658)&#10;&#9;        translate(172.5,0)&#10;&#9;      " fill="rgb(124, 201, 166)" r="5"/><circle transform="&#10;&#9;        rotate(33.99460551599471)&#10;&#9;        translate(172.5,0)&#10;&#9;      " fill="rgb(124, 201, 166)" r="5"/><circle transform="&#10;&#9;        rotate(38.7597507506178)&#10;&#9;        translate(172.5,0)&#10;&#9;      " fill="rgb(124, 201, 166)" r="5"/><circle transform="&#10;&#9;        rotate(43.524895985240846)&#10;&#9;        translate(172.5,0)&#10;&#9;      " fill="rgb(124, 201, 166)" r="5"/><circle transform="&#10;&#9;        rotate(48.29004121986392)&#10;&#9;        translate(172.5,0)&#10;&#9;      " fill="rgb(124, 201, 166)" r="5"/><circle transform="&#10;&#9;        rotate(53.05518645448697)&#10;&#9;        translate(172.5,0)&#10;&#9;      " fill="rgb(124, 201, 166)" r="5"/><circle transform="&#10;&#9;        rotate(57.82033168911005)&#10;&#9;        translate(172.5,0)&#10;&#9;      " fill="rgb(124, 201, 166)" r="5"/><circle transform="&#10;&#9;        rotate(62.585476923733125)&#10;&#9;        translate(172.5,0)&#10;&#9;      " fill="rgb(124, 201, 166)" r="5"/><circle transform="&#10;&#9;        rotate(67.35062215835617)&#10;&#9;        translate(172.5,0)&#10;&#9;      " fill="rgb(124, 201, 166)" r="5"/><circle transform="&#10;&#9;        rotate(72.11576739297925)&#10;&#9;        translate(172.5,0)&#10;&#9;      " fill="rgb(124, 201, 166)" r="5"/><circle transform="&#10;&#9;        rotate(76.88091262760233)&#10;&#9;        translate(172.5,0)&#10;&#9;      " fill="rgb(124, 201, 166)" r="5"/><circle transform="&#10;&#9;        rotate(81.64605786222538)&#10;&#9;        translate(172.5,0)&#10;&#9;      " fill="rgb(124, 201, 166)" r="5"/><circle transform="&#10;&#9;        rotate(86.41120309684845)&#10;&#9;        translate(172.5,0)&#10;&#9;      " fill="rgb(124, 201, 166)" r="5"/><circle transform="&#10;&#9;        rotate(91.17634833147156)&#10;&#9;        translate(172.5,0)&#10;&#9;      " fill="rgb(80, 166, 176)" r="5"/><circle transform="&#10;&#9;        rotate(95.94149356609455)&#10;&#9;        translate(172.5,0)&#10;&#9;      " fill="rgb(94, 79, 162)" r="5"/><circle transform="&#10;&#9;        rotate(100.70663880071766)&#10;&#9;        translate(172.5,0)&#10;&#9;      " fill="rgb(94, 79, 162)" r="5"/><circle transform="&#10;&#9;        rotate(105.47178403534073)&#10;&#9;        translate(172.5,0)&#10;&#9;      " fill="rgb(94, 79, 162)" r="5"/><circle transform="&#10;&#9;        rotate(110.23692926996381)&#10;&#9;        translate(172.5,0)&#10;&#9;      " fill="rgb(94, 79, 162)" r="5"/><circle transform="&#10;&#9;        rotate(115.00207450458686)&#10;&#9;        translate(172.5,0)&#10;&#9;      " fill="rgb(94, 79, 162)" r="5"/><circle transform="&#10;&#9;        rotate(119.76721973920993)&#10;&#9;        translate(172.5,0)&#10;&#9;      " fill="rgb(94, 79, 162)" r="5"/><circle transform="&#10;&#9;        rotate(124.53236497383301)&#10;&#9;        translate(172.5,0)&#10;&#9;      " fill="rgb(94, 79, 162)" r="5"/><circle transform="&#10;&#9;        rotate(129.29751020845603)&#10;&#9;        translate(172.5,0)&#10;&#9;      " fill="rgb(94, 79, 162)" r="5"/><circle transform="&#10;&#9;        rotate(134.06265544307914)&#10;&#9;        translate(172.5,0)&#10;&#9;      " fill="rgb(94, 79, 162)" r="5"/><circle transform="&#10;&#9;        rotate(138.82780067770216)&#10;&#9;        translate(172.5,0)&#10;&#9;      " fill="rgb(94, 79, 162)" r="5"/><circle transform="&#10;&#9;        rotate(143.59294591232523)&#10;&#9;        translate(172.5,0)&#10;&#9;      " fill="rgb(94, 79, 162)" r="5"/><circle transform="&#10;&#9;        rotate(148.35809114694834)&#10;&#9;        translate(172.5,0)&#10;&#9;      " fill="rgb(94, 79, 162)" r="5"/><circle transform="&#10;&#9;        rotate(153.12323638157142)&#10;&#9;        translate(172.5,0)&#10;&#9;      " fill="rgb(94, 79, 162)" r="5"/><circle transform="&#10;&#9;        rotate(157.8883816161945)&#10;&#9;        translate(172.5,0)&#10;&#9;      " fill="rgb(94, 79, 162)" r="5"/><circle transform="&#10;&#9;        rotate(162.6535268508176)&#10;&#9;        translate(172.5,0)&#10;&#9;      " fill="rgb(94, 79, 162)" r="5"/><circle transform="&#10;&#9;        rotate(167.41867208544062)&#10;&#9;        translate(172.5,0)&#10;&#9;      " fill="rgb(94, 79, 162)" r="5"/><circle transform="&#10;&#9;        rotate(172.18381732006367)&#10;&#9;        translate(172.5,0)&#10;&#9;      " fill="rgb(94, 79, 162)" r="5"/><circle transform="&#10;&#9;        rotate(176.94896255468672)&#10;&#9;        translate(172.5,0)&#10;&#9;      " fill="rgb(94, 79, 162)" r="5"/><circle transform="&#10;&#9;        rotate(181.71410778930976)&#10;&#9;        translate(172.5,0)&#10;&#9;      " fill="rgb(94, 79, 162)" r="5"/><circle transform="&#10;&#9;        rotate(186.4792530239328)&#10;&#9;        translate(172.5,0)&#10;&#9;      " fill="rgb(94, 79, 162)" r="5"/><circle transform="&#10;&#9;        rotate(191.24439825855586)&#10;&#9;        translate(172.5,0)&#10;&#9;      " fill="rgb(94, 79, 162)" r="5"/><circle transform="&#10;&#9;        rotate(196.00954349317897)&#10;&#9;        translate(172.5,0)&#10;&#9;      " fill="rgb(94, 79, 162)" r="5"/><circle transform="&#10;&#9;        rotate(200.77468872780207)&#10;&#9;        translate(172.5,0)&#10;&#9;      " fill="rgb(94, 79, 162)" r="5"/><circle transform="&#10;&#9;        rotate(205.53983396242506)&#10;&#9;        translate(172.5,0)&#10;&#9;      " fill="rgb(94, 79, 162)" r="5"/><circle transform="&#10;&#9;        rotate(210.30497919704817)&#10;&#9;        translate(172.5,0)&#10;&#9;      " fill="rgb(94, 79, 162)" r="5"/><circle transform="&#10;&#9;        rotate(215.07012443167122)&#10;&#9;        translate(172.5,0)&#10;&#9;      " fill="rgb(94, 79, 162)" r="5"/><circle transform="&#10;&#9;        rotate(219.83526966629432)&#10;&#9;        translate(172.5,0)&#10;&#9;      " fill="rgb(94, 79, 162)" r="5"/><circle transform="&#10;&#9;        rotate(224.60041490091731)&#10;&#9;        translate(172.5,0)&#10;&#9;      " fill="rgb(94, 79, 162)" r="5"/><circle transform="&#10;&#9;        rotate(229.36556013554048)&#10;&#9;        translate(172.5,0)&#10;&#9;      " fill="rgb(94, 79, 162)" r="5"/><circle transform="&#10;&#9;        rotate(234.13070537016353)&#10;&#9;        translate(172.5,0)&#10;&#9;      " fill="rgb(94, 79, 162)" r="5"/><circle transform="&#10;&#9;        rotate(238.89585060478663)&#10;&#9;        translate(172.5,0)&#10;&#9;      " fill="rgb(94, 79, 162)" r="5"/><circle transform="&#10;&#9;        rotate(243.66099583940962)&#10;&#9;        translate(172.5,0)&#10;&#9;      " fill="rgb(94, 79, 162)" r="5"/><circle transform="&#10;&#9;        rotate(248.42614107403267)&#10;&#9;        translate(172.5,0)&#10;&#9;      " fill="rgb(94, 79, 162)" r="5"/><circle transform="&#10;&#9;        rotate(253.19128630865578)&#10;&#9;        translate(172.5,0)&#10;&#9;      " fill="rgb(94, 79, 162)" r="5"/><circle transform="&#10;&#9;        rotate(257.9564315432788)&#10;&#9;        translate(172.5,0)&#10;&#9;      " fill="rgb(94, 79, 162)" r="5"/><circle transform="&#10;&#9;        rotate(262.72157677790193)&#10;&#9;        translate(172.5,0)&#10;&#9;      " fill="rgb(94, 79, 162)" r="5"/><circle transform="&#10;&#9;        rotate(267.4867220125249)&#10;&#9;        translate(172.5,0)&#10;&#9;      " fill="rgb(94, 79, 162)" r="5"/><circle transform="&#10;&#9;        rotate(-87.48672201252495)&#10;&#9;        translate(345,0)&#10;&#9;      " fill="rgb(158, 1, 66)" r="7"/><circle transform="&#10;&#9;        rotate(-82.19875529724784)&#10;&#9;        translate(345,0)&#10;&#9;      " fill="rgb(158, 1, 66)" r="7"/><circle transform="&#10;&#9;        rotate(-76.91078858197072)&#10;&#9;        translate(345,0)&#10;&#9;      " fill="rgb(198, 47, 74)" r="7"/><circle transform="&#10;&#9;        rotate(-71.62282186669361)&#10;&#9;        translate(345,0)&#10;&#9;      " fill="rgb(254, 241, 168)" r="7"/><circle transform="&#10;&#9;        rotate(-66.59626589174351)&#10;&#9;        translate(345,0)&#10;&#9;      " fill="rgb(124, 201, 166)" r="4.949747468305832"/><circle transform="&#10;&#9;        rotate(-61.831120657120465)&#10;&#9;        translate(345,0)&#10;&#9;      " fill="rgb(124, 201, 166)" r="4.949747468305832"/><circle transform="&#10;&#9;        rotate(-57.065975422497395)&#10;&#9;        translate(345,0)&#10;&#9;      " fill="rgb(124, 201, 166)" r="4.949747468305832"/><circle transform="&#10;&#9;        rotate(-52.30083018787434)&#10;&#9;        translate(345,0)&#10;&#9;      " fill="rgb(124, 201, 166)" r="4.949747468305832"/><circle transform="&#10;&#9;        rotate(-47.27427421292426)&#10;&#9;        translate(345,0)&#10;&#9;      " fill="rgb(67, 123, 179)" r="7"/><circle transform="&#10;&#9;        rotate(-42.24771823797417)&#10;&#9;        translate(345,0)&#10;&#9;      " fill="rgb(229, 88, 73)" r="4.949747468305832"/><circle transform="&#10;&#9;        rotate(-37.48257300335111)&#10;&#9;        translate(345,0)&#10;&#9;      " fill="rgb(246, 130, 79)" r="4.949747468305832"/><circle transform="&#10;&#9;        rotate(-32.71742776872805)&#10;&#9;        translate(345,0)&#10;&#9;      " fill="rgb(246, 130, 79)" r="4.949747468305832"/><circle transform="&#10;&#9;        rotate(-27.95228253410498)&#10;&#9;        translate(345,0)&#10;&#9;      " fill="rgb(246, 130, 79)" r="4.949747468305832"/><circle transform="&#10;&#9;        rotate(-23.187137299481932)&#10;&#9;        translate(345,0)&#10;&#9;      " fill="rgb(252, 176, 102)" r="4.949747468305832"/><circle transform="&#10;&#9;        rotate(-18.42199206485887)&#10;&#9;        translate(345,0)&#10;&#9;      " fill="rgb(254, 214, 134)" r="4.949747468305832"/><circle transform="&#10;&#9;        rotate(-13.656846830235821)&#10;&#9;        translate(345,0)&#10;&#9;      " fill="rgb(254, 214, 134)" r="4.949747468305832"/><circle transform="&#10;&#9;        rotate(-8.891701595612773)&#10;&#9;        translate(345,0)&#10;&#9;      " fill="rgb(244, 249, 173)" r="4.949747468305832"/><circle transform="&#10;&#9;        rotate(-4.126556360989696)&#10;&#9;        translate(345,0)&#10;&#9;      " fill="rgb(217, 240, 159)" r="4.949747468305832"/><circle transform="&#10;&#9;        rotate(0.6385888736333385)&#10;&#9;        translate(345,0)&#10;&#9;      " fill="rgb(217, 240, 159)" r="4.949747468305832"/><circle transform="&#10;&#9;        rotate(5.403734108256387)&#10;&#9;        translate(345,0)&#10;&#9;      " fill="rgb(217, 240, 159)" r="4.949747468305832"/><circle transform="&#10;&#9;        rotate(10.168879342879436)&#10;&#9;        translate(345,0)&#10;&#9;      " fill="rgb(174, 222, 162)" r="4.949747468305832"/><circle transform="&#10;&#9;        rotate(14.934024577502498)&#10;&#9;        translate(345,0)&#10;&#9;      " fill="rgb(124, 201, 166)" r="4.949747468305832"/><circle transform="&#10;&#9;        rotate(19.699169812125547)&#10;&#9;        translate(345,0)&#10;&#9;      " fill="rgb(124, 201, 166)" r="4.949747468305832"/><circle transform="&#10;&#9;        rotate(24.46431504674861)&#10;&#9;        translate(345,0)&#10;&#9;      " fill="rgb(124, 201, 166)" r="4.949747468305832"/><circle transform="&#10;&#9;        rotate(29.229460281371658)&#10;&#9;        translate(345,0)&#10;&#9;      " fill="rgb(124, 201, 166)" r="4.949747468305832"/><circle transform="&#10;&#9;        rotate(33.99460551599471)&#10;&#9;        translate(345,0)&#10;&#9;      " fill="rgb(124, 201, 166)" r="4.949747468305832"/><circle transform="&#10;&#9;        rotate(38.7597507506178)&#10;&#9;        translate(345,0)&#10;&#9;      " fill="rgb(124, 201, 166)" r="4.949747468305832"/><circle transform="&#10;&#9;        rotate(43.524895985240846)&#10;&#9;        translate(345,0)&#10;&#9;      " fill="rgb(124, 201, 166)" r="4.949747468305832"/><circle transform="&#10;&#9;        rotate(48.29004121986392)&#10;&#9;        translate(345,0)&#10;&#9;      " fill="rgb(124, 201, 166)" r="4.949747468305832"/><circle transform="&#10;&#9;        rotate(53.05518645448697)&#10;&#9;        translate(345,0)&#10;&#9;      " fill="rgb(124, 201, 166)" r="4.949747468305832"/><circle transform="&#10;&#9;        rotate(57.82033168911005)&#10;&#9;        translate(345,0)&#10;&#9;      " fill="rgb(124, 201, 166)" r="4.949747468305832"/><circle transform="&#10;&#9;        rotate(62.585476923733125)&#10;&#9;        translate(345,0)&#10;&#9;      " fill="rgb(124, 201, 166)" r="4.949747468305832"/><circle transform="&#10;&#9;        rotate(67.35062215835617)&#10;&#9;        translate(345,0)&#10;&#9;      " fill="rgb(124, 201, 166)" r="4.949747468305832"/><circle transform="&#10;&#9;        rotate(72.11576739297925)&#10;&#9;        translate(345,0)&#10;&#9;      " fill="rgb(124, 201, 166)" r="4.949747468305832"/><circle transform="&#10;&#9;        rotate(76.88091262760233)&#10;&#9;        translate(345,0)&#10;&#9;      " fill="rgb(124, 201, 166)" r="4.949747468305832"/><circle transform="&#10;&#9;        rotate(81.64605786222538)&#10;&#9;        translate(345,0)&#10;&#9;      " fill="rgb(124, 201, 166)" r="4.949747468305832"/><circle transform="&#10;&#9;        rotate(86.41120309684845)&#10;&#9;        translate(345,0)&#10;&#9;      " fill="rgb(124, 201, 166)" r="4.949747468305832"/><circle transform="&#10;&#9;        rotate(91.17634833147156)&#10;&#9;        translate(345,0)&#10;&#9;      " fill="rgb(80, 166, 176)" r="4.949747468305832"/><circle transform="&#10;&#9;        rotate(95.94149356609455)&#10;&#9;        translate(345,0)&#10;&#9;      " fill="rgb(94, 79, 162)" r="4.949747468305832"/><circle transform="&#10;&#9;        rotate(100.70663880071766)&#10;&#9;        translate(345,0)&#10;&#9;      " fill="rgb(94, 79, 162)" r="4.949747468305832"/><circle transform="&#10;&#9;        rotate(105.47178403534073)&#10;&#9;        translate(345,0)&#10;&#9;      " fill="rgb(94, 79, 162)" r="4.949747468305832"/><circle transform="&#10;&#9;        rotate(110.23692926996381)&#10;&#9;        translate(345,0)&#10;&#9;      " fill="rgb(94, 79, 162)" r="4.949747468305832"/><circle transform="&#10;&#9;        rotate(115.00207450458686)&#10;&#9;        translate(345,0)&#10;&#9;      " fill="rgb(94, 79, 162)" r="4.949747468305832"/><circle transform="&#10;&#9;        rotate(119.76721973920993)&#10;&#9;        translate(345,0)&#10;&#9;      " fill="rgb(94, 79, 162)" r="4.949747468305832"/><circle transform="&#10;&#9;        rotate(124.53236497383301)&#10;&#9;        translate(345,0)&#10;&#9;      " fill="rgb(94, 79, 162)" r="4.949747468305832"/><circle transform="&#10;&#9;        rotate(129.29751020845603)&#10;&#9;        translate(345,0)&#10;&#9;      " fill="rgb(94, 79, 162)" r="4.949747468305832"/><circle transform="&#10;&#9;        rotate(134.06265544307914)&#10;&#9;        translate(345,0)&#10;&#9;      " fill="rgb(94, 79, 162)" r="4.949747468305832"/><circle transform="&#10;&#9;        rotate(138.82780067770216)&#10;&#9;        translate(345,0)&#10;&#9;      " fill="rgb(94, 79, 162)" r="4.949747468305832"/><circle transform="&#10;&#9;        rotate(143.59294591232523)&#10;&#9;        translate(345,0)&#10;&#9;      " fill="rgb(94, 79, 162)" r="4.949747468305832"/><circle transform="&#10;&#9;        rotate(148.35809114694834)&#10;&#9;        translate(345,0)&#10;&#9;      " fill="rgb(94, 79, 162)" r="4.949747468305832"/><circle transform="&#10;&#9;        rotate(153.12323638157142)&#10;&#9;        translate(345,0)&#10;&#9;      " fill="rgb(94, 79, 162)" r="4.949747468305832"/><circle transform="&#10;&#9;        rotate(157.8883816161945)&#10;&#9;        translate(345,0)&#10;&#9;      " fill="rgb(94, 79, 162)" r="4.949747468305832"/><circle transform="&#10;&#9;        rotate(162.6535268508176)&#10;&#9;        translate(345,0)&#10;&#9;      " fill="rgb(94, 79, 162)" r="4.949747468305832"/><circle transform="&#10;&#9;        rotate(167.41867208544062)&#10;&#9;        translate(345,0)&#10;&#9;      " fill="rgb(94, 79, 162)" r="4.949747468305832"/><circle transform="&#10;&#9;        rotate(172.18381732006367)&#10;&#9;        translate(345,0)&#10;&#9;      " fill="rgb(94, 79, 162)" r="4.949747468305832"/><circle transform="&#10;&#9;        rotate(176.94896255468672)&#10;&#9;        translate(345,0)&#10;&#9;      " fill="rgb(94, 79, 162)" r="4.949747468305832"/><circle transform="&#10;&#9;        rotate(181.71410778930976)&#10;&#9;        translate(345,0)&#10;&#9;      " fill="rgb(94, 79, 162)" r="4.949747468305832"/><circle transform="&#10;&#9;        rotate(186.4792530239328)&#10;&#9;        translate(345,0)&#10;&#9;      " fill="rgb(94, 79, 162)" r="4.949747468305832"/><circle transform="&#10;&#9;        rotate(191.24439825855586)&#10;&#9;        translate(345,0)&#10;&#9;      " fill="rgb(94, 79, 162)" r="4.949747468305832"/><circle transform="&#10;&#9;        rotate(196.00954349317897)&#10;&#9;        translate(345,0)&#10;&#9;      " fill="rgb(94, 79, 162)" r="4.949747468305832"/><circle transform="&#10;&#9;        rotate(200.77468872780207)&#10;&#9;        translate(345,0)&#10;&#9;      " fill="rgb(94, 79, 162)" r="4.949747468305832"/><circle transform="&#10;&#9;        rotate(205.53983396242506)&#10;&#9;        translate(345,0)&#10;&#9;      " fill="rgb(94, 79, 162)" r="4.949747468305832"/><circle transform="&#10;&#9;        rotate(210.30497919704817)&#10;&#9;        translate(345,0)&#10;&#9;      " fill="rgb(94, 79, 162)" r="4.949747468305832"/><circle transform="&#10;&#9;        rotate(215.07012443167122)&#10;&#9;        translate(345,0)&#10;&#9;      " fill="rgb(94, 79, 162)" r="4.949747468305832"/><circle transform="&#10;&#9;        rotate(219.83526966629432)&#10;&#9;        translate(345,0)&#10;&#9;      " fill="rgb(94, 79, 162)" r="4.949747468305832"/><circle transform="&#10;&#9;        rotate(224.60041490091731)&#10;&#9;        translate(345,0)&#10;&#9;      " fill="rgb(94, 79, 162)" r="4.949747468305832"/><circle transform="&#10;&#9;        rotate(229.36556013554048)&#10;&#9;        translate(345,0)&#10;&#9;      " fill="rgb(94, 79, 162)" r="4.949747468305832"/><circle transform="&#10;&#9;        rotate(234.13070537016353)&#10;&#9;        translate(345,0)&#10;&#9;      " fill="rgb(94, 79, 162)" r="4.949747468305832"/><circle transform="&#10;&#9;        rotate(238.89585060478663)&#10;&#9;        translate(345,0)&#10;&#9;      " fill="rgb(94, 79, 162)" r="4.949747468305832"/><circle transform="&#10;&#9;        rotate(243.66099583940962)&#10;&#9;        translate(345,0)&#10;&#9;      " fill="rgb(94, 79, 162)" r="4.949747468305832"/><circle transform="&#10;&#9;        rotate(248.42614107403267)&#10;&#9;        translate(345,0)&#10;&#9;      " fill="rgb(94, 79, 162)" r="4.949747468305832"/><circle transform="&#10;&#9;        rotate(253.19128630865578)&#10;&#9;        translate(345,0)&#10;&#9;      " fill="rgb(94, 79, 162)" r="4.949747468305832"/><circle transform="&#10;&#9;        rotate(257.9564315432788)&#10;&#9;        translate(345,0)&#10;&#9;      " fill="rgb(94, 79, 162)" r="4.949747468305832"/><circle transform="&#10;&#9;        rotate(262.72157677790193)&#10;&#9;        translate(345,0)&#10;&#9;      " fill="rgb(94, 79, 162)" r="4.949747468305832"/><circle transform="&#10;&#9;        rotate(267.4867220125249)&#10;&#9;        translate(345,0)&#10;&#9;      " fill="rgb(94, 79, 162)" r="4.949747468305832"/></g><g id="labels"><g transform="&#10;&#9;        rotate(95.18488584259177)&#10;&#9;        translate(0,0)&#10;&#9;        rotate(180)&#10;&#9;      "><text x="0" y="0" text-anchor="middle" dominant-baseline="text-before-edge" transform="translate(0,0)"><tspan x="6" y="0" dy="0" text-anchor="start" style="font-family: Arial, sans-serif; font-size: 10px; fill: black; font-weight: normal;"/></text></g><g transform="&#10;&#9;        rotate(-87.48672201252495)&#10;&#9;        translate(172.5,0)&#10;&#9;        rotate(0)&#10;&#9;      "><text x="0" y="0" text-anchor="middle" dominant-baseline="text-before-edge" transform="translate(0,-5.714285850524902)"><tspan x="-6" y="0" dy="0" text-anchor="end" style="font-family: Arial, sans-serif; font-size: 10px; fill: black; font-weight: normal;">Paul Scully-Power</tspan></text></g><g transform="&#10;&#9;        rotate(-82.19875529724784)&#10;&#9;        translate(172.5,0)&#10;&#9;        rotate(0)&#10;&#9;      "><text x="0" y="0" text-anchor="middle" dominant-baseline="text-before-edge" transform="translate(0,-5.714285850524902)"><tspan x="-6" y="0" dy="0" text-anchor="end" style="font-family: Arial, sans-serif; font-size: 10px; fill: black; font-weight: normal;">Andy Thomas</tspan></text></g><g transform="&#10;&#9;        rotate(-76.91078858197072)&#10;&#9;        translate(172.5,0)&#10;&#9;        rotate(0)&#10;&#9;      "><text x="0" y="0" text-anchor="middle" dominant-baseline="text-before-edge" transform="translate(0,-5.714285850524902)"><tspan x="-6" y="0" dy="0" text-anchor="end" style="font-family: Arial, sans-serif; font-size: 10px; fill: black; font-weight: normal;">Musa Manarov</tspan></text></g><g transform="&#10;&#9;        rotate(-71.62282186669361)&#10;&#9;        translate(172.5,0)&#10;&#9;        rotate(0)&#10;&#9;      "><text x="0" y="0" text-anchor="middle" dominant-baseline="text-before-edge" transform="translate(0,-5.714285850524902)"><tspan x="-6" y="0" dy="0" text-anchor="end" style="font-family: Arial, sans-serif; font-size: 10px; fill: black; font-weight: normal;">Toktar Aubakirov</tspan></text></g><g transform="&#10;&#9;        rotate(-64.21369327443199)&#10;&#9;        translate(172.5,0)&#10;&#9;        rotate(0)&#10;&#9;      "><text x="0" y="0" text-anchor="middle" dominant-baseline="text-before-edge" transform="translate(0,-5.714285850524902)"><tspan x="-6" y="0" dy="0" text-anchor="end" style="font-family: Arial, sans-serif; font-size: 10px; fill: black; font-weight: normal;">Gennadi Strekalov</tspan></text></g><g transform="&#10;&#9;        rotate(-54.683402805185864)&#10;&#9;        translate(172.5,0)&#10;&#9;        rotate(0)&#10;&#9;      "><text x="0" y="0" text-anchor="middle" dominant-baseline="text-before-edge" transform="translate(0,-5.714285850524902)"><tspan x="-6" y="0" dy="0" text-anchor="end" style="font-family: Arial, sans-serif; font-size: 10px; fill: black; font-weight: normal;">Yuri Baturin</tspan></text></g><g transform="&#10;&#9;        rotate(-47.27427421292426)&#10;&#9;        translate(172.5,0)&#10;&#9;        rotate(0)&#10;&#9;      "><text x="0" y="0" text-anchor="middle" dominant-baseline="text-before-edge" transform="translate(0,-5.714285850524902)"><tspan x="-6" y="0" dy="0" text-anchor="end" style="font-family: Arial, sans-serif; font-size: 10px; fill: black; font-weight: normal;">Piers Sellers</tspan></text></g><g transform="&#10;&#9;        rotate(-42.24771823797417)&#10;&#9;        translate(172.5,0)&#10;&#9;        rotate(0)&#10;&#9;      "><text x="0" y="0" text-anchor="middle" dominant-baseline="text-before-edge" transform="translate(0,-5.714285850524902)"><tspan x="-6" y="0" dy="0" text-anchor="end" style="font-family: Arial, sans-serif; font-size: 10px; fill: black; font-weight: normal;">Marianne Merchez</tspan></text></g><g transform="&#10;&#9;        rotate(-37.48257300335111)&#10;&#9;        translate(172.5,0)&#10;&#9;        rotate(0)&#10;&#9;      "><text x="0" y="0" text-anchor="middle" dominant-baseline="text-before-edge" transform="translate(0,-5.714285850524902)"><tspan x="-6" y="0" dy="0" text-anchor="end" style="font-family: Arial, sans-serif; font-size: 10px; fill: black; font-weight: normal;">Robert Thirsk</tspan></text></g><g transform="&#10;&#9;        rotate(-32.71742776872805)&#10;&#9;        translate(172.5,0)&#10;&#9;        rotate(0)&#10;&#9;      "><text x="0" y="0" text-anchor="middle" dominant-baseline="text-before-edge" transform="translate(0,-5.714285850524902)"><tspan x="-6" y="0" dy="0" text-anchor="end" style="font-family: Arial, sans-serif; font-size: 10px; fill: black; font-weight: normal;">Dafydd Williams</tspan></text></g><g transform="&#10;&#9;        rotate(-27.95228253410498)&#10;&#9;        translate(172.5,0)&#10;&#9;        rotate(0)&#10;&#9;      "><text x="0" y="0" text-anchor="middle" dominant-baseline="text-before-edge" transform="translate(0,-5.714285850524902)"><tspan x="-6" y="0" dy="0" text-anchor="end" style="font-family: Arial, sans-serif; font-size: 10px; fill: black; font-weight: normal;">Steve MacLean</tspan></text></g><g transform="&#10;&#9;        rotate(-23.187137299481932)&#10;&#9;        translate(172.5,0)&#10;&#9;        rotate(0)&#10;&#9;      "><text x="0" y="0" text-anchor="middle" dominant-baseline="text-before-edge" transform="translate(0,-5.714285850524902)"><tspan x="-6" y="0" dy="0" text-anchor="end" style="font-family: Arial, sans-serif; font-size: 10px; fill: black; font-weight: normal;">Thomas Pesquet</tspan></text></g><g transform="&#10;&#9;        rotate(-18.42199206485887)&#10;&#9;        translate(172.5,0)&#10;&#9;        rotate(0)&#10;&#9;      "><text x="0" y="0" text-anchor="middle" dominant-baseline="text-before-edge" transform="translate(0,-5.714285850524902)"><tspan x="-6" y="0" dy="0" text-anchor="end" style="font-family: Arial, sans-serif; font-size: 10px; fill: black; font-weight: normal;">Takao Doi</tspan></text></g><g transform="&#10;&#9;        rotate(-13.656846830235821)&#10;&#9;        translate(172.5,0)&#10;&#9;        rotate(0)&#10;&#9;      "><text x="0" y="0" text-anchor="middle" dominant-baseline="text-before-edge" transform="translate(0,-5.714285850524902)"><tspan x="-6" y="0" dy="0" text-anchor="end" style="font-family: Arial, sans-serif; font-size: 10px; fill: black; font-weight: normal;">Mamoru Mohri</tspan></text></g><g transform="&#10;&#9;        rotate(-8.891701595612773)&#10;&#9;        translate(172.5,0)&#10;&#9;        rotate(0)&#10;&#9;      "><text x="0" y="0" text-anchor="middle" dominant-baseline="text-before-edge" transform="translate(0,-5.714285850524902)"><tspan x="-6" y="0" dy="0" text-anchor="end" style="font-family: Arial, sans-serif; font-size: 10px; fill: black; font-weight: normal;">Andreas Mogensen</tspan></text></g><g transform="&#10;&#9;        rotate(-4.126556360989696)&#10;&#9;        translate(172.5,0)&#10;&#9;        rotate(0)&#10;&#9;      "><text x="0" y="0" text-anchor="middle" dominant-baseline="text-before-edge" transform="translate(0,-5.714285850524902)"><tspan x="-6" y="0" dy="0" text-anchor="end" style="font-family: Arial, sans-serif; font-size: 10px; fill: black; font-weight: normal;">Jing Haipeng</tspan></text></g><g transform="&#10;&#9;        rotate(0.6385888736333385)&#10;&#9;        translate(172.5,0)&#10;&#9;        rotate(0)&#10;&#9;      "><text x="0" y="0" text-anchor="middle" dominant-baseline="text-before-edge" transform="translate(0,-5.714285850524902)"><tspan x="-6" y="0" dy="0" text-anchor="end" style="font-family: Arial, sans-serif; font-size: 10px; fill: black; font-weight: normal;">Liu Wang</tspan></text></g><g transform="&#10;&#9;        rotate(5.403734108256387)&#10;&#9;        translate(172.5,0)&#10;&#9;        rotate(0)&#10;&#9;      "><text x="0" y="0" text-anchor="middle" dominant-baseline="text-before-edge" transform="translate(0,-5.714285850524902)"><tspan x="-6" y="0" dy="0" text-anchor="end" style="font-family: Arial, sans-serif; font-size: 10px; fill: black; font-weight: normal;">Nie Haisheng</tspan></text></g><g transform="&#10;&#9;        rotate(10.168879342879436)&#10;&#9;        translate(172.5,0)&#10;&#9;        rotate(0)&#10;&#9;      "><text x="0" y="0" text-anchor="middle" dominant-baseline="text-before-edge" transform="translate(0,-5.714285850524902)"><tspan x="-6" y="0" dy="0" text-anchor="end" style="font-family: Arial, sans-serif; font-size: 10px; fill: black; font-weight: normal;">Ko San</tspan></text></g><g transform="&#10;&#9;        rotate(14.934024577502498)&#10;&#9;        translate(172.5,0)&#10;&#9;        rotate(0)&#10;&#9;      "><text x="0" y="0" text-anchor="middle" dominant-baseline="text-before-edge" transform="translate(0,-5.714285850524902)"><tspan x="-6" y="0" dy="0" text-anchor="end" style="font-family: Arial, sans-serif; font-size: 10px; fill: black; font-weight: normal;">Roman Romanenko</tspan></text></g><g transform="&#10;&#9;        rotate(19.699169812125547)&#10;&#9;        translate(172.5,0)&#10;&#9;        rotate(0)&#10;&#9;      "><text x="0" y="0" text-anchor="middle" dominant-baseline="text-before-edge" transform="translate(0,-5.714285850524902)"><tspan x="-6" y="0" dy="0" text-anchor="end" style="font-family: Arial, sans-serif; font-size: 10px; fill: black; font-weight: normal;">Maksim Surayev</tspan></text></g><g transform="&#10;&#9;        rotate(24.46431504674861)&#10;&#9;        translate(172.5,0)&#10;&#9;        rotate(0)&#10;&#9;      "><text x="0" y="0" text-anchor="middle" dominant-baseline="text-before-edge" transform="translate(0,-5.714285850524902)"><tspan x="-6" y="0" dy="0" text-anchor="end" style="font-family: Arial, sans-serif; font-size: 10px; fill: black; font-weight: normal;">Yury Glazkov</tspan></text></g><g transform="&#10;&#9;        rotate(29.229460281371658)&#10;&#9;        translate(172.5,0)&#10;&#9;        rotate(0)&#10;&#9;      "><text x="0" y="0" text-anchor="middle" dominant-baseline="text-before-edge" transform="translate(0,-5.714285850524902)"><tspan x="-6" y="0" dy="0" text-anchor="end" style="font-family: Arial, sans-serif; font-size: 10px; fill: black; font-weight: normal;">Anatoly Berezovoy</tspan></text></g><g transform="&#10;&#9;        rotate(33.99460551599471)&#10;&#9;        translate(172.5,0)&#10;&#9;        rotate(0)&#10;&#9;      "><text x="0" y="0" text-anchor="middle" dominant-baseline="text-before-edge" transform="translate(0,-5.714285850524902)"><tspan x="-6" y="0" dy="0" text-anchor="end" style="font-family: Arial, sans-serif; font-size: 10px; fill: black; font-weight: normal;">Aleksei Gubarev</tspan></text></g><g transform="&#10;&#9;        rotate(38.7597507506178)&#10;&#9;        translate(172.5,0)&#10;&#9;        rotate(0)&#10;&#9;      "><text x="0" y="0" text-anchor="middle" dominant-baseline="text-before-edge" transform="translate(0,-5.714285850524902)"><tspan x="-6" y="0" dy="0" text-anchor="end" style="font-family: Arial, sans-serif; font-size: 10px; fill: black; font-weight: normal;">Vladimir Titov</tspan></text></g><g transform="&#10;&#9;        rotate(43.524895985240846)&#10;&#9;        translate(172.5,0)&#10;&#9;        rotate(0)&#10;&#9;      "><text x="0" y="0" text-anchor="middle" dominant-baseline="text-before-edge" transform="translate(0,-5.714285850524902)"><tspan x="-6" y="0" dy="0" text-anchor="end" style="font-family: Arial, sans-serif; font-size: 10px; fill: black; font-weight: normal;">Aleksandr Pavlovich Aleksandrov</tspan></text></g><g transform="&#10;&#9;        rotate(48.29004121986392)&#10;&#9;        translate(172.5,0)&#10;&#9;        rotate(0)&#10;&#9;      "><text x="0" y="0" text-anchor="middle" dominant-baseline="text-before-edge" transform="translate(0,-5.714285850524902)"><tspan x="-6" y="0" dy="0" text-anchor="end" style="font-family: Arial, sans-serif; font-size: 10px; fill: black; font-weight: normal;">Vladimir Dzhanibekov</tspan></text></g><g transform="&#10;&#9;        rotate(53.05518645448697)&#10;&#9;        translate(172.5,0)&#10;&#9;        rotate(0)&#10;&#9;      "><text x="0" y="0" text-anchor="middle" dominant-baseline="text-before-edge" transform="translate(0,-5.714285850524902)"><tspan x="-6" y="0" dy="0" text-anchor="end" style="font-family: Arial, sans-serif; font-size: 10px; fill: black; font-weight: normal;">Oleg Grigoryevich Makarov</tspan></text></g><g transform="&#10;&#9;        rotate(57.82033168911005)&#10;&#9;        translate(172.5,0)&#10;&#9;        rotate(0)&#10;&#9;      "><text x="0" y="0" text-anchor="middle" dominant-baseline="text-before-edge" transform="translate(0,-5.714285850524902)"><tspan x="-6" y="0" dy="0" text-anchor="end" style="font-family: Arial, sans-serif; font-size: 10px; fill: black; font-weight: normal;">Vladimir Aksyonov</tspan></text></g><g transform="&#10;&#9;        rotate(62.585476923733125)&#10;&#9;        translate(172.5,0)&#10;&#9;        rotate(0)&#10;&#9;      "><text x="0" y="0" text-anchor="middle" dominant-baseline="text-before-edge" transform="translate(0,-5.714285850524902)"><tspan x="-6" y="0" dy="0" text-anchor="end" style="font-family: Arial, sans-serif; font-size: 10px; fill: black; font-weight: normal;">Viktor Afanasyev</tspan></text></g><g transform="&#10;&#9;        rotate(67.35062215835617)&#10;&#9;        translate(172.5,0)&#10;&#9;        rotate(0)&#10;&#9;      "><text x="0" y="0" text-anchor="middle" dominant-baseline="text-before-edge" transform="translate(0,-5.714285850524902)"><tspan x="-6" y="0" dy="0" text-anchor="end" style="font-family: Arial, sans-serif; font-size: 10px; fill: black; font-weight: normal;">Gennadi Sarafanov</tspan></text></g><g transform="&#10;&#9;        rotate(72.11576739297925)&#10;&#9;        translate(172.5,0)&#10;&#9;        rotate(0)&#10;&#9;      "><text x="0" y="0" text-anchor="middle" dominant-baseline="text-before-edge" transform="translate(0,-5.714285850524902)"><tspan x="-6" y="0" dy="0" text-anchor="end" style="font-family: Arial, sans-serif; font-size: 10px; fill: black; font-weight: normal;">Valery Ryumin</tspan></text></g><g transform="&#10;&#9;        rotate(76.88091262760233)&#10;&#9;        translate(172.5,0)&#10;&#9;        rotate(0)&#10;&#9;      "><text x="0" y="0" text-anchor="middle" dominant-baseline="text-before-edge" transform="translate(0,-5.714285850524902)"><tspan x="-6" y="0" dy="0" text-anchor="end" style="font-family: Arial, sans-serif; font-size: 10px; fill: black; font-weight: normal;">Anatoly Artsebarsky</tspan></text></g><g transform="&#10;&#9;        rotate(81.64605786222538)&#10;&#9;        translate(172.5,0)&#10;&#9;        rotate(0)&#10;&#9;      "><text x="0" y="0" text-anchor="middle" dominant-baseline="text-before-edge" transform="translate(0,-5.714285850524902)"><tspan x="-6" y="0" dy="0" text-anchor="end" style="font-family: Arial, sans-serif; font-size: 10px; fill: black; font-weight: normal;">Anatolii Levchenko</tspan></text></g><g transform="&#10;&#9;        rotate(86.41120309684845)&#10;&#9;        translate(172.5,0)&#10;&#9;        rotate(0)&#10;&#9;      "><text x="0" y="0" text-anchor="middle" dominant-baseline="text-before-edge" transform="translate(0,-5.714285850524902)"><tspan x="-6" y="0" dy="0" text-anchor="end" style="font-family: Arial, sans-serif; font-size: 10px; fill: black; font-weight: normal;">Anatoly Filipchenko</tspan></text></g><g transform="&#10;&#9;        rotate(91.17634833147156)&#10;&#9;        translate(172.5,0)&#10;&#9;        rotate(180)&#10;&#9;      "><text x="0" y="0" text-anchor="middle" dominant-baseline="text-before-edge" transform="translate(0,-5.714285850524902)"><tspan x="6" y="0" dy="0" text-anchor="start" style="font-family: Arial, sans-serif; font-size: 10px; fill: black; font-weight: normal;">Timothy Peake</tspan></text></g><g transform="&#10;&#9;        rotate(95.94149356609455)&#10;&#9;        translate(172.5,0)&#10;&#9;        rotate(180)&#10;&#9;      "><text x="0" y="0" text-anchor="middle" dominant-baseline="text-before-edge" transform="translate(0,-5.714285850524902)"><tspan x="6" y="0" dy="0" text-anchor="start" style="font-family: Arial, sans-serif; font-size: 10px; fill: black; font-weight: normal;">Henry Hartsfield</tspan></text></g><g transform="&#10;&#9;        rotate(100.70663880071766)&#10;&#9;        translate(172.5,0)&#10;&#9;        rotate(180)&#10;&#9;      "><text x="0" y="0" text-anchor="middle" dominant-baseline="text-before-edge" transform="translate(0,-5.714285850524902)"><tspan x="6" y="0" dy="0" text-anchor="start" style="font-family: Arial, sans-serif; font-size: 10px; fill: black; font-weight: normal;">William R. Pogue</tspan></text></g><g transform="&#10;&#9;        rotate(105.47178403534073)&#10;&#9;        translate(172.5,0)&#10;&#9;        rotate(180)&#10;&#9;      "><text x="0" y="0" text-anchor="middle" dominant-baseline="text-before-edge" transform="translate(0,-5.714285850524902)"><tspan x="6" y="0" dy="0" text-anchor="start" style="font-family: Arial, sans-serif; font-size: 10px; fill: black; font-weight: normal;">Timothy Creamer</tspan></text></g><g transform="&#10;&#9;        rotate(110.23692926996381)&#10;&#9;        translate(172.5,0)&#10;&#9;        rotate(180)&#10;&#9;      "><text x="0" y="0" text-anchor="middle" dominant-baseline="text-before-edge" transform="translate(0,-5.714285850524902)"><tspan x="6" y="0" dy="0" text-anchor="start" style="font-family: Arial, sans-serif; font-size: 10px; fill: black; font-weight: normal;">David Wolf</tspan></text></g><g transform="&#10;&#9;        rotate(115.00207450458686)&#10;&#9;        translate(172.5,0)&#10;&#9;        rotate(180)&#10;&#9;      "><text x="0" y="0" text-anchor="middle" dominant-baseline="text-before-edge" transform="translate(0,-5.714285850524902)"><tspan x="6" y="0" dy="0" text-anchor="start" style="font-family: Arial, sans-serif; font-size: 10px; fill: black; font-weight: normal;">Eric Boe</tspan></text></g><g transform="&#10;&#9;        rotate(119.76721973920993)&#10;&#9;        translate(172.5,0)&#10;&#9;        rotate(180)&#10;&#9;      "><text x="0" y="0" text-anchor="middle" dominant-baseline="text-before-edge" transform="translate(0,-5.714285850524902)"><tspan x="6" y="0" dy="0" text-anchor="start" style="font-family: Arial, sans-serif; font-size: 10px; fill: black; font-weight: normal;">Douglas H. Wheelock</tspan></text></g><g transform="&#10;&#9;        rotate(124.53236497383301)&#10;&#9;        translate(172.5,0)&#10;&#9;        rotate(180)&#10;&#9;      "><text x="0" y="0" text-anchor="middle" dominant-baseline="text-before-edge" transform="translate(0,-5.714285850524902)"><tspan x="6" y="0" dy="0" text-anchor="start" style="font-family: Arial, sans-serif; font-size: 10px; fill: black; font-weight: normal;">Gregory Chamitoff</tspan></text></g><g transform="&#10;&#9;        rotate(129.29751020845603)&#10;&#9;        translate(172.5,0)&#10;&#9;        rotate(180)&#10;&#9;      "><text x="0" y="0" text-anchor="middle" dominant-baseline="text-before-edge" transform="translate(0,-5.714285850524902)"><tspan x="6" y="0" dy="0" text-anchor="start" style="font-family: Arial, sans-serif; font-size: 10px; fill: black; font-weight: normal;">Story Musgrave</tspan></text></g><g transform="&#10;&#9;        rotate(134.06265544307914)&#10;&#9;        translate(172.5,0)&#10;&#9;        rotate(180)&#10;&#9;      "><text x="0" y="0" text-anchor="middle" dominant-baseline="text-before-edge" transform="translate(0,-5.714285850524902)"><tspan x="6" y="0" dy="0" text-anchor="start" style="font-family: Arial, sans-serif; font-size: 10px; fill: black; font-weight: normal;">Richard R. Arnold</tspan></text></g><g transform="&#10;&#9;        rotate(138.82780067770216)&#10;&#9;        translate(172.5,0)&#10;&#9;        rotate(180)&#10;&#9;      "><text x="0" y="0" text-anchor="middle" dominant-baseline="text-before-edge" transform="translate(0,-5.714285850524902)"><tspan x="6" y="0" dy="0" text-anchor="start" style="font-family: Arial, sans-serif; font-size: 10px; fill: black; font-weight: normal;">Stephen Bowen</tspan></text></g><g transform="&#10;&#9;        rotate(143.59294591232523)&#10;&#9;        translate(172.5,0)&#10;&#9;        rotate(180)&#10;&#9;      "><text x="0" y="0" text-anchor="middle" dominant-baseline="text-before-edge" transform="translate(0,-5.714285850524902)"><tspan x="6" y="0" dy="0" text-anchor="start" style="font-family: Arial, sans-serif; font-size: 10px; fill: black; font-weight: normal;">Vance D. Brand</tspan></text></g><g transform="&#10;&#9;        rotate(148.35809114694834)&#10;&#9;        translate(172.5,0)&#10;&#9;        rotate(180)&#10;&#9;      "><text x="0" y="0" text-anchor="middle" dominant-baseline="text-before-edge" transform="translate(0,-5.714285850524902)"><tspan x="6" y="0" dy="0" text-anchor="start" style="font-family: Arial, sans-serif; font-size: 10px; fill: black; font-weight: normal;">Kathryn D. Sullivan</tspan></text></g><g transform="&#10;&#9;        rotate(153.12323638157142)&#10;&#9;        translate(172.5,0)&#10;&#9;        rotate(180)&#10;&#9;      "><text x="0" y="0" text-anchor="middle" dominant-baseline="text-before-edge" transform="translate(0,-5.714285850524902)"><tspan x="6" y="0" dy="0" text-anchor="start" style="font-family: Arial, sans-serif; font-size: 10px; fill: black; font-weight: normal;">John Danny Olivas</tspan></text></g><g transform="&#10;&#9;        rotate(157.8883816161945)&#10;&#9;        translate(172.5,0)&#10;&#9;        rotate(180)&#10;&#9;      "><text x="0" y="0" text-anchor="middle" dominant-baseline="text-before-edge" transform="translate(0,-5.714285850524902)"><tspan x="6" y="0" dy="0" text-anchor="start" style="font-family: Arial, sans-serif; font-size: 10px; fill: black; font-weight: normal;">Mark L. Polansky</tspan></text></g><g transform="&#10;&#9;        rotate(162.6535268508176)&#10;&#9;        translate(172.5,0)&#10;&#9;        rotate(180)&#10;&#9;      "><text x="0" y="0" text-anchor="middle" dominant-baseline="text-before-edge" transform="translate(0,-5.714285850524902)"><tspan x="6" y="0" dy="0" text-anchor="start" style="font-family: Arial, sans-serif; font-size: 10px; fill: black; font-weight: normal;">Ronald J. Grabe</tspan></text></g><g transform="&#10;&#9;        rotate(167.41867208544062)&#10;&#9;        translate(172.5,0)&#10;&#9;        rotate(180)&#10;&#9;      "><text x="0" y="0" text-anchor="middle" dominant-baseline="text-before-edge" transform="translate(0,-5.714285850524902)"><tspan x="6" y="0" dy="0" text-anchor="start" style="font-family: Arial, sans-serif; font-size: 10px; fill: black; font-weight: normal;">John L. Finley</tspan></text></g><g transform="&#10;&#9;        rotate(172.18381732006367)&#10;&#9;        translate(172.5,0)&#10;&#9;        rotate(180)&#10;&#9;      "><text x="0" y="0" text-anchor="middle" dominant-baseline="text-before-edge" transform="translate(0,-5.714285850524902)"><tspan x="6" y="0" dy="0" text-anchor="start" style="font-family: Arial, sans-serif; font-size: 10px; fill: black; font-weight: normal;">Richard E. Lawyer</tspan></text></g><g transform="&#10;&#9;        rotate(176.94896255468672)&#10;&#9;        translate(172.5,0)&#10;&#9;        rotate(180)&#10;&#9;      "><text x="0" y="0" text-anchor="middle" dominant-baseline="text-before-edge" transform="translate(0,-5.714285850524902)"><tspan x="6" y="0" dy="0" text-anchor="start" style="font-family: Arial, sans-serif; font-size: 10px; fill: black; font-weight: normal;">Brewster H. Shaw</tspan></text></g><g transform="&#10;&#9;        rotate(181.71410778930976)&#10;&#9;        translate(172.5,0)&#10;&#9;        rotate(180)&#10;&#9;      "><text x="0" y="0" text-anchor="middle" dominant-baseline="text-before-edge" transform="translate(0,-5.714285850524902)"><tspan x="6" y="0" dy="0" text-anchor="start" style="font-family: Arial, sans-serif; font-size: 10px; fill: black; font-weight: normal;">Robert L. Gibson</tspan></text></g><g transform="&#10;&#9;        rotate(186.4792530239328)&#10;&#9;        translate(172.5,0)&#10;&#9;        rotate(180)&#10;&#9;      "><text x="0" y="0" text-anchor="middle" dominant-baseline="text-before-edge" transform="translate(0,-5.714285850524902)"><tspan x="6" y="0" dy="0" text-anchor="start" style="font-family: Arial, sans-serif; font-size: 10px; fill: black; font-weight: normal;">John M. Lounge</tspan></text></g><g transform="&#10;&#9;        rotate(191.24439825855586)&#10;&#9;        translate(172.5,0)&#10;&#9;        rotate(180)&#10;&#9;      "><text x="0" y="0" text-anchor="middle" dominant-baseline="text-before-edge" transform="translate(0,-5.714285850524902)"><tspan x="6" y="0" dy="0" text-anchor="start" style="font-family: Arial, sans-serif; font-size: 10px; fill: black; font-weight: normal;">Richard F. Gordon</tspan></text></g><g transform="&#10;&#9;        rotate(196.00954349317897)&#10;&#9;        translate(172.5,0)&#10;&#9;        rotate(180)&#10;&#9;      "><text x="0" y="0" text-anchor="middle" dominant-baseline="text-before-edge" transform="translate(0,-5.714285850524902)"><tspan x="6" y="0" dy="0" text-anchor="start" style="font-family: Arial, sans-serif; font-size: 10px; fill: black; font-weight: normal;">Andrew J. Feustel</tspan></text></g><g transform="&#10;&#9;        rotate(200.77468872780207)&#10;&#9;        translate(172.5,0)&#10;&#9;        rotate(180)&#10;&#9;      "><text x="0" y="0" text-anchor="middle" dominant-baseline="text-before-edge" transform="translate(0,-5.714285850524902)"><tspan x="6" y="0" dy="0" text-anchor="start" style="font-family: Arial, sans-serif; font-size: 10px; fill: black; font-weight: normal;">Andrew M. Allen</tspan></text></g><g transform="&#10;&#9;        rotate(205.53983396242506)&#10;&#9;        translate(172.5,0)&#10;&#9;        rotate(180)&#10;&#9;      "><text x="0" y="0" text-anchor="middle" dominant-baseline="text-before-edge" transform="translate(0,-5.714285850524902)"><tspan x="6" y="0" dy="0" text-anchor="start" style="font-family: Arial, sans-serif; font-size: 10px; fill: black; font-weight: normal;">Owen K. Garriott</tspan></text></g><g transform="&#10;&#9;        rotate(210.30497919704817)&#10;&#9;        translate(172.5,0)&#10;&#9;        rotate(180)&#10;&#9;      "><text x="0" y="0" text-anchor="middle" dominant-baseline="text-before-edge" transform="translate(0,-5.714285850524902)"><tspan x="6" y="0" dy="0" text-anchor="start" style="font-family: Arial, sans-serif; font-size: 10px; fill: black; font-weight: normal;">Kenneth Cockrell</tspan></text></g><g transform="&#10;&#9;        rotate(215.07012443167122)&#10;&#9;        translate(172.5,0)&#10;&#9;        rotate(180)&#10;&#9;      "><text x="0" y="0" text-anchor="middle" dominant-baseline="text-before-edge" transform="translate(0,-5.714285850524902)"><tspan x="6" y="0" dy="0" text-anchor="start" style="font-family: Arial, sans-serif; font-size: 10px; fill: black; font-weight: normal;">George Nelson</tspan></text></g><g transform="&#10;&#9;        rotate(219.83526966629432)&#10;&#9;        translate(172.5,0)&#10;&#9;        rotate(180)&#10;&#9;      "><text x="0" y="0" text-anchor="middle" dominant-baseline="text-before-edge" transform="translate(0,-5.714285850524902)"><tspan x="6" y="0" dy="0" text-anchor="start" style="font-family: Arial, sans-serif; font-size: 10px; fill: black; font-weight: normal;">Robert F. Overmyer</tspan></text></g><g transform="&#10;&#9;        rotate(224.60041490091731)&#10;&#9;        translate(172.5,0)&#10;&#9;        rotate(180)&#10;&#9;      "><text x="0" y="0" text-anchor="middle" dominant-baseline="text-before-edge" transform="translate(0,-5.714285850524902)"><tspan x="6" y="0" dy="0" text-anchor="start" style="font-family: Arial, sans-serif; font-size: 10px; fill: black; font-weight: normal;">Jake Garn</tspan></text></g><g transform="&#10;&#9;        rotate(229.36556013554048)&#10;&#9;        translate(172.5,0)&#10;&#9;        rotate(180)&#10;&#9;      "><text x="0" y="0" text-anchor="middle" dominant-baseline="text-before-edge" transform="translate(0,-5.714285850524902)"><tspan x="6" y="0" dy="0" text-anchor="start" style="font-family: Arial, sans-serif; font-size: 10px; fill: black; font-weight: normal;">C. Gordon Fullerton</tspan></text></g><g transform="&#10;&#9;        rotate(234.13070537016353)&#10;&#9;        translate(172.5,0)&#10;&#9;        rotate(180)&#10;&#9;      "><text x="0" y="0" text-anchor="middle" dominant-baseline="text-before-edge" transform="translate(0,-5.714285850524902)"><tspan x="6" y="0" dy="0" text-anchor="start" style="font-family: Arial, sans-serif; font-size: 10px; fill: black; font-weight: normal;">Gregory H. Johnson</tspan></text></g><g transform="&#10;&#9;        rotate(238.89585060478663)&#10;&#9;        translate(172.5,0)&#10;&#9;        rotate(180)&#10;&#9;      "><text x="0" y="0" text-anchor="middle" dominant-baseline="text-before-edge" transform="translate(0,-5.714285850524902)"><tspan x="6" y="0" dy="0" text-anchor="start" style="font-family: Arial, sans-serif; font-size: 10px; fill: black; font-weight: normal;">Shane Kimbrough</tspan></text></g><g transform="&#10;&#9;        rotate(243.66099583940962)&#10;&#9;        translate(172.5,0)&#10;&#9;        rotate(180)&#10;&#9;      "><text x="0" y="0" text-anchor="middle" dominant-baseline="text-before-edge" transform="translate(0,-5.714285850524902)"><tspan x="6" y="0" dy="0" text-anchor="start" style="font-family: Arial, sans-serif; font-size: 10px; fill: black; font-weight: normal;">Thomas Marshburn</tspan></text></g><g transform="&#10;&#9;        rotate(248.42614107403267)&#10;&#9;        translate(172.5,0)&#10;&#9;        rotate(180)&#10;&#9;      "><text x="0" y="0" text-anchor="middle" dominant-baseline="text-before-edge" transform="translate(0,-5.714285850524902)"><tspan x="6" y="0" dy="0" text-anchor="start" style="font-family: Arial, sans-serif; font-size: 10px; fill: black; font-weight: normal;">Richard M. Linnehan</tspan></text></g><g transform="&#10;&#9;        rotate(253.19128630865578)&#10;&#9;        translate(172.5,0)&#10;&#9;        rotate(180)&#10;&#9;      "><text x="0" y="0" text-anchor="middle" dominant-baseline="text-before-edge" transform="translate(0,-5.714285850524902)"><tspan x="6" y="0" dy="0" text-anchor="start" style="font-family: Arial, sans-serif; font-size: 10px; fill: black; font-weight: normal;">Robert L. Behnken</tspan></text></g><g transform="&#10;&#9;        rotate(257.9564315432788)&#10;&#9;        translate(172.5,0)&#10;&#9;        rotate(180)&#10;&#9;      "><text x="0" y="0" text-anchor="middle" dominant-baseline="text-before-edge" transform="translate(0,-5.714285850524902)"><tspan x="6" y="0" dy="0" text-anchor="start" style="font-family: Arial, sans-serif; font-size: 10px; fill: black; font-weight: normal;">James S. Voss</tspan></text></g><g transform="&#10;&#9;        rotate(262.72157677790193)&#10;&#9;        translate(172.5,0)&#10;&#9;        rotate(180)&#10;&#9;      "><text x="0" y="0" text-anchor="middle" dominant-baseline="text-before-edge" transform="translate(0,-5.714285850524902)"><tspan x="6" y="0" dy="0" text-anchor="start" style="font-family: Arial, sans-serif; font-size: 10px; fill: black; font-weight: normal;">Guion Bluford</tspan></text></g><g transform="&#10;&#9;        rotate(267.4867220125249)&#10;&#9;        translate(172.5,0)&#10;&#9;        rotate(180)&#10;&#9;      "><text x="0" y="0" text-anchor="middle" dominant-baseline="text-before-edge" transform="translate(0,-5.714285850524902)"><tspan x="6" y="0" dy="0" text-anchor="start" style="font-family: Arial, sans-serif; font-size: 10px; fill: black; font-weight: normal;">Robert A. Parker</tspan></text></g><g transform="&#10;&#9;        rotate(-87.48672201252495)&#10;&#9;        translate(345,0)&#10;&#9;        rotate(0)&#10;&#9;      "><text x="0" y="0" text-anchor="middle" dominant-baseline="text-before-edge" transform="translate(0,0)"/></g><g transform="&#10;&#9;        rotate(-82.19875529724784)&#10;&#9;        translate(345,0)&#10;&#9;        rotate(0)&#10;&#9;      "><text x="0" y="0" text-anchor="middle" dominant-baseline="text-before-edge" transform="translate(0,0)"/></g><g transform="&#10;&#9;        rotate(-76.91078858197072)&#10;&#9;        translate(345,0)&#10;&#9;        rotate(0)&#10;&#9;      "><text x="0" y="0" text-anchor="middle" dominant-baseline="text-before-edge" transform="translate(0,0)"/></g><g transform="&#10;&#9;        rotate(-71.62282186669361)&#10;&#9;        translate(345,0)&#10;&#9;        rotate(0)&#10;&#9;      "><text x="0" y="0" text-anchor="middle" dominant-baseline="text-before-edge" transform="translate(0,0)"/></g><g transform="&#10;&#9;        rotate(-66.59626589174351)&#10;&#9;        translate(345,0)&#10;&#9;        rotate(0)&#10;&#9;      "><text x="0" y="0" text-anchor="middle" dominant-baseline="text-before-edge" transform="translate(0,0)"/></g><g transform="&#10;&#9;        rotate(-61.831120657120465)&#10;&#9;        translate(345,0)&#10;&#9;        rotate(0)&#10;&#9;      "><text x="0" y="0" text-anchor="middle" dominant-baseline="text-before-edge" transform="translate(0,0)"/></g><g transform="&#10;&#9;        rotate(-57.065975422497395)&#10;&#9;        translate(345,0)&#10;&#9;        rotate(0)&#10;&#9;      "><text x="0" y="0" text-anchor="middle" dominant-baseline="text-before-edge" transform="translate(0,0)"/></g><g transform="&#10;&#9;        rotate(-52.30083018787434)&#10;&#9;        translate(345,0)&#10;&#9;        rotate(0)&#10;&#9;      "><text x="0" y="0" text-anchor="middle" dominant-baseline="text-before-edge" transform="translate(0,0)"/></g><g transform="&#10;&#9;        rotate(-47.27427421292426)&#10;&#9;        translate(345,0)&#10;&#9;        rotate(0)&#10;&#9;      "><text x="0" y="0" text-anchor="middle" dominant-baseline="text-before-edge" transform="translate(0,0)"/></g><g transform="&#10;&#9;        rotate(-42.24771823797417)&#10;&#9;        translate(345,0)&#10;&#9;        rotate(0)&#10;&#9;      "><text x="0" y="0" text-anchor="middle" dominant-baseline="text-before-edge" transform="translate(0,0)"/></g><g transform="&#10;&#9;        rotate(-37.48257300335111)&#10;&#9;        translate(345,0)&#10;&#9;        rotate(0)&#10;&#9;      "><text x="0" y="0" text-anchor="middle" dominant-baseline="text-before-edge" transform="translate(0,0)"/></g><g transform="&#10;&#9;        rotate(-32.71742776872805)&#10;&#9;        translate(345,0)&#10;&#9;        rotate(0)&#10;&#9;      "><text x="0" y="0" text-anchor="middle" dominant-baseline="text-before-edge" transform="translate(0,0)"/></g><g transform="&#10;&#9;        rotate(-27.95228253410498)&#10;&#9;        translate(345,0)&#10;&#9;        rotate(0)&#10;&#9;      "><text x="0" y="0" text-anchor="middle" dominant-baseline="text-before-edge" transform="translate(0,0)"/></g><g transform="&#10;&#9;        rotate(-23.187137299481932)&#10;&#9;        translate(345,0)&#10;&#9;        rotate(0)&#10;&#9;      "><text x="0" y="0" text-anchor="middle" dominant-baseline="text-before-edge" transform="translate(0,0)"/></g><g transform="&#10;&#9;        rotate(-18.42199206485887)&#10;&#9;        translate(345,0)&#10;&#9;        rotate(0)&#10;&#9;      "><text x="0" y="0" text-anchor="middle" dominant-baseline="text-before-edge" transform="translate(0,0)"/></g><g transform="&#10;&#9;        rotate(-13.656846830235821)&#10;&#9;        translate(345,0)&#10;&#9;        rotate(0)&#10;&#9;      "><text x="0" y="0" text-anchor="middle" dominant-baseline="text-before-edge" transform="translate(0,0)"/></g><g transform="&#10;&#9;        rotate(-8.891701595612773)&#10;&#9;        translate(345,0)&#10;&#9;        rotate(0)&#10;&#9;      "><text x="0" y="0" text-anchor="middle" dominant-baseline="text-before-edge" transform="translate(0,0)"/></g><g transform="&#10;&#9;        rotate(-4.126556360989696)&#10;&#9;        translate(345,0)&#10;&#9;        rotate(0)&#10;&#9;      "><text x="0" y="0" text-anchor="middle" dominant-baseline="text-before-edge" transform="translate(0,0)"/></g><g transform="&#10;&#9;        rotate(0.6385888736333385)&#10;&#9;        translate(345,0)&#10;&#9;        rotate(0)&#10;&#9;      "><text x="0" y="0" text-anchor="middle" dominant-baseline="text-before-edge" transform="translate(0,0)"/></g><g transform="&#10;&#9;        rotate(5.403734108256387)&#10;&#9;        translate(345,0)&#10;&#9;        rotate(0)&#10;&#9;      "><text x="0" y="0" text-anchor="middle" dominant-baseline="text-before-edge" transform="translate(0,0)"/></g><g transform="&#10;&#9;        rotate(10.168879342879436)&#10;&#9;        translate(345,0)&#10;&#9;        rotate(0)&#10;&#9;      "><text x="0" y="0" text-anchor="middle" dominant-baseline="text-before-edge" transform="translate(0,0)"/></g><g transform="&#10;&#9;        rotate(14.934024577502498)&#10;&#9;        translate(345,0)&#10;&#9;        rotate(0)&#10;&#9;      "><text x="0" y="0" text-anchor="middle" dominant-baseline="text-before-edge" transform="translate(0,0)"/></g><g transform="&#10;&#9;        rotate(19.699169812125547)&#10;&#9;        translate(345,0)&#10;&#9;        rotate(0)&#10;&#9;      "><text x="0" y="0" text-anchor="middle" dominant-baseline="text-before-edge" transform="translate(0,0)"/></g><g transform="&#10;&#9;        rotate(24.46431504674861)&#10;&#9;        translate(345,0)&#10;&#9;        rotate(0)&#10;&#9;      "><text x="0" y="0" text-anchor="middle" dominant-baseline="text-before-edge" transform="translate(0,0)"/></g><g transform="&#10;&#9;        rotate(29.229460281371658)&#10;&#9;        translate(345,0)&#10;&#9;        rotate(0)&#10;&#9;      "><text x="0" y="0" text-anchor="middle" dominant-baseline="text-before-edge" transform="translate(0,0)"/></g><g transform="&#10;&#9;        rotate(33.99460551599471)&#10;&#9;        translate(345,0)&#10;&#9;        rotate(0)&#10;&#9;      "><text x="0" y="0" text-anchor="middle" dominant-baseline="text-before-edge" transform="translate(0,0)"/></g><g transform="&#10;&#9;        rotate(38.7597507506178)&#10;&#9;        translate(345,0)&#10;&#9;        rotate(0)&#10;&#9;      "><text x="0" y="0" text-anchor="middle" dominant-baseline="text-before-edge" transform="translate(0,0)"/></g><g transform="&#10;&#9;        rotate(43.524895985240846)&#10;&#9;        translate(345,0)&#10;&#9;        rotate(0)&#10;&#9;      "><text x="0" y="0" text-anchor="middle" dominant-baseline="text-before-edge" transform="translate(0,0)"/></g><g transform="&#10;&#9;        rotate(48.29004121986392)&#10;&#9;        translate(345,0)&#10;&#9;        rotate(0)&#10;&#9;      "><text x="0" y="0" text-anchor="middle" dominant-baseline="text-before-edge" transform="translate(0,0)"/></g><g transform="&#10;&#9;        rotate(53.05518645448697)&#10;&#9;        translate(345,0)&#10;&#9;        rotate(0)&#10;&#9;      "><text x="0" y="0" text-anchor="middle" dominant-baseline="text-before-edge" transform="translate(0,0)"/></g><g transform="&#10;&#9;        rotate(57.82033168911005)&#10;&#9;        translate(345,0)&#10;&#9;        rotate(0)&#10;&#9;      "><text x="0" y="0" text-anchor="middle" dominant-baseline="text-before-edge" transform="translate(0,0)"/></g><g transform="&#10;&#9;        rotate(62.585476923733125)&#10;&#9;        translate(345,0)&#10;&#9;        rotate(0)&#10;&#9;      "><text x="0" y="0" text-anchor="middle" dominant-baseline="text-before-edge" transform="translate(0,0)"/></g><g transform="&#10;&#9;        rotate(67.35062215835617)&#10;&#9;        translate(345,0)&#10;&#9;        rotate(0)&#10;&#9;      "><text x="0" y="0" text-anchor="middle" dominant-baseline="text-before-edge" transform="translate(0,0)"/></g><g transform="&#10;&#9;        rotate(72.11576739297925)&#10;&#9;        translate(345,0)&#10;&#9;        rotate(0)&#10;&#9;      "><text x="0" y="0" text-anchor="middle" dominant-baseline="text-before-edge" transform="translate(0,0)"/></g><g transform="&#10;&#9;        rotate(76.88091262760233)&#10;&#9;        translate(345,0)&#10;&#9;        rotate(0)&#10;&#9;      "><text x="0" y="0" text-anchor="middle" dominant-baseline="text-before-edge" transform="translate(0,0)"/></g><g transform="&#10;&#9;        rotate(81.64605786222538)&#10;&#9;        translate(345,0)&#10;&#9;        rotate(0)&#10;&#9;      "><text x="0" y="0" text-anchor="middle" dominant-baseline="text-before-edge" transform="translate(0,0)"/></g><g transform="&#10;&#9;        rotate(86.41120309684845)&#10;&#9;        translate(345,0)&#10;&#9;        rotate(0)&#10;&#9;      "><text x="0" y="0" text-anchor="middle" dominant-baseline="text-before-edge" transform="translate(0,0)"/></g><g transform="&#10;&#9;        rotate(91.17634833147156)&#10;&#9;        translate(345,0)&#10;&#9;        rotate(180)&#10;&#9;      "><text x="0" y="0" text-anchor="middle" dominant-baseline="text-before-edge" transform="translate(0,0)"/></g><g transform="&#10;&#9;        rotate(95.94149356609455)&#10;&#9;        translate(345,0)&#10;&#9;        rotate(180)&#10;&#9;      "><text x="0" y="0" text-anchor="middle" dominant-baseline="text-before-edge" transform="translate(0,0)"/></g><g transform="&#10;&#9;        rotate(100.70663880071766)&#10;&#9;        translate(345,0)&#10;&#9;        rotate(180)&#10;&#9;      "><text x="0" y="0" text-anchor="middle" dominant-baseline="text-before-edge" transform="translate(0,0)"/></g><g transform="&#10;&#9;        rotate(105.47178403534073)&#10;&#9;        translate(345,0)&#10;&#9;        rotate(180)&#10;&#9;      "><text x="0" y="0" text-anchor="middle" dominant-baseline="text-before-edge" transform="translate(0,0)"/></g><g transform="&#10;&#9;        rotate(110.23692926996381)&#10;&#9;        translate(345,0)&#10;&#9;        rotate(180)&#10;&#9;      "><text x="0" y="0" text-anchor="middle" dominant-baseline="text-before-edge" transform="translate(0,0)"/></g><g transform="&#10;&#9;        rotate(115.00207450458686)&#10;&#9;        translate(345,0)&#10;&#9;        rotate(180)&#10;&#9;      "><text x="0" y="0" text-anchor="middle" dominant-baseline="text-before-edge" transform="translate(0,0)"/></g><g transform="&#10;&#9;        rotate(119.76721973920993)&#10;&#9;        translate(345,0)&#10;&#9;        rotate(180)&#10;&#9;      "><text x="0" y="0" text-anchor="middle" dominant-baseline="text-before-edge" transform="translate(0,0)"/></g><g transform="&#10;&#9;        rotate(124.53236497383301)&#10;&#9;        translate(345,0)&#10;&#9;        rotate(180)&#10;&#9;      "><text x="0" y="0" text-anchor="middle" dominant-baseline="text-before-edge" transform="translate(0,0)"/></g><g transform="&#10;&#9;        rotate(129.29751020845603)&#10;&#9;        translate(345,0)&#10;&#9;        rotate(180)&#10;&#9;      "><text x="0" y="0" text-anchor="middle" dominant-baseline="text-before-edge" transform="translate(0,0)"/></g><g transform="&#10;&#9;        rotate(134.06265544307914)&#10;&#9;        translate(345,0)&#10;&#9;        rotate(180)&#10;&#9;      "><text x="0" y="0" text-anchor="middle" dominant-baseline="text-before-edge" transform="translate(0,0)"/></g><g transform="&#10;&#9;        rotate(138.82780067770216)&#10;&#9;        translate(345,0)&#10;&#9;        rotate(180)&#10;&#9;      "><text x="0" y="0" text-anchor="middle" dominant-baseline="text-before-edge" transform="translate(0,0)"/></g><g transform="&#10;&#9;        rotate(143.59294591232523)&#10;&#9;        translate(345,0)&#10;&#9;        rotate(180)&#10;&#9;      "><text x="0" y="0" text-anchor="middle" dominant-baseline="text-before-edge" transform="translate(0,0)"/></g><g transform="&#10;&#9;        rotate(148.35809114694834)&#10;&#9;        translate(345,0)&#10;&#9;        rotate(180)&#10;&#9;      "><text x="0" y="0" text-anchor="middle" dominant-baseline="text-before-edge" transform="translate(0,0)"/></g><g transform="&#10;&#9;        rotate(153.12323638157142)&#10;&#9;        translate(345,0)&#10;&#9;        rotate(180)&#10;&#9;      "><text x="0" y="0" text-anchor="middle" dominant-baseline="text-before-edge" transform="translate(0,0)"/></g><g transform="&#10;&#9;        rotate(157.8883816161945)&#10;&#9;        translate(345,0)&#10;&#9;        rotate(180)&#10;&#9;      "><text x="0" y="0" text-anchor="middle" dominant-baseline="text-before-edge" transform="translate(0,0)"/></g><g transform="&#10;&#9;        rotate(162.6535268508176)&#10;&#9;        translate(345,0)&#10;&#9;        rotate(180)&#10;&#9;      "><text x="0" y="0" text-anchor="middle" dominant-baseline="text-before-edge" transform="translate(0,0)"/></g><g transform="&#10;&#9;        rotate(167.41867208544062)&#10;&#9;        translate(345,0)&#10;&#9;        rotate(180)&#10;&#9;      "><text x="0" y="0" text-anchor="middle" dominant-baseline="text-before-edge" transform="translate(0,0)"/></g><g transform="&#10;&#9;        rotate(172.18381732006367)&#10;&#9;        translate(345,0)&#10;&#9;        rotate(180)&#10;&#9;      "><text x="0" y="0" text-anchor="middle" dominant-baseline="text-before-edge" transform="translate(0,0)"/></g><g transform="&#10;&#9;        rotate(176.94896255468672)&#10;&#9;        translate(345,0)&#10;&#9;        rotate(180)&#10;&#9;      "><text x="0" y="0" text-anchor="middle" dominant-baseline="text-before-edge" transform="translate(0,0)"/></g><g transform="&#10;&#9;        rotate(181.71410778930976)&#10;&#9;        translate(345,0)&#10;&#9;        rotate(180)&#10;&#9;      "><text x="0" y="0" text-anchor="middle" dominant-baseline="text-before-edge" transform="translate(0,0)"/></g><g transform="&#10;&#9;        rotate(186.4792530239328)&#10;&#9;        translate(345,0)&#10;&#9;        rotate(180)&#10;&#9;      "><text x="0" y="0" text-anchor="middle" dominant-baseline="text-before-edge" transform="translate(0,0)"/></g><g transform="&#10;&#9;        rotate(191.24439825855586)&#10;&#9;        translate(345,0)&#10;&#9;        rotate(180)&#10;&#9;      "><text x="0" y="0" text-anchor="middle" dominant-baseline="text-before-edge" transform="translate(0,0)"/></g><g transform="&#10;&#9;        rotate(196.00954349317897)&#10;&#9;        translate(345,0)&#10;&#9;        rotate(180)&#10;&#9;      "><text x="0" y="0" text-anchor="middle" dominant-baseline="text-before-edge" transform="translate(0,0)"/></g><g transform="&#10;&#9;        rotate(200.77468872780207)&#10;&#9;        translate(345,0)&#10;&#9;        rotate(180)&#10;&#9;      "><text x="0" y="0" text-anchor="middle" dominant-baseline="text-before-edge" transform="translate(0,0)"/></g><g transform="&#10;&#9;        rotate(205.53983396242506)&#10;&#9;        translate(345,0)&#10;&#9;        rotate(180)&#10;&#9;      "><text x="0" y="0" text-anchor="middle" dominant-baseline="text-before-edge" transform="translate(0,0)"/></g><g transform="&#10;&#9;        rotate(210.30497919704817)&#10;&#9;        translate(345,0)&#10;&#9;        rotate(180)&#10;&#9;      "><text x="0" y="0" text-anchor="middle" dominant-baseline="text-before-edge" transform="translate(0,0)"/></g><g transform="&#10;&#9;        rotate(215.07012443167122)&#10;&#9;        translate(345,0)&#10;&#9;        rotate(180)&#10;&#9;      "><text x="0" y="0" text-anchor="middle" dominant-baseline="text-before-edge" transform="translate(0,0)"/></g><g transform="&#10;&#9;        rotate(219.83526966629432)&#10;&#9;        translate(345,0)&#10;&#9;        rotate(180)&#10;&#9;      "><text x="0" y="0" text-anchor="middle" dominant-baseline="text-before-edge" transform="translate(0,0)"/></g><g transform="&#10;&#9;        rotate(224.60041490091731)&#10;&#9;        translate(345,0)&#10;&#9;        rotate(180)&#10;&#9;      "><text x="0" y="0" text-anchor="middle" dominant-baseline="text-before-edge" transform="translate(0,0)"/></g><g transform="&#10;&#9;        rotate(229.36556013554048)&#10;&#9;        translate(345,0)&#10;&#9;        rotate(180)&#10;&#9;      "><text x="0" y="0" text-anchor="middle" dominant-baseline="text-before-edge" transform="translate(0,0)"/></g><g transform="&#10;&#9;        rotate(234.13070537016353)&#10;&#9;        translate(345,0)&#10;&#9;        rotate(180)&#10;&#9;      "><text x="0" y="0" text-anchor="middle" dominant-baseline="text-before-edge" transform="translate(0,0)"/></g><g transform="&#10;&#9;        rotate(238.89585060478663)&#10;&#9;        translate(345,0)&#10;&#9;        rotate(180)&#10;&#9;      "><text x="0" y="0" text-anchor="middle" dominant-baseline="text-before-edge" transform="translate(0,0)"/></g><g transform="&#10;&#9;        rotate(243.66099583940962)&#10;&#9;        translate(345,0)&#10;&#9;        rotate(180)&#10;&#9;      "><text x="0" y="0" text-anchor="middle" dominant-baseline="text-before-edge" transform="translate(0,0)"/></g><g transform="&#10;&#9;        rotate(248.42614107403267)&#10;&#9;        translate(345,0)&#10;&#9;        rotate(180)&#10;&#9;      "><text x="0" y="0" text-anchor="middle" dominant-baseline="text-before-edge" transform="translate(0,0)"/></g><g transform="&#10;&#9;        rotate(253.19128630865578)&#10;&#9;        translate(345,0)&#10;&#9;        rotate(180)&#10;&#9;      "><text x="0" y="0" text-anchor="middle" dominant-baseline="text-before-edge" transform="translate(0,0)"/></g><g transform="&#10;&#9;        rotate(257.9564315432788)&#10;&#9;        translate(345,0)&#10;&#9;        rotate(180)&#10;&#9;      "><text x="0" y="0" text-anchor="middle" dominant-baseline="text-before-edge" transform="translate(0,0)"/></g><g transform="&#10;&#9;        rotate(262.72157677790193)&#10;&#9;        translate(345,0)&#10;&#9;        rotate(180)&#10;&#9;      "><text x="0" y="0" text-anchor="middle" dominant-baseline="text-before-edge" transform="translate(0,0)"/></g><g transform="&#10;&#9;        rotate(267.4867220125249)&#10;&#9;        translate(345,0)&#10;&#9;        rotate(180)&#10;&#9;      "><text x="0" y="0" text-anchor="middle" dominant-baseline="text-before-edge" transform="translate(0,0)"/></g></g></g></svg>