<svg xmlns="http://www.w3.org/2000/svg" width="1200" height="800"><rect width="1200" height="800" x="0" y="0" fill="#faf8f2" id="background"/><g transform="translate(20,20)" id="viz"><g id="nodes"><g transform="translate(481,381)"><path id="p_1242" d="M-6.980486755139912e-14,380A380,380,0,1,1,6.980486755139912e-14,-380A380,380,0,1,1,-6.980486755139912e-14,380Z" fill="none" stroke="#ccc"/><text fill="black" text-anchor="middle" font-family="'Arial', sans-serif" font-size="8" dominant-baseline="middle"><textPath href="#p_1242" startOffset="50%"/></text></g><g transform="translate(373.6155483238824,300.8191050492198)" id="Soviet Union"><path id="p_804.2387534945221" d="M-2.384462635948492e-14,129.80410012141994A129.80410012141994,129.80410012141994,0,1,1,2.384462635948492e-14,-129.80410012141994A129.80410012141994,129.80410012141994,0,1,1,-2.384462635948492e-14,129.80410012141994Z" fill="none" stroke="#ccc"/><text fill="black" text-anchor="middle" font-family="'Arial', sans-serif" font-size="8" dominant-baseline="middle"><textPath href="#p_804.2387534945221" startOffset="50%">Soviet Union</textPath></text></g><g transform="translate(539.4428290049113,300.8191050492198)" id="Kingdom of Denmark"><path id="p_867.1275511312359" d="M-4.935133794089225e-15,26.865617077104776A26.865617077104776,26.865617077104776,0,1,1,4.935133794089225e-15,-26.865617077104776A26.865617077104776,26.865617077104776,0,1,1,-4.935133794089225e-15,26.865617077104776Z" fill="none" stroke="#ccc"/><text fill="black" text-anchor="middle" font-family="'Arial', sans-serif" font-size="8" dominant-baseline="middle"><textPath href="#p_867.1275511312359" startOffset="50%">Kingdom of Denmark</textPath></text></g><g transform="translate(624.3607668580224,502.57312611853735)" id="United States of America"><path id="p_1309.8073574046332" d="M-3.3593310429124116e-14,182.8734644280734A182.8734644280734,182.8734644280734,0,1,1,3.3593310429124116e-14,-182.8734644280734A182.8734644280734,182.8734644280734,0,1,1,-3.3593310429124116e-14,182.8734644280734Z" fill="none" stroke="#ccc"/><text fill="black" text-anchor="middle" font-family="'Arial', sans-serif" font-size="8" dominant-baseline="middle"><textPath href="#p_1309.8073574046332" startOffset="50%">United States of America</textPath></text></g><g transform="translate(541.3524821448218,215.6648821523923)" id="Australia"><path id="p_806.1698167101715" d="M-9.029159027665638e-15,49.15245241295744A49.15245241295744,49.15245241295744,0,1,1,9.029159027665638e-15,-49.15245241295744A49.15245241295744,49.15245241295744,0,1,1,-9.029159027665638e-15,49.15245241295744Z" fill="none" stroke="#ccc"/><text fill="black" text-anchor="middle" font-family="'Arial', sans-serif" font-size="8" dominant-baseline="middle"><textPath href="#p_806.1698167101715" startOffset="50%">Australia</textPath></text></g><g transform="translate(466.86805529550276,133.4873028488499)" id="Canada"><path id="p_652.9555959825362" d="M-9.66250693543815e-15,52.60023783818357A52.60023783818357,52.60023783818357,0,1,1,9.66250693543815e-15,-52.60023783818357A52.60023783818357,52.60023783818357,0,1,1,-9.66250693543815e-15,52.60023783818357Z" fill="none" stroke="#ccc"/><text fill="black" text-anchor="middle" font-family="'Arial', sans-serif" font-size="8" dominant-baseline="middle"><textPath href="#p_652.9555959825362" startOffset="50%">Canada</textPath></text></g><g transform="translate(379.9462972311089,492.2763684329563)" id="People's Republic of China"><path id="p_924.8229035022488" d="M-9.66250693543815e-15,52.60023783818357A52.60023783818357,52.60023783818357,0,1,1,9.66250693543815e-15,-52.60023783818357A52.60023783818357,52.60023783818357,0,1,1,-9.66250693543815e-15,52.60023783818357Z" fill="none" stroke="#ccc"/><text fill="black" text-anchor="middle" font-family="'Arial', sans-serif" font-size="8" dominant-baseline="middle"><textPath href="#p_924.8229035022488" startOffset="50%">People's Republic of China</textPath></text></g><g transform="translate(378.2585363221766,135.05683648211658)" id="South Korea"><path id="p_540.180989881398" d="M-4.935133794089225e-15,26.865617077104776A26.865617077104776,26.865617077104776,0,1,1,4.935133794089225e-15,-26.865617077104776A26.865617077104776,26.865617077104776,0,1,1,-4.935133794089225e-15,26.865617077104776Z" fill="none" stroke="#ccc"/><text fill="black" text-anchor="middle" font-family="'Arial', sans-serif" font-size="8" dominant-baseline="middle"><textPath href="#p_540.180989881398" startOffset="50%">South Korea</textPath></text></g><g transform="translate(273.7624548293675,460.2439474182448)" id="Japan"><path id="p_783.1588546605698" d="M-9.029159027665638e-15,49.15245241295744A49.15245241295744,49.15245241295744,0,1,1,9.029159027665638e-15,-49.15245241295744A49.15245241295744,49.15245241295744,0,1,1,-9.029159027665638e-15,49.15245241295744Z" fill="none" stroke="#ccc"/><text fill="black" text-anchor="middle" font-family="'Arial', sans-serif" font-size="8" dominant-baseline="middle"><textPath href="#p_783.1588546605698" startOffset="50%">Japan</textPath></text></g><g transform="translate(316.2010311574709,145.24834868218082)" id="Belgium"><path id="p_488.31499691675646" d="M-4.935133794089225e-15,26.865617077104776A26.865617077104776,26.865617077104776,0,1,1,4.935133794089225e-15,-26.865617077104776A26.865617077104776,26.865617077104776,0,1,1,-4.935133794089225e-15,26.865617077104776Z" fill="none" stroke="#ccc"/><text fill="black" text-anchor="middle" font-family="'Arial', sans-serif" font-size="8" dominant-baseline="middle"><textPath href="#p_488.31499691675646" startOffset="50%">Belgium</textPath></text></g><g transform="translate(598.3950802505518,278.9185812823683)" id="Azerbaijan"><path id="p_904.1792786100249" d="M-4.935133794089225e-15,26.865617077104776A26.865617077104776,26.865617077104776,0,1,1,4.935133794089225e-15,-26.865617077104776A26.865617077104776,26.865617077104776,0,1,1,-4.935133794089225e-15,26.865617077104776Z" fill="none" stroke="#ccc"/><text fill="black" text-anchor="middle" font-family="'Arial', sans-serif" font-size="8" dominant-baseline="middle"><textPath href="#p_904.1792786100249" startOffset="50%">Azerbaijan</textPath></text></g><g transform="translate(235.6524711012831,172.9398261644689)" id="United Kingdom"><path id="p_457.7447496787094" d="M-9.029159027665638e-15,49.15245241295744A49.15245241295744,49.15245241295744,0,1,1,9.029159027665638e-15,-49.15245241295744A49.15245241295744,49.15245241295744,0,1,1,-9.029159027665638e-15,49.15245241295744Z" fill="none" stroke="#ccc"/><text fill="black" text-anchor="middle" font-family="'Arial', sans-serif" font-size="8" dominant-baseline="middle"><textPath href="#p_457.7447496787094" startOffset="50%">United Kingdom</textPath></text></g><g transform="translate(660.7968346540025,286.7302338324345)" id="France"><path id="p_974.3926855635417" d="M-4.935133794089225e-15,26.865617077104776A26.865617077104776,26.865617077104776,0,1,1,4.935133794089225e-15,-26.865617077104776A26.865617077104776,26.865617077104776,0,1,1,-4.935133794089225e-15,26.865617077104776Z" fill="none" stroke="#ccc"/><text fill="black" text-anchor="middle" font-family="'Arial', sans-serif" font-size="8" dominant-baseline="middle"><textPath href="#p_974.3926855635417" startOffset="50%">France</textPath></text></g><g transform="translate(231.51019449355047,386.286967025643)" id="Kazakhstan"><path id="p_644.6627785962982" d="M-4.935133794089225e-15,26.865617077104776A26.865617077104776,26.865617077104776,0,1,1,4.935133794089225e-15,-26.865617077104776A26.865617077104776,26.865617077104776,0,1,1,-4.935133794089225e-15,26.865617077104776Z" fill="none" stroke="#ccc"/><text fill="black" text-anchor="middle" font-family="'Arial', sans-serif" font-size="8" dominant-baseline="middle"><textPath href="#p_644.6627785962982" startOffset="50%">Kazakhstan</textPath></text></g><g transform="translate(351.3287129880298,287.9517946686804)" id="Aleksandr Pavlovich Aleksandrov"><path id="p_656.9885612513107" d="M-3.2529166730636003e-15,17.708053594600543A17.708053594600543,17.708053594600543,0,1,1,3.2529166730636003e-15,-17.708053594600543A17.708053594600543,17.708053594600543,0,1,1,-3.2529166730636003e-15,17.708053594600543Z" fill="#e30003" stroke="none"/></g><g transform="translate(395.90238365973505,287.9517946686804)" id="Aleksei Gubarev"><path id="p_701.5622319230159" d="M-3.2529166730636003e-15,17.708053594600543A17.708053594600543,17.708053594600543,0,1,1,3.2529166730636003e-15,-17.708053594600543A17.708053594600543,17.708053594600543,0,1,1,-3.2529166730636003e-15,17.708053594600543Z" fill="#e30003" stroke="none"/></g><g transform="translate(373.6155483238824,326.5537258102986)" id="Anatolii Levchenko"><path id="p_717.8773277287816" d="M-3.2529166730636003e-15,17.708053594600543A17.708053594600543,17.708053594600543,0,1,1,3.2529166730636003e-15,-17.708053594600543A17.708053594600543,17.708053594600543,0,1,1,-3.2529166730636003e-15,17.708053594600543Z" fill="#e30003" stroke="none"/></g><g transform="translate(373.6155483238824,249.3498635270622)" id="Anatoly Artsebarsky"><path id="p_640.6734654455452" d="M-3.2529166730636003e-15,17.708053594600543A17.708053594600543,17.708053594600543,0,1,1,3.2529166730636003e-15,-17.708053594600543A17.708053594600543,17.708053594600543,0,1,1,-3.2529166730636003e-15,17.708053594600543Z" fill="#e30003" stroke="none"/></g><g transform="translate(329.0418776521771,249.3498635270622)" id="Anatoly Berezovoy"><path id="p_596.0997947738398" d="M-3.2529166730636003e-15,17.708053594600543A17.708053594600543,17.708053594600543,0,1,1,3.2529166730636003e-15,-17.708053594600543A17.708053594600543,17.708053594600543,0,1,1,-3.2529166730636003e-15,17.708053594600543Z" fill="#e30003" stroke="none"/></g><g transform="translate(418.18921899558774,249.3498635270622)" id="Anatoly Filipchenko"><path id="p_685.2471361172505" d="M-3.2529166730636003e-15,17.708053594600543A17.708053594600543,17.708053594600543,0,1,1,3.2529166730636003e-15,-17.708053594600543A17.708053594600543,17.708053594600543,0,1,1,-3.2529166730636003e-15,17.708053594600543Z" fill="#e30003" stroke="none"/></g><g transform="translate(418.18921899558774,326.5537258102986)" id="Gennadi Sarafanov"><path id="p_762.4509984004868" d="M-3.2529166730636003e-15,17.708053594600543A17.708053594600543,17.708053594600543,0,1,1,3.2529166730636003e-15,-17.708053594600543A17.708053594600543,17.708053594600543,0,1,1,-3.2529166730636003e-15,17.708053594600543Z" fill="#e30003" stroke="none"/></g><g transform="translate(329.0418776521771,326.5537258102986)" id="Gennadi Strekalov"><path id="p_673.3036570570763" d="M-3.2529166730636003e-15,17.708053594600543A17.708053594600543,17.708053594600543,0,1,1,3.2529166730636003e-15,-17.708053594600543A17.708053594600543,17.708053594600543,0,1,1,-3.2529166730636003e-15,17.708053594600543Z" fill="#e30003" stroke="none"/></g><g transform="translate(306.7550423163244,287.9517946686804)" id="Maksim Surayev"><path id="p_612.4148905796054" d="M-3.2529166730636003e-15,17.708053594600543A17.708053594600543,17.708053594600543,0,1,1,3.2529166730636003e-15,-17.708053594600543A17.708053594600543,17.708053594600543,0,1,1,-3.2529166730636003e-15,17.708053594600543Z" fill="#e30003" stroke="none"/></g><g transform="translate(440.4760543314404,287.9517946686804)" id="Oleg Grigoryevich Makarov"><path id="p_746.1359025947214" d="M-3.2529166730636003e-15,17.708053594600543A17.708053594600543,17.708053594600543,0,1,1,3.2529166730636003e-15,-17.708053594600543A17.708053594600543,17.708053594600543,0,1,1,-3.2529166730636003e-15,17.708053594600543Z" fill="#e30003" stroke="none"/></g><g transform="translate(462.76288966729305,326.5537258102986)" id="Roman Romanenko"><path id="p_807.0246690721922" d="M-3.2529166730636003e-15,17.708053594600543A17.708053594600543,17.708053594600543,0,1,1,3.2529166730636003e-15,-17.708053594600543A17.708053594600543,17.708053594600543,0,1,1,-3.2529166730636003e-15,17.708053594600543Z" fill="#e30003" stroke="none"/></g><g transform="translate(284.4682069804718,326.5537258102986)" id="Toktar Aubakirov"><path id="p_628.7299863853709" d="M-3.2529166730636003e-15,17.708053594600543A17.708053594600543,17.708053594600543,0,1,1,3.2529166730636003e-15,-17.708053594600543A17.708053594600543,17.708053594600543,0,1,1,-3.2529166730636003e-15,17.708053594600543Z" fill="#e30003" stroke="none"/></g><g transform="translate(351.3287129880298,210.74793238544402)" id="Valery Ryumin"><path id="p_579.7846989680744" d="M-3.2529166730636003e-15,17.708053594600543A17.708053594600543,17.708053594600543,0,1,1,3.2529166730636003e-15,-17.708053594600543A17.708053594600543,17.708053594600543,0,1,1,-3.2529166730636003e-15,17.708053594600543Z" fill="#e30003" stroke="none"/></g><g transform="translate(395.90238365973505,210.74793238544402)" id="Viktor Afanasyev"><path id="p_624.3583696397797" d="M-3.2529166730636003e-15,17.708053594600543A17.708053594600543,17.708053594600543,0,1,1,3.2529166730636003e-15,-17.708053594600543A17.708053594600543,17.708053594600543,0,1,1,-3.2529166730636003e-15,17.708053594600543Z" fill="#e30003" stroke="none"/></g><g transform="translate(395.90238365973505,365.15565695191674)" id="Vladimir Aksyonov"><path id="p_778.7660942062523" d="M-3.2529166730636003e-15,17.708053594600543A17.708053594600543,17.708053594600543,0,1,1,3.2529166730636003e-15,-17.708053594600543A17.708053594600543,17.708053594600543,0,1,1,-3.2529166730636003e-15,17.708053594600543Z" fill="#e30003" stroke="none"/></g><g transform="translate(351.3287129880298,365.15565695191674)" id="Vladimir Dzhanibekov"><path id="p_734.1924235345471" d="M-3.2529166730636003e-15,17.708053594600543A17.708053594600543,17.708053594600543,0,1,1,3.2529166730636003e-15,-17.708053594600543A17.708053594600543,17.708053594600543,0,1,1,-3.2529166730636003e-15,17.708053594600543Z" fill="#e30003" stroke="none"/></g><g transform="translate(284.4682069804718,249.3498635270622)" id="Vladimir Titov"><path id="p_551.5261241021345" d="M-3.2529166730636003e-15,17.708053594600543A17.708053594600543,17.708053594600543,0,1,1,3.2529166730636003e-15,-17.708053594600543A17.708053594600543,17.708053594600543,0,1,1,-3.2529166730636003e-15,17.708053594600543Z" fill="#e30003" stroke="none"/></g><g transform="translate(462.76288966729305,249.3498635270622)" id="Yuri Baturin"><path id="p_729.8208067889558" d="M-3.2529166730636003e-15,17.708053594600543A17.708053594600543,17.708053594600543,0,1,1,3.2529166730636003e-15,-17.708053594600543A17.708053594600543,17.708053594600543,0,1,1,-3.2529166730636003e-15,17.708053594600543Z" fill="#e30003" stroke="none"/></g><g transform="translate(373.6155483238824,403.75758809353493)" id="Yury Glazkov"><path id="p_795.0811900120178" d="M-3.2529166730636003e-15,17.708053594600543A17.708053594600543,17.708053594600543,0,1,1,3.2529166730636003e-15,-17.708053594600543A17.708053594600543,17.708053594600543,0,1,1,-3.2529166730636003e-15,17.708053594600543Z" fill="#e30003" stroke="none"/></g><g transform="translate(539.4428290049113,300.8191050492198)" id="Andreas Mogensen"><path id="p_857.9699876487317" d="M-3.2529166730636003e-15,17.708053594600543A17.708053594600543,17.708053594600543,0,1,1,3.2529166730636003e-15,-17.708053594600543A17.708053594600543,17.708053594600543,0,1,1,-3.2529166730636003e-15,17.708053594600543Z" fill="#e7f5a3" stroke="none"/></g><g transform="translate(602.0739315221698,502.57312611853735)" id="Andrew J. Feustel"><path id="p_1122.3551112353077" d="M-3.2529166730636003e-15,17.708053594600543A17.708053594600543,17.708053594600543,0,1,1,3.2529166730636003e-15,-17.708053594600543A17.708053594600543,17.708053594600543,0,1,1,-3.2529166730636003e-15,17.708053594600543Z" fill="#4758cd" stroke="none"/></g><g transform="translate(646.6476021938751,502.57312611853735)" id="Andrew M. Allen"><path id="p_1166.928781907013" d="M-3.2529166730636003e-15,17.708053594600543A17.708053594600543,17.708053594600543,0,1,1,3.2529166730636003e-15,-17.708053594600543A17.708053594600543,17.708053594600543,0,1,1,-3.2529166730636003e-15,17.708053594600543Z" fill="#4758cd" stroke="none"/></g><g transform="translate(624.3607668580224,541.1750572601555)" id="Brewster H. Shaw"><path id="p_1183.2438777127786" d="M-3.2529166730636003e-15,17.708053594600543A17.708053594600543,17.708053594600543,0,1,1,3.2529166730636003e-15,-17.708053594600543A17.708053594600543,17.708053594600543,0,1,1,-3.2529166730636003e-15,17.708053594600543Z" fill="#4758cd" stroke="none"/></g><g transform="translate(624.3607668580224,463.97119497691915)" id="C. Gordon Fullerton"><path id="p_1106.040015429542" d="M-3.2529166730636003e-15,17.708053594600543A17.708053594600543,17.708053594600543,0,1,1,3.2529166730636003e-15,-17.708053594600543A17.708053594600543,17.708053594600543,0,1,1,-3.2529166730636003e-15,17.708053594600543Z" fill="#4758cd" stroke="none"/></g><g transform="translate(579.7870961863171,463.97119497691915)" id="David Wolf"><path id="p_1061.4663447578369" d="M-3.2529166730636003e-15,17.708053594600543A17.708053594600543,17.708053594600543,0,1,1,3.2529166730636003e-15,-17.708053594600543A17.708053594600543,17.708053594600543,0,1,1,-3.2529166730636003e-15,17.708053594600543Z" fill="#4758cd" stroke="none"/></g><g transform="translate(668.9344375297278,463.97119497691915)" id="Douglas H. Wheelock"><path id="p_1150.6136861012476" d="M-3.2529166730636003e-15,17.708053594600543A17.708053594600543,17.708053594600543,0,1,1,3.2529166730636003e-15,-17.708053594600543A17.708053594600543,17.708053594600543,0,1,1,-3.2529166730636003e-15,17.708053594600543Z" fill="#4758cd" stroke="none"/></g><g transform="translate(668.9344375297278,541.1750572601555)" id="Eric Boe"><path id="p_1227.8175483844839" d="M-3.2529166730636003e-15,17.708053594600543A17.708053594600543,17.708053594600543,0,1,1,3.2529166730636003e-15,-17.708053594600543A17.708053594600543,17.708053594600543,0,1,1,-3.2529166730636003e-15,17.708053594600543Z" fill="#4758cd" stroke="none"/></g><g transform="translate(579.7870961863171,541.1750572601555)" id="George Nelson"><path id="p_1138.6702070410734" d="M-3.2529166730636003e-15,17.708053594600543A17.708053594600543,17.708053594600543,0,1,1,3.2529166730636003e-15,-17.708053594600543A17.708053594600543,17.708053594600543,0,1,1,-3.2529166730636003e-15,17.708053594600543Z" fill="#4758cd" stroke="none"/></g><g transform="translate(557.5002608504644,502.57312611853735)" id="Gregory Chamitoff"><path id="p_1077.7814405636025" d="M-3.2529166730636003e-15,17.708053594600543A17.708053594600543,17.708053594600543,0,1,1,3.2529166730636003e-15,-17.708053594600543A17.708053594600543,17.708053594600543,0,1,1,-3.2529166730636003e-15,17.708053594600543Z" fill="#4758cd" stroke="none"/></g><g transform="translate(691.2212728655804,502.57312611853735)" id="Gregory H. Johnson"><path id="p_1211.5024525787185" d="M-3.2529166730636003e-15,17.708053594600543A17.708053594600543,17.708053594600543,0,1,1,3.2529166730636003e-15,-17.708053594600543A17.708053594600543,17.708053594600543,0,1,1,-3.2529166730636003e-15,17.708053594600543Z" fill="#4758cd" stroke="none"/></g><g transform="translate(713.5081082014331,541.1750572601555)" id="Guion Bluford"><path id="p_1272.3912190561891" d="M-3.2529166730636003e-15,17.708053594600543A17.708053594600543,17.708053594600543,0,1,1,3.2529166730636003e-15,-17.708053594600543A17.708053594600543,17.708053594600543,0,1,1,-3.2529166730636003e-15,17.708053594600543Z" fill="#4758cd" stroke="none"/></g><g transform="translate(535.2134255146118,541.1750572601555)" id="Henry Hartsfield"><path id="p_1094.096536369368" d="M-3.2529166730636003e-15,17.708053594600543A17.708053594600543,17.708053594600543,0,1,1,3.2529166730636003e-15,-17.708053594600543A17.708053594600543,17.708053594600543,0,1,1,-3.2529166730636003e-15,17.708053594600543Z" fill="#4758cd" stroke="none"/></g><g transform="translate(602.0739315221698,425.36926383530096)" id="Jake Garn"><path id="p_1045.1512489520715" d="M-3.2529166730636003e-15,17.708053594600543A17.708053594600543,17.708053594600543,0,1,1,3.2529166730636003e-15,-17.708053594600543A17.708053594600543,17.708053594600543,0,1,1,-3.2529166730636003e-15,17.708053594600543Z" fill="#4758cd" stroke="none"/></g><g transform="translate(646.6476021938751,425.36926383530096)" id="James S. Voss"><path id="p_1089.7249196237767" d="M-3.2529166730636003e-15,17.708053594600543A17.708053594600543,17.708053594600543,0,1,1,3.2529166730636003e-15,-17.708053594600543A17.708053594600543,17.708053594600543,0,1,1,-3.2529166730636003e-15,17.708053594600543Z" fill="#4758cd" stroke="none"/></g><g transform="translate(646.6476021938751,579.7769884017737)" id="John Danny Olivas"><path id="p_1244.1326441902493" d="M-3.2529166730636003e-15,17.708053594600543A17.708053594600543,17.708053594600543,0,1,1,3.2529166730636003e-15,-17.708053594600543A17.708053594600543,17.708053594600543,0,1,1,-3.2529166730636003e-15,17.708053594600543Z" fill="#4758cd" stroke="none"/></g><g transform="translate(602.0739315221698,579.7769884017737)" id="John L. Finley"><path id="p_1199.558973518544" d="M-3.2529166730636003e-15,17.708053594600543A17.708053594600543,17.708053594600543,0,1,1,3.2529166730636003e-15,-17.708053594600543A17.708053594600543,17.708053594600543,0,1,1,-3.2529166730636003e-15,17.708053594600543Z" fill="#4758cd" stroke="none"/></g><g transform="translate(535.2134255146118,463.97119497691915)" id="John M. Lounge"><path id="p_1016.8926740861315" d="M-3.2529166730636003e-15,17.708053594600543A17.708053594600543,17.708053594600543,0,1,1,3.2529166730636003e-15,-17.708053594600543A17.708053594600543,17.708053594600543,0,1,1,-3.2529166730636003e-15,17.708053594600543Z" fill="#4758cd" stroke="none"/></g><g transform="translate(713.5081082014331,463.97119497691915)" id="Kathryn D. Sullivan"><path id="p_1195.1873567729529" d="M-3.2529166730636003e-15,17.708053594600543A17.708053594600543,17.708053594600543,0,1,1,3.2529166730636003e-15,-17.708053594600543A17.708053594600543,17.708053594600543,0,1,1,-3.2529166730636003e-15,17.708053594600543Z" fill="#4758cd" stroke="none"/></g><g transform="translate(624.3607668580224,618.3789195433919)" id="Kenneth Cockrell"><path id="p_1260.4477399960151" d="M-3.2529166730636003e-15,17.708053594600543A17.708053594600543,17.708053594600543,0,1,1,3.2529166730636003e-15,-17.708053594600543A17.708053594600543,17.708053594600543,0,1,1,-3.2529166730636003e-15,17.708053594600543Z" fill="#4758cd" stroke="none"/></g><g transform="translate(624.3607668580224,386.76733269368276)" id="Mark L. Polansky"><path id="p_1028.8361531463058" d="M-3.2529166730636003e-15,17.708053594600543A17.708053594600543,17.708053594600543,0,1,1,3.2529166730636003e-15,-17.708053594600543A17.708053594600543,17.708053594600543,0,1,1,-3.2529166730636003e-15,17.708053594600543Z" fill="#4758cd" stroke="none"/></g><g transform="translate(691.2212728655804,425.36926383530096)" id="Owen K. Garriott"><path id="p_1134.298590295482" d="M-3.2529166730636003e-15,17.708053594600543A17.708053594600543,17.708053594600543,0,1,1,3.2529166730636003e-15,-17.708053594600543A17.708053594600543,17.708053594600543,0,1,1,-3.2529166730636003e-15,17.708053594600543Z" fill="#4758cd" stroke="none"/></g><g transform="translate(691.2212728655804,579.7769884017737)" id="Paul Scully-Power"><path id="p_1288.7063148619548" d="M-3.2529166730636003e-15,17.708053594600543A17.708053594600543,17.708053594600543,0,1,1,3.2529166730636003e-15,-17.708053594600543A17.708053594600543,17.708053594600543,0,1,1,-3.2529166730636003e-15,17.708053594600543Z" fill="#4758cd" stroke="none"/></g><g transform="translate(557.5002608504644,579.7769884017737)" id="Piers Sellers"><path id="p_1154.9853028468387" d="M-3.2529166730636003e-15,17.708053594600543A17.708053594600543,17.708053594600543,0,1,1,3.2529166730636003e-15,-17.708053594600543A17.708053594600543,17.708053594600543,0,1,1,-3.2529166730636003e-15,17.708053594600543Z" fill="#4758cd" stroke="none"/></g><g transform="translate(557.5002608504644,425.36926383530096)" id="Richard E. Lawyer"><path id="p_1000.5775782803659" d="M-3.2529166730636003e-15,17.708053594600543A17.708053594600543,17.708053594600543,0,1,1,3.2529166730636003e-15,-17.708053594600543A17.708053594600543,17.708053594600543,0,1,1,-3.2529166730636003e-15,17.708053594600543Z" fill="#4758cd" stroke="none"/></g><g transform="translate(735.7949435372857,579.7769884017737)" id="Richard F. Gordon"><path id="p_1333.27998553366" d="M-3.2529166730636003e-15,17.708053594600543A17.708053594600543,17.708053594600543,0,1,1,3.2529166730636003e-15,-17.708053594600543A17.708053594600543,17.708053594600543,0,1,1,-3.2529166730636003e-15,17.708053594600543Z" fill="#4758cd" stroke="none"/></g><g transform="translate(512.9265901787592,425.36926383530096)" id="Richard M. Linnehan"><path id="p_956.0039076086606" d="M-3.2529166730636003e-15,17.708053594600543A17.708053594600543,17.708053594600543,0,1,1,3.2529166730636003e-15,-17.708053594600543A17.708053594600543,17.708053594600543,0,1,1,-3.2529166730636003e-15,17.708053594600543Z" fill="#4758cd" stroke="none"/></g><g transform="translate(735.7949435372857,425.36926383530096)" id="Richard R. Arnold"><path id="p_1178.8722609671872" d="M-3.2529166730636003e-15,17.708053594600543A17.708053594600543,17.708053594600543,0,1,1,3.2529166730636003e-15,-17.708053594600543A17.708053594600543,17.708053594600543,0,1,1,-3.2529166730636003e-15,17.708053594600543Z" fill="#4758cd" stroke="none"/></g><g transform="translate(512.9265901787592,579.7769884017737)" id="Robert A. Parker"><path id="p_1110.4116321751335" d="M-3.2529166730636003e-15,17.708053594600543A17.708053594600543,17.708053594600543,0,1,1,3.2529166730636003e-15,-17.708053594600543A17.708053594600543,17.708053594600543,0,1,1,-3.2529166730636003e-15,17.708053594600543Z" fill="#4758cd" stroke="none"/></g><g transform="translate(512.9265901787592,502.57312611853735)" id="Robert F. Overmyer"><path id="p_1033.2077698918972" d="M-3.2529166730636003e-15,17.708053594600543A17.708053594600543,17.708053594600543,0,1,1,3.2529166730636003e-15,-17.708053594600543A17.708053594600543,17.708053594600543,0,1,1,-3.2529166730636003e-15,17.708053594600543Z" fill="#4758cd" stroke="none"/></g><g transform="translate(490.6397548429065,463.97119497691915)" id="Robert L. Behnken"><path id="p_972.3190034144262" d="M-3.2529166730636003e-15,17.708053594600543A17.708053594600543,17.708053594600543,0,1,1,3.2529166730636003e-15,-17.708053594600543A17.708053594600543,17.708053594600543,0,1,1,-3.2529166730636003e-15,17.708053594600543Z" fill="#4758cd" stroke="none"/></g><g transform="translate(735.7949435372857,502.57312611853735)" id="Robert L. Gibson"><path id="p_1256.0761232504237" d="M-3.2529166730636003e-15,17.708053594600543A17.708053594600543,17.708053594600543,0,1,1,3.2529166730636003e-15,-17.708053594600543A17.708053594600543,17.708053594600543,0,1,1,-3.2529166730636003e-15,17.708053594600543Z" fill="#4758cd" stroke="none"/></g><g transform="translate(758.0817788731383,541.1750572601555)" id="Ronald J. Grabe"><path id="p_1316.9648897278944" d="M-3.2529166730636003e-15,17.708053594600543A17.708053594600543,17.708053594600543,0,1,1,3.2529166730636003e-15,-17.708053594600543A17.708053594600543,17.708053594600543,0,1,1,-3.2529166730636003e-15,17.708053594600543Z" fill="#4758cd" stroke="none"/></g><g transform="translate(668.9344375297278,618.3789195433919)" id="Shane Kimbrough"><path id="p_1305.0214106677204" d="M-3.2529166730636003e-15,17.708053594600543A17.708053594600543,17.708053594600543,0,1,1,3.2529166730636003e-15,-17.708053594600543A17.708053594600543,17.708053594600543,0,1,1,-3.2529166730636003e-15,17.708053594600543Z" fill="#4758cd" stroke="none"/></g><g transform="translate(579.7870961863171,618.3789195433919)" id="Stephen Bowen"><path id="p_1215.8740693243096" d="M-3.2529166730636003e-15,17.708053594600543A17.708053594600543,17.708053594600543,0,1,1,3.2529166730636003e-15,-17.708053594600543A17.708053594600543,17.708053594600543,0,1,1,-3.2529166730636003e-15,17.708053594600543Z" fill="#4758cd" stroke="none"/></g><g transform="translate(579.7870961863171,386.76733269368276)" id="Story Musgrave"><path id="p_984.2624824746003" d="M-3.2529166730636003e-15,17.708053594600543A17.708053594600543,17.708053594600543,0,1,1,3.2529166730636003e-15,-17.708053594600543A17.708053594600543,17.708053594600543,0,1,1,-3.2529166730636003e-15,17.708053594600543Z" fill="#4758cd" stroke="none"/></g><g transform="translate(668.9344375297278,386.76733269368276)" id="Thomas Marshburn"><path id="p_1073.4098238180113" d="M-3.2529166730636003e-15,17.708053594600543A17.708053594600543,17.708053594600543,0,1,1,3.2529166730636003e-15,-17.708053594600543A17.708053594600543,17.708053594600543,0,1,1,-3.2529166730636003e-15,17.708053594600543Z" fill="#4758cd" stroke="none"/></g><g transform="translate(646.6476021938751,656.9808506850101)" id="Timothy Creamer"><path id="p_1321.3365064734858" d="M-3.2529166730636003e-15,17.708053594600543A17.708053594600543,17.708053594600543,0,1,1,3.2529166730636003e-15,-17.708053594600543A17.708053594600543,17.708053594600543,0,1,1,-3.2529166730636003e-15,17.708053594600543Z" fill="#4758cd" stroke="none"/></g><g transform="translate(602.0739315221698,656.9808506850101)" id="Vance D. Brand"><path id="p_1276.7628358017805" d="M-3.2529166730636003e-15,17.708053594600543A17.708053594600543,17.708053594600543,0,1,1,3.2529166730636003e-15,-17.708053594600543A17.708053594600543,17.708053594600543,0,1,1,-3.2529166730636003e-15,17.708053594600543Z" fill="#4758cd" stroke="none"/></g><g transform="translate(602.0739315221698,348.1654015520646)" id="William R. Pogue"><path id="p_967.947386668835" d="M-3.2529166730636003e-15,17.708053594600543A17.708053594600543,17.708053594600543,0,1,1,3.2529166730636003e-15,-17.708053594600543A17.708053594600543,17.708053594600543,0,1,1,-3.2529166730636003e-15,17.708053594600543Z" fill="#4758cd" stroke="none"/></g><g transform="translate(519.0656468089692,215.6648821523923)" id="Andy Thomas"><path id="p_752.438582555962" d="M-3.2529166730636003e-15,17.708053594600543A17.708053594600543,17.708053594600543,0,1,1,3.2529166730636003e-15,-17.708053594600543A17.708053594600543,17.708053594600543,0,1,1,-3.2529166730636003e-15,17.708053594600543Z" fill="#9e0142" stroke="none"/></g><g transform="translate(563.6393174806744,215.6648821523923)" id="Paul Scully-Power"><path id="p_797.0122532276672" d="M-3.2529166730636003e-15,17.708053594600543A17.708053594600543,17.708053594600543,0,1,1,3.2529166730636003e-15,-17.708053594600543A17.708053594600543,17.708053594600543,0,1,1,-3.2529166730636003e-15,17.708053594600543Z" fill="#9e0142" stroke="none"/></g><g transform="translate(444.58121995965007,120.61999246831051)" id="Dafydd Williams"><path id="p_582.9092660225612" d="M-3.2529166730636003e-15,17.708053594600543A17.708053594600543,17.708053594600543,0,1,1,3.2529166730636003e-15,-17.708053594600543A17.708053594600543,17.708053594600543,0,1,1,-3.2529166730636003e-15,17.708053594600543Z" fill="#f88e53" stroke="none"/></g><g transform="translate(489.15489063135544,120.61999246831051)" id="Robert Thirsk"><path id="p_627.4829366942665" d="M-3.2529166730636003e-15,17.708053594600543A17.708053594600543,17.708053594600543,0,1,1,3.2529166730636003e-15,-17.708053594600543A17.708053594600543,17.708053594600543,0,1,1,-3.2529166730636003e-15,17.708053594600543Z" fill="#f88e53" stroke="none"/></g><g transform="translate(466.86805529550276,159.2219236099287)" id="Steve MacLean"><path id="p_643.798032500032" d="M-3.2529166730636003e-15,17.708053594600543A17.708053594600543,17.708053594600543,0,1,1,3.2529166730636003e-15,-17.708053594600543A17.708053594600543,17.708053594600543,0,1,1,-3.2529166730636003e-15,17.708053594600543Z" fill="#f88e53" stroke="none"/></g><g transform="translate(357.6594618952562,479.4090580524169)" id="Jing Haipeng"><path id="p_854.7765735422737" d="M-3.2529166730636003e-15,17.708053594600543A17.708053594600543,17.708053594600543,0,1,1,3.2529166730636003e-15,-17.708053594600543A17.708053594600543,17.708053594600543,0,1,1,-3.2529166730636003e-15,17.708053594600543Z" fill="#bee5a0" stroke="none"/></g><g transform="translate(402.23313256696156,479.4090580524169)" id="Liu Wang"><path id="p_899.350244213979" d="M-3.2529166730636003e-15,17.708053594600543A17.708053594600543,17.708053594600543,0,1,1,3.2529166730636003e-15,-17.708053594600543A17.708053594600543,17.708053594600543,0,1,1,-3.2529166730636003e-15,17.708053594600543Z" fill="#bee5a0" stroke="none"/></g><g transform="translate(379.9462972311089,518.0109891940351)" id="Nie Haisheng"><path id="p_915.6653400197446" d="M-3.2529166730636003e-15,17.708053594600543A17.708053594600543,17.708053594600543,0,1,1,3.2529166730636003e-15,-17.708053594600543A17.708053594600543,17.708053594600543,0,1,1,-3.2529166730636003e-15,17.708053594600543Z" fill="#bee5a0" stroke="none"/></g><g transform="translate(378.2585363221766,135.05683648211658)" id="Ko San"><path id="p_531.0234263988938" d="M-3.2529166730636003e-15,17.708053594600543A17.708053594600543,17.708053594600543,0,1,1,3.2529166730636003e-15,-17.708053594600543A17.708053594600543,17.708053594600543,0,1,1,-3.2529166730636003e-15,17.708053594600543Z" fill="#89cfa5" stroke="none"/></g><g transform="translate(251.47561949351487,460.2439474182448)" id="Mamoru Mohri"><path id="p_729.4276205063602" d="M-3.2529166730636003e-15,17.708053594600543A17.708053594600543,17.708053594600543,0,1,1,3.2529166730636003e-15,-17.708053594600543A17.708053594600543,17.708053594600543,0,1,1,-3.2529166730636003e-15,17.708053594600543Z" fill="#ff6200" stroke="none"/></g><g transform="translate(296.0492901652202,460.2439474182448)" id="Takao Doi"><path id="p_774.0012911780656" d="M-3.2529166730636003e-15,17.708053594600543A17.708053594600543,17.708053594600543,0,1,1,3.2529166730636003e-15,-17.708053594600543A17.708053594600543,17.708053594600543,0,1,1,-3.2529166730636003e-15,17.708053594600543Z" fill="#ff6200" stroke="none"/></g><g transform="translate(316.2010311574709,145.24834868218082)" id="Marianne Merchez"><path id="p_479.1574334342522" d="M-3.2529166730636003e-15,17.708053594600543A17.708053594600543,17.708053594600543,0,1,1,3.2529166730636003e-15,-17.708053594600543A17.708053594600543,17.708053594600543,0,1,1,-3.2529166730636003e-15,17.708053594600543Z" fill="#f8e71c" stroke="none"/></g><g transform="translate(598.3950802505518,278.9185812823683)" id="Musa Manarov"><path id="p_895.0217151275207" d="M-3.2529166730636003e-15,17.708053594600543A17.708053594600543,17.708053594600543,0,1,1,3.2529166730636003e-15,-17.708053594600543A17.708053594600543,17.708053594600543,0,1,1,-3.2529166730636003e-15,17.708053594600543Z" fill="#ca324a" stroke="none"/></g><g transform="translate(213.36563576543045,172.9398261644689)" id="Piers Sellers"><path id="p_404.0135155244999" d="M-3.2529166730636003e-15,17.708053594600543A17.708053594600543,17.708053594600543,0,1,1,3.2529166730636003e-15,-17.708053594600543A17.708053594600543,17.708053594600543,0,1,1,-3.2529166730636003e-15,17.708053594600543Z" fill="#288fea" stroke="none"/></g><g transform="translate(257.93930643713577,172.9398261644689)" id="Timothy Peake"><path id="p_448.5871861962052" d="M-3.2529166730636003e-15,17.708053594600543A17.708053594600543,17.708053594600543,0,1,1,3.2529166730636003e-15,-17.708053594600543A17.708053594600543,17.708053594600543,0,1,1,-3.2529166730636003e-15,17.708053594600543Z" fill="#288fea" stroke="none"/></g><g transform="translate(660.7968346540025,286.7302338324345)" id="Thomas Pesquet"><path id="p_965.2351220810375" d="M-3.2529166730636003e-15,17.708053594600543A17.708053594600543,17.708053594600543,0,1,1,3.2529166730636003e-15,-17.708053594600543A17.708053594600543,17.708053594600543,0,1,1,-3.2529166730636003e-15,17.708053594600543Z" fill="#7a094b" stroke="none"/></g><g transform="translate(231.51019449355047,386.286967025643)" id="Toktar Aubakirov"><path id="p_635.505215113794" d="M-3.2529166730636003e-15,17.708053594600543A17.708053594600543,17.708053594600543,0,1,1,3.2529166730636003e-15,-17.708053594600543A17.708053594600543,17.708053594600543,0,1,1,-3.2529166730636003e-15,17.708053594600543Z" fill="#fbf8b0" stroke="none"/></g></g><g id="labels"><g transform="translate(351.3287129880298,287.9517946686804)"><text text-anchor="middle" dominant-baseline="text-before-edge" transform="translate(0,0)"/></g><g transform="translate(395.90238365973505,287.9517946686804)"><text text-anchor="middle" dominant-baseline="text-before-edge" transform="translate(0,0)"/></g><g transform="translate(373.6155483238824,326.5537258102986)"><text text-anchor="middle" dominant-baseline="text-before-edge" transform="translate(0,0)"/></g><g transform="translate(373.6155483238824,249.3498635270622)"><text text-anchor="middle" dominant-baseline="text-before-edge" transform="translate(0,0)"/></g><g transform="translate(329.0418776521771,249.3498635270622)"><text text-anchor="middle" dominant-baseline="text-before-edge" transform="translate(0,0)"/></g><g transform="translate(418.18921899558774,249.3498635270622)"><text text-anchor="middle" dominant-baseline="text-before-edge" transform="translate(0,0)"/></g><g transform="translate(418.18921899558774,326.5537258102986)"><text text-anchor="middle" dominant-baseline="text-before-edge" transform="translate(0,0)"/></g><g transform="translate(329.0418776521771,326.5537258102986)"><text text-anchor="middle" dominant-baseline="text-before-edge" transform="translate(0,0)"/></g><g transform="translate(306.7550423163244,287.9517946686804)"><text text-anchor="middle" dominant-baseline="text-before-edge" transform="translate(0,0)"/></g><g transform="translate(440.4760543314404,287.9517946686804)"><text text-anchor="middle" dominant-baseline="text-before-edge" transform="translate(0,0)"/></g><g transform="translate(462.76288966729305,326.5537258102986)"><text text-anchor="middle" dominant-baseline="text-before-edge" transform="translate(0,0)"/></g><g transform="translate(284.4682069804718,326.5537258102986)"><text text-anchor="middle" dominant-baseline="text-before-edge" transform="translate(0,0)"/></g><g transform="translate(351.3287129880298,210.74793238544402)"><text text-anchor="middle" dominant-baseline="text-before-edge" transform="translate(0,0)"/></g><g transform="translate(395.90238365973505,210.74793238544402)"><text text-anchor="middle" dominant-baseline="text-before-edge" transform="translate(0,0)"/></g><g transform="translate(395.90238365973505,365.15565695191674)"><text text-anchor="middle" dominant-baseline="text-before-edge" transform="translate(0,0)"/></g><g transform="translate(351.3287129880298,365.15565695191674)"><text text-anchor="middle" dominant-baseline="text-before-edge" transform="translate(0,0)"/></g><g transform="translate(284.4682069804718,249.3498635270622)"><text text-anchor="middle" dominant-baseline="text-before-edge" transform="translate(0,0)"/></g><g transform="translate(462.76288966729305,249.3498635270622)"><text text-anchor="middle" dominant-baseline="text-before-edge" transform="translate(0,0)"/></g><g transform="translate(373.6155483238824,403.75758809353493)"><text text-anchor="middle" dominant-baseline="text-before-edge" transform="translate(0,0)"/></g><g transform="translate(539.4428290049113,300.8191050492198)"><text text-anchor="middle" dominant-baseline="text-before-edge" transform="translate(0,0)"/></g><g transform="translate(602.0739315221698,502.57312611853735)"><text text-anchor="middle" dominant-baseline="text-before-edge" transform="translate(0,0)"/></g><g transform="translate(646.6476021938751,502.57312611853735)"><text text-anchor="middle" dominant-baseline="text-before-edge" transform="translate(0,0)"/></g><g transform="translate(624.3607668580224,541.1750572601555)"><text text-anchor="middle" dominant-baseline="text-before-edge" transform="translate(0,0)"/></g><g transform="translate(624.3607668580224,463.97119497691915)"><text text-anchor="middle" dominant-baseline="text-before-edge" transform="translate(0,0)"/></g><g transform="translate(579.7870961863171,463.97119497691915)"><text text-anchor="middle" dominant-baseline="text-before-edge" transform="translate(0,0)"/></g><g transform="translate(668.9344375297278,463.97119497691915)"><text text-anchor="middle" dominant-baseline="text-before-edge" transform="translate(0,0)"/></g><g transform="translate(668.9344375297278,541.1750572601555)"><text text-anchor="middle" dominant-baseline="text-before-edge" transform="translate(0,0)"/></g><g transform="translate(579.7870961863171,541.1750572601555)"><text text-anchor="middle" dominant-baseline="text-before-edge" transform="translate(0,0)"/></g><g transform="translate(557.5002608504644,502.57312611853735)"><text text-anchor="middle" dominant-baseline="text-before-edge" transform="translate(0,0)"/></g><g transform="translate(691.2212728655804,502.57312611853735)"><text text-anchor="middle" dominant-baseline="text-before-edge" transform="translate(0,0)"/></g><g transform="translate(713.5081082014331,541.1750572601555)"><text text-anchor="middle" dominant-baseline="text-before-edge" transform="translate(0,0)"/></g><g transform="translate(535.2134255146118,541.1750572601555)"><text text-anchor="middle" dominant-baseline="text-before-edge" transform="translate(0,0)"/></g><g transform="translate(602.0739315221698,425.36926383530096)"><text text-anchor="middle" dominant-baseline="text-before-edge" transform="translate(0,0)"/></g><g transform="translate(646.6476021938751,425.36926383530096)"><text text-anchor="middle" dominant-baseline="text-before-edge" transform="translate(0,0)"/></g><g transform="translate(646.6476021938751,579.7769884017737)"><text text-anchor="middle" dominant-baseline="text-before-edge" transform="translate(0,0)"/></g><g transform="translate(602.0739315221698,579.7769884017737)"><text text-anchor="middle" dominant-baseline="text-before-edge" transform="translate(0,0)"/></g><g transform="translate(535.2134255146118,463.97119497691915)"><text text-anchor="middle" dominant-baseline="text-before-edge" transform="translate(0,0)"/></g><g transform="translate(713.5081082014331,463.97119497691915)"><text text-anchor="middle" dominant-baseline="text-before-edge" transform="translate(0,0)"/></g><g transform="translate(624.3607668580224,618.3789195433919)"><text text-anchor="middle" dominant-baseline="text-before-edge" transform="translate(0,0)"/></g><g transform="translate(624.3607668580224,386.76733269368276)"><text text-anchor="middle" dominant-baseline="text-before-edge" transform="translate(0,0)"/></g><g transform="translate(691.2212728655804,425.36926383530096)"><text text-anchor="middle" dominant-baseline="text-before-edge" transform="translate(0,0)"/></g><g transform="translate(691.2212728655804,579.7769884017737)"><text text-anchor="middle" dominant-baseline="text-before-edge" transform="translate(0,0)"/></g><g transform="translate(557.5002608504644,579.7769884017737)"><text text-anchor="middle" dominant-baseline="text-before-edge" transform="translate(0,0)"/></g><g transform="translate(557.5002608504644,425.36926383530096)"><text text-anchor="middle" dominant-baseline="text-before-edge" transform="translate(0,0)"/></g><g transform="translate(735.7949435372857,579.7769884017737)"><text text-anchor="middle" dominant-baseline="text-before-edge" transform="translate(0,0)"/></g><g transform="translate(512.9265901787592,425.36926383530096)"><text text-anchor="middle" dominant-baseline="text-before-edge" transform="translate(0,0)"/></g><g transform="translate(735.7949435372857,425.36926383530096)"><text text-anchor="middle" dominant-baseline="text-before-edge" transform="translate(0,0)"/></g><g transform="translate(512.9265901787592,579.7769884017737)"><text text-anchor="middle" dominant-baseline="text-before-edge" transform="translate(0,0)"/></g><g transform="translate(512.9265901787592,502.57312611853735)"><text text-anchor="middle" dominant-baseline="text-before-edge" transform="translate(0,0)"/></g><g transform="translate(490.6397548429065,463.97119497691915)"><text text-anchor="middle" dominant-baseline="text-before-edge" transform="translate(0,0)"/></g><g transform="translate(735.7949435372857,502.57312611853735)"><text text-anchor="middle" dominant-baseline="text-before-edge" transform="translate(0,0)"/></g><g transform="translate(758.0817788731383,541.1750572601555)"><text text-anchor="middle" dominant-baseline="text-before-edge" transform="translate(0,0)"/></g><g transform="translate(668.9344375297278,618.3789195433919)"><text text-anchor="middle" dominant-baseline="text-before-edge" transform="translate(0,0)"/></g><g transform="translate(579.7870961863171,618.3789195433919)"><text text-anchor="middle" dominant-baseline="text-before-edge" transform="translate(0,0)"/></g><g transform="translate(579.7870961863171,386.76733269368276)"><text text-anchor="middle" dominant-baseline="text-before-edge" transform="translate(0,0)"/></g><g transform="translate(668.9344375297278,386.76733269368276)"><text text-anchor="middle" dominant-baseline="text-before-edge" transform="translate(0,0)"/></g><g transform="translate(646.6476021938751,656.9808506850101)"><text text-anchor="middle" dominant-baseline="text-before-edge" transform="translate(0,0)"/></g><g transform="translate(602.0739315221698,656.9808506850101)"><text text-anchor="middle" dominant-baseline="text-before-edge" transform="translate(0,0)"/></g><g transform="translate(602.0739315221698,348.1654015520646)"><text text-anchor="middle" dominant-baseline="text-before-edge" transform="translate(0,0)"/></g><g transform="translate(519.0656468089692,215.6648821523923)"><text text-anchor="middle" dominant-baseline="text-before-edge" transform="translate(0,0)"/></g><g transform="translate(563.6393174806744,215.6648821523923)"><text text-anchor="middle" dominant-baseline="text-before-edge" transform="translate(0,0)"/></g><g transform="translate(444.58121995965007,120.61999246831051)"><text text-anchor="middle" dominant-baseline="text-before-edge" transform="translate(0,0)"/></g><g transform="translate(489.15489063135544,120.61999246831051)"><text text-anchor="middle" dominant-baseline="text-before-edge" transform="translate(0,0)"/></g><g transform="translate(466.86805529550276,159.2219236099287)"><text text-anchor="middle" dominant-baseline="text-before-edge" transform="translate(0,0)"/></g><g transform="translate(357.6594618952562,479.4090580524169)"><text text-anchor="middle" dominant-baseline="text-before-edge" transform="translate(0,0)"/></g><g transform="translate(402.23313256696156,479.4090580524169)"><text text-anchor="middle" dominant-baseline="text-before-edge" transform="translate(0,0)"/></g><g transform="translate(379.9462972311089,518.0109891940351)"><text text-anchor="middle" dominant-baseline="text-before-edge" transform="translate(0,0)"/></g><g transform="translate(378.2585363221766,135.05683648211658)"><text text-anchor="middle" dominant-baseline="text-before-edge" transform="translate(0,0)"/></g><g transform="translate(251.47561949351487,460.2439474182448)"><text text-anchor="middle" dominant-baseline="text-before-edge" transform="translate(0,0)"/></g><g transform="translate(296.0492901652202,460.2439474182448)"><text text-anchor="middle" dominant-baseline="text-before-edge" transform="translate(0,0)"/></g><g transform="translate(316.2010311574709,145.24834868218082)"><text text-anchor="middle" dominant-baseline="text-before-edge" transform="translate(0,0)"/></g><g transform="translate(598.3950802505518,278.9185812823683)"><text text-anchor="middle" dominant-baseline="text-before-edge" transform="translate(0,0)"/></g><g transform="translate(213.36563576543045,172.9398261644689)"><text text-anchor="middle" dominant-baseline="text-before-edge" transform="translate(0,0)"/></g><g transform="translate(257.93930643713577,172.9398261644689)"><text text-anchor="middle" dominant-baseline="text-before-edge" transform="translate(0,0)"/></g><g transform="translate(660.7968346540025,286.7302338324345)"><text text-anchor="middle" dominant-baseline="text-before-edge" transform="translate(0,0)"/></g><g transform="translate(231.51019449355047,386.286967025643)"><text text-anchor="middle" dominant-baseline="text-before-edge" transform="translate(0,0)"/></g></g></g><g id="legend" transform="translate(1000,20)"><g transform="translate(5,0)"><g class="legendSize" transform="translate(0,0)"><g class="legendCells" transform="translate(18,15.5)"><g class="cell" transform="translate(0, 18)"><circle class="swatch" r="18" fill="none" stroke="#ccc"/><text class="label" transform="translate( 23,&#10;          5)" font-family="&quot;Arial&quot;, sans-serif" font-size="10px"><tspan x="0" dy="0em">1.0</tspan></text></g><g class="cell" transform="translate(0, 71.70805359460054)"><circle class="swatch" r="18" fill="none" stroke="#ccc"/><text class="label" transform="translate( 23,&#10;          5)" font-family="&quot;Arial&quot;, sans-serif" font-size="10px"><tspan x="0" dy="0em">1.0</tspan></text></g></g><text class="legendTitle" font-family="&quot;Arial&quot;, sans-serif" font-size="12px" font-weight="bold"><tspan x="0" dy="0em">Number of records</tspan></text></g><g class="legendColor" transform="translate(0,137.7080535888672)"><g class="legendCells" transform="translate(0,31.100000381469727)"><g class="cell" transform="translate(0, 0)"><rect class="swatch" height="15" width="15" style="fill: rgb(158, 1, 66);"/><text class="label" transform="translate( 20, 12.5)" font-family="&quot;Arial&quot;, sans-serif" font-size="10px"><tspan x="0" dy="0em">Australia</tspan></text></g><g class="cell" transform="translate(0, 20.5)"><rect class="swatch" height="15" width="15" style="fill: rgb(202, 50, 74);"/><text class="label" transform="translate( 20, 12.5)" font-family="&quot;Arial&quot;, sans-serif" font-size="10px"><tspan x="0" dy="0em">Azerbaijan</tspan></text></g><g class="cell" transform="translate(0, 41)"><rect class="swatch" height="15" width="15" style="fill: rgb(248, 231, 28);"/><text class="label" transform="translate( 20, 12.5)" font-family="&quot;Arial&quot;, sans-serif" font-size="10px"><tspan x="0" dy="0em">Belgium</tspan></text></g><g class="cell" transform="translate(0, 61.5)"><rect class="swatch" height="15" width="15" style="fill: rgb(248, 142, 83);"/><text class="label" transform="translate( 20, 12.5)" font-family="&quot;Arial&quot;, sans-serif" font-size="10px"><tspan x="0" dy="0em">Canada</tspan></text></g><g class="cell" transform="translate(0, 82)"><rect class="swatch" height="15" width="15" style="fill: rgb(122, 9, 75);"/><text class="label" transform="translate( 20, 12.5)" font-family="&quot;Arial&quot;, sans-serif" font-size="10px"><tspan x="0" dy="0em">France</tspan></text></g><g class="cell" transform="translate(0, 102.5)"><rect class="swatch" height="15" width="15" style="fill: rgb(255, 98, 0);"/><text class="label" transform="translate( 20, 12.5)" font-family="&quot;Arial&quot;, sans-serif" font-size="10px"><tspan x="0" dy="0em">Japan</tspan></text></g><g class="cell" transform="translate(0, 123)"><rect class="swatch" height="15" width="15" style="fill: rgb(251, 248, 176);"/><text class="label" transform="translate( 20, 12.5)" font-family="&quot;Arial&quot;, sans-serif" font-size="10px"><tspan x="0" dy="0em">Kazakhstan</tspan></text></g><g class="cell" transform="translate(0, 143.5)"><rect class="swatch" height="15" width="15" style="fill: rgb(231, 245, 163);"/><text class="label" transform="translate( 20, 12.5)" font-family="&quot;Arial&quot;, sans-serif" font-size="10px"><tspan x="0" dy="0em">Kingdom of Denmark</tspan></text></g><g class="cell" transform="translate(0, 164)"><rect class="swatch" height="15" width="15" style="fill: rgb(190, 229, 160);"/><text class="label" transform="translate( 20, 12.5)" font-family="&quot;Arial&quot;, sans-serif" font-size="10px"><tspan x="0" dy="0em">People's Republic of China</tspan></text></g><g class="cell" transform="translate(0, 184.5)"><rect class="swatch" height="15" width="15" style="fill: rgb(137, 207, 165);"/><text class="label" transform="translate( 20, 12.5)" font-family="&quot;Arial&quot;, sans-serif" font-size="10px"><tspan x="0" dy="0em">South Korea</tspan></text></g><g class="cell" transform="translate(0, 205)"><rect class="swatch" height="15" width="15" style="fill: rgb(227, 0, 3);"/><text class="label" transform="translate( 20, 12.5)" font-family="&quot;Arial&quot;, sans-serif" font-size="10px"><tspan x="0" dy="0em">Soviet Union</tspan></text></g><g class="cell" transform="translate(0, 225.5)"><rect class="swatch" height="15" width="15" style="fill: rgb(40, 143, 234);"/><text class="label" transform="translate( 20, 12.5)" font-family="&quot;Arial&quot;, sans-serif" font-size="10px"><tspan x="0" dy="0em">United Kingdom</tspan></text></g><g class="cell" transform="translate(0, 246)"><rect class="swatch" height="15" width="15" style="fill: rgb(71, 88, 205);"/><text class="label" transform="translate( 20, 12.5)" font-family="&quot;Arial&quot;, sans-serif" font-size="10px"><tspan x="0" dy="0em">United States of America</tspan></text></g></g><text class="legendTitle" font-family="&quot;Arial&quot;, sans-serif" font-size="12px" font-weight="bold"><tspan x="0" dy="0em">country_of_citizenship</tspan><tspan x="0" dy="1.2em">[csvDistinct]</tspan></text></g></g></g></svg>